{
.appVersion = "1141";
DisplayStrings = (
"/lmiddletilde ove /istroke t"
);
copyright = "Digitized data copyright (C) 2010-2011, Google Corporation.";
customParameters = (
{
name = license;
value = "Licensed under the Apache License, Version 2.0";
},
{
name = licenseURL;
value = "http://www.apache.org/licenses/LICENSE-2.0";
},
{
name = vendorID;
value = "1ASC";
},
{
name = panose;
value = (
2,
11,
6,
6,
3,
5,
4,
2,
2,
4
);
},
{
name = unicodeRanges;
value = (
0,
1,
2,
3,
5,
6,
7,
9,
29,
30,
31,
32,
33,
35,
36,
38,
45,
62,
67,
69
);
},
{
name = codePageRanges;
value = (
1252,
1250,
1251,
1253,
1254,
1257,
1258
);
},
{
name = glyphOrder;
value = (
.notdef,
null,
nonmarkingreturn,
space,
exclam,
quotedbl,
numbersign,
dollar,
percent,
ampersand,
quotesingle,
parenleft,
parenright,
asterisk,
plus,
comma,
hyphen,
period,
slash,
zero,
one,
two,
three,
four,
five,
six,
seven,
eight,
nine,
colon,
semicolon,
less,
equal,
greater,
question,
at,
A,
B,
C,
D,
E,
F,
G,
H,
I.alt,
J,
K,
L,
M,
N,
O,
P,
Q,
R,
S,
T,
U,
V,
W,
X,
Y,
Z,
bracketleft,
backslash,
bracketright,
asciicircum,
underscore,
grave,
a,
b,
c,
d,
e,
f,
g,
h,
i,
j,
k,
l,
m,
n,
o,
p,
q,
r,
s,
t,
u,
v,
w,
x,
y,
z,
braceleft,
bar,
braceright,
asciitilde,
nonbreakingspace,
exclamdown,
cent,
sterling,
currency,
yen,
brokenbar,
section,
dieresis,
copyright,
ordfeminine,
guillemotleft,
logicalnot,
uni00AD,
registered,
overscore,
degree,
plusminus,
twosuperior,
threesuperior,
acute,
mu,
paragraph,
periodcentered,
cedilla,
onesuperior,
ordmasculine,
guillemotright,
onequarter,
onehalf,
threequarters,
questiondown,
Agrave,
Aacute,
Acircumflex,
Atilde,
Adieresis,
Aring,
AE,
Ccedilla,
Egrave,
Eacute,
Ecircumflex,
Edieresis,
Igrave.alt,
Iacute.alt,
Icircumflex.alt,
Idieresis.alt,
Eth,
Ntilde,
Ograve,
Oacute,
Ocircumflex,
Otilde,
Odieresis,
multiply,
Oslash,
Ugrave,
Uacute,
Ucircumflex,
Udieresis,
Yacute,
Thorn,
germandbls,
agrave,
aacute,
acircumflex,
atilde,
adieresis,
aring,
ae,
ccedilla,
egrave,
eacute,
ecircumflex,
edieresis,

glyphs = (
{
glyphname = .notdef;
lastChange = "2017-04-22 20:56:27 +0000";
layers = (
{
layerId = "2E634D02-5A4A-4A55-A314-31ACA041593B";
paths = (
{
closed = 1;
nodes = (
"1034 0 LINE",
"1034 1462 LINE",
"193 1462 LINE",
"193 0 LINE"
);
},
{
closed = 1;
nodes = (
"930 1358 LINE",
"930 104 LINE",
"297 104 LINE",
"297 1358 LINE"
);
}
);
width = 1229;
}
);
note = .notdef;
},
{
glyphname = exclam;
lastChange = "2017-04-22 20:56:27 +0000";
layers = (
{
layerId = "2E634D02-5A4A-4A55-A314-31ACA041593B";
paths = (
{
closed = 1;
nodes = (
"170 1462 LINE",
"221 403 LINE",
"326 403 LINE",
"377 1462 LINE"
);
},
{
closed = 1;
nodes = (
"152 10 OFFCURVE",
"203 -29 OFFCURVE",
"272 -29 CURVE SMOOTH",
"348 -29 OFFCURVE",
"393 21 OFFCURVE",
"393 106 CURVE SMOOTH",
"393 194 OFFCURVE",
"349 242 OFFCURVE",
"272 242 CURVE SMOOTH",
"192 242 OFFCURVE",
"152 197 OFFCURVE",
"152 106 CURVE SMOOTH"
);
}
);
width = 547;
}
);
note = exclam;
unicode = 0021;
},
{
glyphname = quotedbl;
lastChange = "2017-04-22 20:56:27 +0000";
layers = (
{
layerId = "2E634D02-5A4A-4A55-A314-31ACA041593B";
paths = (
{
closed = 1;
nodes = (
"174 934 LINE",
"279 934 LINE",
"319 1462 LINE",
"133 1462 LINE"
);
},
{
closed = 1;
nodes = (
"543 934 LINE",
"647 934 LINE",
"688 1462 LINE",
"502 1462 LINE"
);
}
);
width = 821;
}
);
note = quotedbl;
unicode = 0022;
},
{
glyphname = numbersign;
lastChange = "2017-04-22 20:56:27 +0000";
layers = (
{
layerId = "2E634D02-5A4A-4A55-A314-31ACA041593B";
paths = (
{
closed = 1;
nodes = (
"1270 1026 LINE",
"1006 1026 LINE",
"1090 1462 LINE",
"956 1462 LINE",
"872 1026 LINE",
"567 1026 LINE",
"649 1462 LINE",
"510 1462 LINE",
"428 1026 LINE",
"129 1026 LINE",
"129 899 LINE",
"406 899 LINE",
"338 559 LINE",
"51 559 LINE",
"51 430 LINE",
"313 430 LINE",
"233 0 LINE",
"369 0 LINE",
"451 430 LINE",
"754 430 LINE",
"670 0 LINE",
"807 0 LINE",
"891 430 LINE",
"1198 430 LINE",
"1198 559 LINE",
"915 559 LINE",
"981 899 LINE",
"1270 899 LINE"
);
},
{
closed = 1;
nodes = (
"844 899 LINE",
"778 559 LINE",
"475 559 LINE",
"541 899 LINE"
);
}
);
width = 1323;
}
);
note = numbersign;
unicode = 0023;
},
{
glyphname = dollar;
lastChange = "2017-04-22 20:56:27 +0000";
layers = (
{
layerId = "2E634D02-5A4A-4A55-A314-31ACA041593B";
paths = (
{
closed = 1;
nodes = (
"1036 508 OFFCURVE",
"1024 558 OFFCURVE",
"999 599 CURVE SMOOTH",
"950 681 OFFCURVE",
"858 738 OFFCURVE",
"649 805 CURVE",
"649 1239 LINE",
"752 1232 OFFCURVE",
"853 1208 OFFCURVE",
"952 1169 CURVE",
"1004 1300 LINE",
"890 1346 OFFCURVE",
"772 1371 OFFCURVE",
"649 1374 CURVE",
"649 1554 LINE",
"520 1554 LINE",
"520 1372 LINE",
"297 1348 OFFCURVE",
"150 1230 OFFCURVE",
"150 1055 CURVE SMOOTH",
"150 874 OFFCURVE",
"247 769 OFFCURVE",
"520 682 CURVE",
"520 242 LINE",
"401 242 OFFCURVE",
"242 277 OFFCURVE",
"131 326 CURVE",
"131 170 LINE",
"220 129 OFFCURVE",
"371 104 OFFCURVE",
"520 104 CURVE",
"520 -119 LINE",
"649 -119 LINE",
"649 113 LINE",
"893 144 OFFCURVE",
"1036 268 OFFCURVE",
"1036 449 CURVE SMOOTH"
);
},
{
closed = 1;
nodes = (
"866 333 OFFCURVE",
"794 272 OFFCURVE",
"649 252 CURVE",
"649 641 LINE",
"820 582 OFFCURVE",
"866 532 OFFCURVE",
"866 436 CURVE SMOOTH"
);
},
{
closed = 1;
nodes = (
"319 1149 OFFCURVE",
"388 1214 OFFCURVE",
"520 1235 CURVE",
"520 848 LINE",
"372 903 OFFCURVE",
"319 956 OFFCURVE",
"319 1057 CURVE SMOOTH"
);
}
);
width = 1171;
}
);
note = dollar;
unicode = 0024;
},
{
glyphname = percent;
lastChange = "2017-04-22 20:56:27 +0000";
layers = (
{
layerId = "2E634D02-5A4A-4A55-A314-31ACA041593B";
paths = (
{
closed = 1;
nodes = (
"242 1139 OFFCURVE",
"254 1224 OFFCURVE",
"279 1280 CURVE SMOOTH",
"304 1336 OFFCURVE",
"344 1364 OFFCURVE",
"399 1364 CURVE SMOOTH",
"508 1364 OFFCURVE",
"563 1251 OFFCURVE",
"563 1026 CURVE SMOOTH",
"563 799 OFFCURVE",
"508 686 OFFCURVE",
"399 686 CURVE SMOOTH",
"344 686 OFFCURVE",
"304 714 OFFCURVE",
"279 771 CURVE SMOOTH",
"254 828 OFFCURVE",
"242 913 OFFCURVE",
"242 1026 CURVE SMOOTH"
);
},
{
closed = 1;
nodes = (
"700 1318 OFFCURVE",
"592 1483 OFFCURVE",
"399 1483 CURVE SMOOTH",
"204 1483 OFFCURVE",
"104 1329 OFFCURVE",
"104 1026 CURVE SMOOTH",
"104 729 OFFCURVE",
"212 565 OFFCURVE",
"399 565 CURVE SMOOTH",
"596 565 OFFCURVE",
"700 722 OFFCURVE",
"700 1026 CURVE SMOOTH"
);
},
{
closed = 1;
nodes = (
"1122 554 OFFCURVE",
"1134 639 OFFCURVE",
"1159 694 CURVE SMOOTH",
"1184 749 OFFCURVE",
"1224 776 OFFCURVE",
"1280 776 CURVE SMOOTH",
"1392 776 OFFCURVE",
"1444 668 OFFCURVE",
"1444 440 CURVE SMOOTH",
"1444 325 OFFCURVE",
"1431 239 OFFCURVE",
"1404 184 CURVE SMOOTH",
"1377 128 OFFCURVE",
"1336 100 OFFCURVE",
"1280 100 CURVE SMOOTH",
"1224 100 OFFCURVE",
"1184 128 OFFCURVE",
"1159 185 CURVE SMOOTH",
"1134 241 OFFCURVE",
"1122 326 OFFCURVE",
"1122 440 CURVE SMOOTH"
);
},
{
closed = 1;
nodes = (
"1581 736 OFFCURVE",
"1469 897 OFFCURVE",
"1280 897 CURVE SMOOTH",
"1085 897 OFFCURVE",
"985 743 OFFCURVE",
"985 440 CURVE SMOOTH",
"985 144 OFFCURVE",
"1091 -20 OFFCURVE",
"1280 -20 CURVE SMOOTH",
"1477 -20 OFFCURVE",
"1581 137 OFFCURVE",
"1581 440 CURVE SMOOTH"
);
},
{
closed = 1;
nodes = (
"365 0 LINE",
"512 0 LINE",
"1323 1462 LINE",
"1176 1462 LINE"
);
}
);
width = 1686;
}
);
note = percent;
unicode = 0025;
},
{
glyphname = ampersand;
lastChange = "2017-04-22 20:56:27 +0000";
layers = (
{
layerId = "2E634D02-5A4A-4A55-A314-31ACA041593B";
paths = (
{
closed = 1;
nodes = (
"414 1279 OFFCURVE",
"495 1348 OFFCURVE",
"614 1348 CURVE SMOOTH",
"729 1348 OFFCURVE",
"803 1277 OFFCURVE",
"803 1174 CURVE SMOOTH",
"803 1063 OFFCURVE",
"745 989 OFFCURVE",
"573 889 CURVE",
"457 1006 OFFCURVE",
"414 1079 OFFCURVE",
"414 1171 CURVE SMOOTH"
);
},
{
closed = 1;
nodes = (
"397 129 OFFCURVE",
"285 227 OFFCURVE",
"285 383 CURVE SMOOTH",
"285 426 OFFCURVE",
"292 465 OFFCURVE",
"307 499 CURVE SMOOTH",
"336 567 OFFCURVE",
"384 616 OFFCURVE",
"532 707 CURVE",
"969 283 LINE",
"863 180 OFFCURVE",
"730 129 OFFCURVE",
"569 129 CURVE SMOOTH"
);
},
{
closed = 1;
nodes = (
"113 130 OFFCURVE",
"278 -20 OFFCURVE",
"565 -20 CURVE SMOOTH",
"765 -20 OFFCURVE",
"920 37 OFFCURVE",
"1077 178 CURVE",
"1262 0 LINE",
"1491 0 LINE",
"1192 291 LINE",
"1283 390 OFFCURVE",
"1352 534 OFFCURVE",
"1397 725 CURVE",
"1229 725 LINE",
"1198 593 OFFCURVE",
"1158 480 OFFCURVE",
"1083 397 CURVE",
"676 788 LINE",
"885 912 OFFCURVE",
"969 1026 OFFCURVE",
"969 1169 CURVE SMOOTH",
"969 1368 OFFCURVE",
"837 1485 OFFCURVE",
"621 1485 CURVE SMOOTH",
"388 1485 OFFCURVE",
"250 1367 OFFCURVE",
"250 1167 CURVE SMOOTH",
"250 1129 OFFCURVE",
"256 1092 OFFCURVE",
"268 1057 CURVE SMOOTH",
"292 986 OFFCURVE",
"319 938 OFFCURVE",
"432 811 CURVE",
"192 675 OFFCURVE",
"113 552 OFFCURVE",
"113 379 CURVE SMOOTH"
);
}
);
width = 1495;
}
);
note = ampersand;
unicode = 0026;
},
{
glyphname = quotesingle;
lastChange = "2017-04-22 20:56:27 +0000";
layers = (
{
layerId = "2E634D02-5A4A-4A55-A314-31ACA041593B";
paths = (
{
closed = 1;
nodes = (
"174 934 LINE",
"279 934 LINE",
"319 1462 LINE",
"133 1462 LINE"
);
}
);
width = 453;
}
);
note = quotesingle;
unicode = 0027;
},
{
glyphname = parenleft;
lastChange = "2017-04-22 20:56:27 +0000";
layers = (
{
layerId = "2E634D02-5A4A-4A55-A314-31ACA041593B";
paths = (
{
closed = 1;
nodes = (
"82 213 OFFCURVE",
"187 -97 OFFCURVE",
"383 -324 CURVE",
"543 -324 LINE",
"358 -72 OFFCURVE",
"256 243 OFFCURVE",
"256 563 CURVE SMOOTH",
"256 888 OFFCURVE",
"353 1205 OFFCURVE",
"545 1462 CURVE",
"383 1462 LINE",
"188 1230 OFFCURVE",
"82 914 OFFCURVE",
"82 561 CURVE SMOOTH"
);
}
);
width = 606;
}
);
note = parenleft;
unicode = 0028;
},
{
glyphname = parenright;
lastChange = "2017-04-22 20:56:27 +0000";
layers = (
{
layerId = "2E634D02-5A4A-4A55-A314-31ACA041593B";
paths = (
{
closed = 1;
nodes = (
"524 912 OFFCURVE",
"419 1229 OFFCURVE",
"223 1462 CURVE",
"61 1462 LINE",
"253 1205 OFFCURVE",
"350 888 OFFCURVE",
"350 563 CURVE SMOOTH",
"350 243 OFFCURVE",
"248 -73 OFFCURVE",
"63 -324 CURVE",
"223 -324 LINE",
"418 -100 OFFCURVE",
"524 210 OFFCURVE",
"524 561 CURVE SMOOTH"
);
}
);
width = 606;
}
);
note = parenright;
unicode = 0029;
},
{
glyphname = asterisk;
lastChange = "2017-04-22 20:56:27 +0000";
layers = (
{
layerId = "2E634D02-5A4A-4A55-A314-31ACA041593B";
paths = (
{
closed = 1;
nodes = (
"506 1161 LINE",
"115 1272 LINE",
"86 1090 LINE",
"463 1059 LINE",
"221 733 LINE",
"397 639 LINE",
"557 1001 LINE",
"733 639 LINE",
"905 733 LINE",
"657 1059 LINE",
"1038 1090 LINE",
"1012 1272 LINE",
"614 1161 LINE",
"657 1556 LINE",
"463 1556 LINE"
);
}
);
width = 1130;
}
);
note = asterisk;
unicode = 002A;
},
{
glyphname = plus;
lastChange = "2017-04-22 20:56:27 +0000";
layers = (
{
layerId = "2E634D02-5A4A-4A55-A314-31ACA041593B";
paths = (
{
closed = 1;
nodes = (
"514 1219 LINE",
"514 791 LINE",
"104 791 LINE",
"104 653 LINE",
"514 653 LINE",
"514 227 LINE",
"653 227 LINE",
"653 653 LINE",
"1065 653 LINE",
"1065 791 LINE",
"653 791 LINE",
"653 1219 LINE"
);
}
);
width = 1171;
}
);
note = plus;
unicode = 002B;
},
{
glyphname = comma;
lastChange = "2017-04-22 20:56:27 +0000";
layers = (
{
layerId = "2E634D02-5A4A-4A55-A314-31ACA041593B";
paths = (
{
closed = 1;
nodes = (
"151 115 OFFCURVE",
"99 -125 OFFCURVE",
"63 -264 CURVE",
"188 -264 LINE",
"259 -112 OFFCURVE",
"330 82 OFFCURVE",
"365 215 CURVE",
"350 238 LINE",
"168 238 LINE"
);
}
);
width = 502;
}
);
note = comma;
unicode = 002C;
},
{
glyphname = hyphen;
lastChange = "2017-04-22 20:56:27 +0000";
layers = (
{
layerId = "2E634D02-5A4A-4A55-A314-31ACA041593B";
paths = (
{
closed = 1;
nodes = (
"575 625 LINE",
"84 625 LINE",
"84 473 LINE",
"575 473 LINE"
);
}
);
width = 659;
}
);
note = hyphen;
unicode = 002D;
},
{
glyphname = period;
lastChange = "2017-04-22 20:56:27 +0000";
layers = (
{
layerId = "2E634D02-5A4A-4A55-A314-31ACA041593B";
paths = (
{
closed = 1;
nodes = (
"152 10 OFFCURVE",
"202 -29 OFFCURVE",
"270 -29 CURVE SMOOTH",
"346 -29 OFFCURVE",
"393 19 OFFCURVE",
"393 106 CURVE SMOOTH",
"393 195 OFFCURVE",
"347 242 OFFCURVE",
"270 242 CURVE SMOOTH",
"194 242 OFFCURVE",
"152 195 OFFCURVE",
"152 106 CURVE SMOOTH"
);
}
);
width = 545;
}
);
note = period;
unicode = 002E;
},
{
glyphname = slash;
lastChange = "2017-04-22 20:56:27 +0000";
layers = (
{
layerId = "2E634D02-5A4A-4A55-A314-31ACA041593B";
paths = (
{
closed = 1;
nodes = (
"20 0 LINE",
"186 0 LINE",
"731 1462 LINE",
"565 1462 LINE"
);
}
);
width = 752;
}
);
note = slash;
unicode = 002F;
},
{
glyphname = zero;
lastChange = "2017-04-22 20:56:27 +0000";
layers = (
{
layerId = "2E634D02-5A4A-4A55-A314-31ACA041593B";
paths = (
{
closed = 1;
nodes = (
"1069 1221 OFFCURVE",
"901 1485 OFFCURVE",
"584 1485 CURVE SMOOTH",
"259 1485 OFFCURVE",
"102 1242 OFFCURVE",
"102 733 CURVE SMOOTH",
"102 240 OFFCURVE",
"269 -20 OFFCURVE",
"584 -20 CURVE SMOOTH",
"912 -20 OFFCURVE",
"1069 228 OFFCURVE",
"1069 733 CURVE SMOOTH"
);
},
{
closed = 1;
nodes = (
"270 1158 OFFCURVE",
"365 1341 OFFCURVE",
"584 1341 CURVE SMOOTH",
"805 1341 OFFCURVE",
"899 1153 OFFCURVE",
"899 733 CURVE SMOOTH",
"899 313 OFFCURVE",
"805 123 OFFCURVE",
"584 123 CURVE SMOOTH",
"365 123 OFFCURVE",
"270 308 OFFCURVE",
"270 733 CURVE SMOOTH"
);
}
);
width = 1171;
}
);
note = zero;
unicode = 0030;
},
{
glyphname = one;
lastChange = "2017-04-22 20:56:27 +0000";
layers = (
{
layerId = "2E634D02-5A4A-4A55-A314-31ACA041593B";
paths = (
{
closed = 1;
nodes = (
"575 1462 LINE",
"188 1163 LINE",
"276 1049 LINE",
"417 1164 OFFCURVE",
"497 1229 OFFCURVE",
"514 1244 CURVE SMOOTH",
"531 1259 OFFCURVE",
"547 1274 OFFCURVE",
"561 1288 CURVE",
"556 1211 OFFCURVE",
"553 1129 OFFCURVE",
"553 1042 CURVE SMOOTH",
"553 0 LINE",
"715 0 LINE",
"715 1462 LINE"
);
}
);
width = 1171;
}
);
note = one;
unicode = 0031;
},
{
glyphname = two;
lastChange = "2017-04-22 20:56:27 +0000";
layers = (
{
layerId = "2E634D02-5A4A-4A55-A314-31ACA041593B";
paths = (
{
closed = 1;
nodes = (
"309 154 LINE",
"309 162 LINE",
"629 475 LINE SMOOTH",
"914 752 OFFCURVE",
"999 909 OFFCURVE",
"999 1094 CURVE SMOOTH",
"999 1331 OFFCURVE",
"834 1483 OFFCURVE",
"559 1483 CURVE SMOOTH",
"400 1483 OFFCURVE",
"254 1427 OFFCURVE",
"119 1315 CURVE",
"207 1202 LINE",
"340 1307 OFFCURVE",
"440 1341 OFFCURVE",
"561 1341 CURVE SMOOTH",
"729 1341 OFFCURVE",
"829 1243 OFFCURVE",
"829 1087 CURVE SMOOTH",
"829 976 OFFCURVE",
"792 885 OFFCURVE",
"717 784 CURVE SMOOTH",
"680 733 OFFCURVE",
"602 649 OFFCURVE",
"485 530 CURVE SMOOTH",
"100 143 LINE",
"100 0 LINE",
"1061 0 LINE",
"1061 154 LINE"
);
}
);
width = 1171;
}
);
note = two;
unicode = 0032;
},
{
glyphname = three;
lastChange = "2017-04-22 20:56:27 +0000";
layers = (
{
layerId = "2E634D02-5A4A-4A55-A314-31ACA041593B";
paths = (
{
closed = 1;
nodes = (
"1006 1345 OFFCURVE",
"841 1483 OFFCURVE",
"557 1483 CURVE SMOOTH",
"384 1483 OFFCURVE",
"222 1426 OFFCURVE",
"102 1331 CURVE",
"186 1219 LINE",
"331 1312 OFFCURVE",
"433 1341 OFFCURVE",
"561 1341 CURVE SMOOTH",
"729 1341 OFFCURVE",
"834 1255 OFFCURVE",
"834 1112 CURVE SMOOTH",
"834 933 OFFCURVE",
"691 827 OFFCURVE",
"463 827 CURVE SMOOTH",
"317 827 LINE",
"317 684 LINE",
"461 684 LINE SMOOTH",
"740 684 OFFCURVE",
"879 595 OFFCURVE",
"879 418 CURVE SMOOTH",
"879 220 OFFCURVE",
"753 121 OFFCURVE",
"500 121 CURVE SMOOTH",
"372 121 OFFCURVE",
"221 154 OFFCURVE",
"94 217 CURVE",
"94 59 LINE",
"215 0 OFFCURVE",
"339 -20 OFFCURVE",
"494 -20 CURVE SMOOTH",
"850 -20 OFFCURVE",
"1051 135 OFFCURVE",
"1051 414 CURVE SMOOTH",
"1051 609 OFFCURVE",
"940 733 OFFCURVE",
"705 762 CURVE",
"705 770 LINE",
"897 810 OFFCURVE",
"1006 931 OFFCURVE",
"1006 1118 CURVE SMOOTH"
);
}
);
width = 1171;
}
);
note = three;
unicode = 0033;
},
{
glyphname = four;
lastChange = "2017-04-22 20:56:27 +0000";
layers = (
{
layerId = "2E634D02-5A4A-4A55-A314-31ACA041593B";
paths = (
{
closed = 1;
nodes = (
"913 487 LINE",
"913 1470 LINE",
"737 1470 LINE",
"43 481 LINE",
"43 336 LINE",
"754 336 LINE",
"754 0 LINE",
"913 0 LINE",
"913 336 LINE",
"1130 336 LINE",
"1130 487 LINE"
);
},
{
closed = 1;
nodes = (
"666 1137 LINE SMOOTH",
"694 1179 OFFCURVE",
"724 1232 OFFCURVE",
"756 1296 CURVE",
"764 1296 LINE",
"757 1176 OFFCURVE",
"754 1068 OFFCURVE",
"754 973 CURVE SMOOTH",
"754 487 LINE",
"209 487 LINE"
);
}
);
width = 1171;
}
);
note = four;
unicode = 0034;
},
{
glyphname = five;
lastChange = "2017-04-22 20:56:27 +0000";
layers = (
{
layerId = "2E634D02-5A4A-4A55-A314-31ACA041593B";
paths = (
{
closed = 1;
nodes = (
"481 893 OFFCURVE",
"405 885 OFFCURVE",
"328 870 CURVE",
"365 1309 LINE",
"950 1309 LINE",
"950 1462 LINE",
"223 1462 LINE",
"168 778 LINE",
"254 723 LINE",
"360 742 OFFCURVE",
"445 752 OFFCURVE",
"508 752 CURVE SMOOTH",
"758 752 OFFCURVE",
"883 650 OFFCURVE",
"883 446 CURVE SMOOTH",
"883 237 OFFCURVE",
"747 123 OFFCURVE",
"512 123 CURVE SMOOTH",
"377 123 OFFCURVE",
"226 159 OFFCURVE",
"133 219 CURVE",
"133 59 LINE",
"220 6 OFFCURVE",
"345 -20 OFFCURVE",
"510 -20 CURVE SMOOTH",
"849 -20 OFFCURVE",
"1053 162 OFFCURVE",
"1053 465 CURVE SMOOTH",
"1053 730 OFFCURVE",
"865 893 OFFCURVE",
"557 893 CURVE SMOOTH"
);
}
);
width = 1171;
}
);
note = five;
unicode = 0035;
},
{
glyphname = six;
lastChange = "2017-04-22 20:56:27 +0000";
layers = (
{
layerId = "2E634D02-5A4A-4A55-A314-31ACA041593B";
paths = (
{
closed = 1;
nodes = (
"117 220 OFFCURVE",
"307 -20 OFFCURVE",
"610 -20 CURVE SMOOTH",
"893 -20 OFFCURVE",
"1071 165 OFFCURVE",
"1071 469 CURVE SMOOTH",
"1071 741 OFFCURVE",
"910 911 OFFCURVE",
"647 911 CURVE SMOOTH",
"488 911 OFFCURVE",
"372 854 OFFCURVE",
"299 739 CURVE",
"287 739 LINE",
"303 1158 OFFCURVE",
"469 1346 OFFCURVE",
"782 1346 CURVE SMOOTH",
"848 1346 OFFCURVE",
"907 1338 OFFCURVE",
"958 1321 CURVE",
"958 1464 LINE",
"915 1477 OFFCURVE",
"855 1483 OFFCURVE",
"780 1483 CURVE SMOOTH",
"343 1483 OFFCURVE",
"117 1200 OFFCURVE",
"117 625 CURVE SMOOTH"
);
},
{
closed = 1;
nodes = (
"545 121 OFFCURVE",
"490 138 OFFCURVE",
"441 173 CURVE SMOOTH",
"343 242 OFFCURVE",
"287 369 OFFCURVE",
"287 506 CURVE SMOOTH",
"287 553 OFFCURVE",
"302 598 OFFCURVE",
"332 641 CURVE SMOOTH",
"391 728 OFFCURVE",
"496 780 OFFCURVE",
"616 780 CURVE SMOOTH",
"809 780 OFFCURVE",
"907 662 OFFCURVE",
"907 469 CURVE SMOOTH",
"907 244 OFFCURVE",
"797 121 OFFCURVE",
"608 121 CURVE SMOOTH"
);
}
);
width = 1171;
}
);
note = six;
unicode = 0036;
},
{
glyphname = seven;
lastChange = "2017-04-22 20:56:27 +0000";
layers = (
{
layerId = "2E634D02-5A4A-4A55-A314-31ACA041593B";
paths = (
{
closed = 1;
nodes = (
"1067 1329 LINE",
"1067 1462 LINE",
"94 1462 LINE",
"94 1309 LINE",
"891 1309 LINE",
"285 0 LINE",
"469 0 LINE"
);
}
);
width = 1171;
}
);
note = seven;
unicode = 0037;
},
{
glyphname = eight;
lastChange = "2017-04-22 20:56:27 +0000";
layers = (
{
layerId = "2E634D02-5A4A-4A55-A314-31ACA041593B";
paths = (
{
closed = 1;
nodes = (
"321 1483 OFFCURVE",
"152 1347 OFFCURVE",
"152 1135 CURVE SMOOTH",
"152 986 OFFCURVE",
"226 868 OFFCURVE",
"410 764 CURVE",
"206 671 OFFCURVE",
"104 540 OFFCURVE",
"104 373 CURVE SMOOTH",
"104 122 OFFCURVE",
"278 -20 OFFCURVE",
"590 -20 CURVE SMOOTH",
"885 -20 OFFCURVE",
"1065 136 OFFCURVE",
"1065 379 CURVE SMOOTH",
"1065 543 OFFCURVE",
"974 661 OFFCURVE",
"737 774 CURVE",
"933 871 OFFCURVE",
"1018 989 OFFCURVE",
"1018 1133 CURVE SMOOTH",
"1018 1352 OFFCURVE",
"851 1483 OFFCURVE",
"584 1483 CURVE SMOOTH"
);
},
{
closed = 1;
nodes = (
"268 513 OFFCURVE",
"352 611 OFFCURVE",
"551 696 CURVE",
"810 601 OFFCURVE",
"901 506 OFFCURVE",
"901 377 CURVE SMOOTH",
"901 214 OFFCURVE",
"785 115 OFFCURVE",
"586 115 CURVE SMOOTH",
"385 115 OFFCURVE",
"268 209 OFFCURVE",
"268 369 CURVE SMOOTH"
);
},
{
closed = 1;
nodes = (
"751 1348 OFFCURVE",
"854 1263 OFFCURVE",
"854 1128 CURVE SMOOTH",
"854 1005 OFFCURVE",
"783 918 OFFCURVE",
"592 838 CURVE",
"380 926 OFFCURVE",
"315 1005 OFFCURVE",
"315 1128 CURVE SMOOTH",
"315 1261 OFFCURVE",
"415 1348 OFFCURVE",
"582 1348 CURVE SMOOTH"
);
}
);
width = 1171;
}
);
note = eight;
unicode = 0038;
},
{
glyphname = nine;
lastChange = "2017-04-22 20:56:27 +0000";
layers = (
{
layerId = "2E634D02-5A4A-4A55-A314-31ACA041593B";
paths = (
{
closed = 1;
nodes = (
"1061 971 OFFCURVE",
"1041 1086 OFFCURVE",
"1001 1184 CURVE SMOOTH",
"921 1379 OFFCURVE",
"768 1483 OFFCURVE",
"569 1483 CURVE SMOOTH",
"292 1483 OFFCURVE",
"106 1295 OFFCURVE",
"106 991 CURVE SMOOTH",
"106 714 OFFCURVE",
"269 551 OFFCURVE",
"528 551 CURVE SMOOTH",
"680 551 OFFCURVE",
"806 610 OFFCURVE",
"879 721 CURVE",
"891 721 LINE",
"876 312 OFFCURVE",
"715 117 OFFCURVE",
"395 117 CURVE SMOOTH",
"327 117 OFFCURVE",
"266 126 OFFCURVE",
"213 143 CURVE",
"213 0 LINE",
"258 -13 OFFCURVE",
"320 -20 OFFCURVE",
"397 -20 CURVE SMOOTH",
"840 -20 OFFCURVE",
"1061 266 OFFCURVE",
"1061 838 CURVE SMOOTH"
);
},
{
closed = 1;
nodes = (
"632 1341 OFFCURVE",
"689 1324 OFFCURVE",
"738 1290 CURVE SMOOTH",
"836 1222 OFFCURVE",
"893 1096 OFFCURVE",
"893 956 CURVE SMOOTH",
"893 909 OFFCURVE",
"878 865 OFFCURVE",
"849 822 CURVE SMOOTH",
"790 737 OFFCURVE",
"682 684 OFFCURVE",
"561 684 CURVE SMOOTH",
"365 684 OFFCURVE",
"270 801 OFFCURVE",
"270 993 CURVE SMOOTH",
"270 1212 OFFCURVE",
"378 1341 OFFCURVE",
"569 1341 CURVE SMOOTH"
);
}
);
width = 1171;
}
);
note = nine;
unicode = 0039;
},
{
glyphname = colon;
lastChange = "2017-04-22 20:56:27 +0000";
layers = (
{
layerId = "2E634D02-5A4A-4A55-A314-31ACA041593B";
paths = (
{
closed = 1;
nodes = (
"152 10 OFFCURVE",
"202 -29 OFFCURVE",
"270 -29 CURVE SMOOTH",
"346 -29 OFFCURVE",
"393 19 OFFCURVE",
"393 106 CURVE SMOOTH",
"393 195 OFFCURVE",
"347 242 OFFCURVE",
"270 242 CURVE SMOOTH",
"194 242 OFFCURVE",
"152 195 OFFCURVE",
"152 106 CURVE SMOOTH"
);
},
{
closed = 1;
nodes = (
"152 893 OFFCURVE",
"202 854 OFFCURVE",
"270 854 CURVE SMOOTH",
"346 854 OFFCURVE",
"393 902 OFFCURVE",
"393 989 CURVE SMOOTH",
"393 1079 OFFCURVE",
"352 1124 OFFCURVE",
"270 1124 CURVE SMOOTH",
"191 1124 OFFCURVE",
"152 1079 OFFCURVE",
"152 989 CURVE SMOOTH"
);
}
);
width = 545;
}
);
note = colon;
unicode = 003A;
},
{
glyphname = semicolon;
lastChange = "2017-04-22 20:56:27 +0000";
layers = (
{
layerId = "2E634D02-5A4A-4A55-A314-31ACA041593B";
paths = (
{
closed = 1;
nodes = (
"151 115 OFFCURVE",
"99 -125 OFFCURVE",
"63 -264 CURVE",
"188 -264 LINE",
"259 -112 OFFCURVE",
"330 82 OFFCURVE",
"365 215 CURVE",
"350 238 LINE",
"168 238 LINE"
);
},
{
closed = 1;
nodes = (
"147 902 OFFCURVE",
"189 854 OFFCURVE",
"266 854 CURVE SMOOTH",
"342 854 OFFCURVE",
"389 902 OFFCURVE",
"389 989 CURVE SMOOTH",
"389 1079 OFFCURVE",
"348 1124 OFFCURVE",
"266 1124 CURVE SMOOTH",
"187 1124 OFFCURVE",
"147 1079 OFFCURVE",
"147 989 CURVE SMOOTH"
);
}
);
width = 545;
}
);
note = semicolon;
unicode = 003B;
},
{
glyphname = less;
lastChange = "2017-04-22 20:56:27 +0000";
layers = (
{
layerId = "2E634D02-5A4A-4A55-A314-31ACA041593B";
paths = (
{
closed = 1;
nodes = (
"283 721 LINE",
"1065 1092 LINE",
"1065 1241 LINE",
"104 762 LINE",
"104 664 LINE",
"1065 242 LINE",
"1065 393 LINE"
);
}
);
width = 1171;
}
);
note = less;
unicode = 003C;
},
{
glyphname = equal;
lastChange = "2017-04-22 20:56:27 +0000";
layers = (
{
layerId = "2E634D02-5A4A-4A55-A314-31ACA041593B";
paths = (
{
closed = 1;
nodes = (
"1049 995 LINE",
"119 995 LINE",
"119 858 LINE",
"1049 858 LINE"
);
},
{
closed = 1;
nodes = (
"1049 586 LINE",
"119 586 LINE",
"119 449 LINE",
"1049 449 LINE"
);
}
);
width = 1171;
}
);
note = equal;
unicode = 003D;
},
{
glyphname = greater;
lastChange = "2017-04-22 20:56:27 +0000";
layers = (
{
layerId = "2E634D02-5A4A-4A55-A314-31ACA041593B";
paths = (
{
closed = 1;
nodes = (
"1065 664 LINE",
"1065 762 LINE",
"104 1241 LINE",
"104 1092 LINE",
"887 719 LINE",
"104 393 LINE",
"104 242 LINE"
);
}
);
width = 1171;
}
);
note = greater;
unicode = 003E;
},
{
glyphname = question;
lastChange = "2017-04-22 20:56:27 +0000";
layers = (
{
layerId = "2E634D02-5A4A-4A55-A314-31ACA041593B";
paths = (
{
closed = 1;
nodes = (
"418 436 LINE SMOOTH",
"418 563 OFFCURVE",
"449 616 OFFCURVE",
"584 731 CURVE SMOOTH",
"668 804 OFFCURVE",
"723 858 OFFCURVE",
"748 891 CURVE SMOOTH",
"799 957 OFFCURVE",
"825 1027 OFFCURVE",
"825 1124 CURVE SMOOTH",
"825 1352 OFFCURVE",
"677 1483 OFFCURVE",
"422 1483 CURVE SMOOTH",
"285 1483 OFFCURVE",
"153 1450 OFFCURVE",
"27 1384 CURVE",
"86 1249 LINE",
"215 1314 OFFCURVE",
"307 1335 OFFCURVE",
"412 1335 CURVE SMOOTH",
"576 1335 OFFCURVE",
"666 1258 OFFCURVE",
"666 1122 CURVE SMOOTH",
"666 1013 OFFCURVE",
"640 962 OFFCURVE",
"459 809 CURVE SMOOTH",
"328 697 OFFCURVE",
"289 613 OFFCURVE",
"289 457 CURVE SMOOTH",
"289 403 LINE",
"418 403 LINE"
);
},
{
closed = 1;
nodes = (
"240 10 OFFCURVE",
"291 -29 OFFCURVE",
"360 -29 CURVE SMOOTH",
"436 -29 OFFCURVE",
"481 21 OFFCURVE",
"481 106 CURVE SMOOTH",
"481 194 OFFCURVE",
"437 242 OFFCURVE",
"360 242 CURVE SMOOTH",
"280 242 OFFCURVE",
"240 197 OFFCURVE",
"240 106 CURVE SMOOTH"
);
}
);
width = 879;
}
);
note = question;
unicode = 003F;
},
{
glyphname = at;
lastChange = "2017-04-22 20:56:27 +0000";
layers = (
{
layerId = "2E634D02-5A4A-4A55-A314-31ACA041593B";
paths = (
{
closed = 1;
nodes = (
"1720 874 OFFCURVE",
"1690 1002 OFFCURVE",
"1629 1113 CURVE SMOOTH",
"1507 1335 OFFCURVE",
"1274 1460 OFFCURVE",
"987 1460 CURVE SMOOTH",
"816 1460 OFFCURVE",
"665 1423 OFFCURVE",
"533 1349 CURVE SMOOTH",
"269 1200 OFFCURVE",
"121 918 OFFCURVE",
"121 571 CURVE SMOOTH",
"121 94 OFFCURVE",
"401 -186 OFFCURVE",
"885 -186 CURVE SMOOTH",
"1048 -186 OFFCURVE",
"1193 -158 OFFCURVE",
"1321 -102 CURVE",
"1321 31 LINE",
"1170 -26 OFFCURVE",
"1025 -55 OFFCURVE",
"885 -55 CURVE SMOOTH",
"481 -55 OFFCURVE",
"260 171 OFFCURVE",
"260 578 CURVE SMOOTH",
"260 728 OFFCURVE",
"289 860 OFFCURVE",
"347 975 CURVE SMOOTH",
"463 1203 OFFCURVE",
"690 1331 OFFCURVE",
"987 1331 CURVE SMOOTH",
"1105 1331 OFFCURVE",
"1210 1307 OFFCURVE",
"1301 1258 CURVE SMOOTH",
"1483 1160 OFFCURVE",
"1585 972 OFFCURVE",
"1585 731 CURVE SMOOTH",
"1585 502 OFFCURVE",
"1501 344 OFFCURVE",
"1380 344 CURVE SMOOTH",
"1291 344 OFFCURVE",
"1247 403 OFFCURVE",
"1247 522 CURVE SMOOTH",
"1247 544 LINE",
"1272 1014 LINE",
"1180 1043 OFFCURVE",
"1054 1061 OFFCURVE",
"963 1061 CURVE SMOOTH",
"707 1061 OFFCURVE",
"535 874 OFFCURVE",
"535 602 CURVE SMOOTH",
"535 367 OFFCURVE",
"654 221 OFFCURVE",
"854 221 CURVE SMOOTH",
"990 221 OFFCURVE",
"1092 290 OFFCURVE",
"1145 406 CURVE",
"1153 406 LINE",
"1168 298 OFFCURVE",
"1253 221 OFFCURVE",
"1368 221 CURVE SMOOTH",
"1437 221 OFFCURVE",
"1499 243 OFFCURVE",
"1552 286 CURVE SMOOTH",
"1659 373 OFFCURVE",
"1720 540 OFFCURVE",
"1720 729 CURVE SMOOTH"
);
},
{
closed = 1;
nodes = (
"686 811 OFFCURVE",
"790 938 OFFCURVE",
"963 938 CURVE SMOOTH",
"1020 938 OFFCURVE",
"1072 931 OFFCURVE",
"1120 918 CURVE",
"1106 657 LINE SMOOTH",
"1094 448 OFFCURVE",
"1019 344 OFFCURVE",
"881 344 CURVE SMOOTH",
"751 344 OFFCURVE",
"686 429 OFFCURVE",
"686 598 CURVE SMOOTH"
);
}
);
width = 1841;
}
);
note = at;
unicode = 0040;
},
{
glyphname = A;
lastChange = "2017-05-07 23:59:40 +0000";
layers = (
{
anchors = (
{
name = bottom;
position = "{648, 0}";
},
{
name = ogonek;
position = "{1166, 10}";
},
{
name = top;
position = "{648, 1462}";
}
);
layerId = "2E634D02-5A4A-4A55-A314-31ACA041593B";
paths = (
{
closed = 1;
nodes = (
"721 1468 LINE",
"578 1468 LINE",
"0 0 LINE",
"172 0 LINE",
"352 465 LINE",
"938 465 LINE",
"1120 0 LINE",
"1296 0 LINE"
);
},
{
closed = 1;
nodes = (
"584 1071 LINE SMOOTH",
"611 1148 OFFCURVE",
"632 1218 OFFCURVE",
"647 1282 CURVE",
"670 1199 OFFCURVE",
"693 1128 OFFCURVE",
"715 1071 CURVE SMOOTH",
"885 618 LINE",
"412 618 LINE"
);
}
);
width = 1296;
}
);
note = A;
unicode = 0041;
},
{
glyphname = B;
lastChange = "2017-05-07 23:59:40 +0000";
layers = (
{
anchors = (
{
name = bottom;
position = "{664, 0}";
},
{
name = top;
position = "{664, 1462}";
}
);
layerId = "2E634D02-5A4A-4A55-A314-31ACA041593B";
paths = (
{
closed = 1;
nodes = (
"711 0 LINE SMOOTH",
"1028 0 OFFCURVE",
"1214 155 OFFCURVE",
"1214 416 CURVE SMOOTH",
"1214 611 OFFCURVE",
"1103 728 OFFCURVE",
"881 766 CURVE",
"881 776 LINE",
"1066 809 OFFCURVE",
"1165 927 OFFCURVE",
"1165 1100 CURVE SMOOTH",
"1165 1351 OFFCURVE",
"1002 1462 OFFCURVE",
"614 1462 CURVE SMOOTH",
"201 1462 LINE",
"201 0 LINE"
);
},
{
closed = 1;
nodes = (
"621 1315 LINE SMOOTH",
"877 1315 OFFCURVE",
"989 1247 OFFCURVE",
"989 1083 CURVE SMOOTH",
"989 904 OFFCURVE",
"891 836 OFFCURVE",
"651 836 CURVE SMOOTH",
"371 836 LINE",
"371 1315 LINE"
);
},
{
closed = 1;
nodes = (
"911 692 OFFCURVE",
"1032 609 OFFCURVE",
"1032 428 CURVE SMOOTH",
"1032 233 OFFCURVE",
"912 145 OFFCURVE",
"676 145 CURVE SMOOTH",
"371 145 LINE",
"371 692 LINE",
"662 692 LINE SMOOTH"
);
}
);
width = 1327;
}
);
note = B;
unicode = 0042;
},
{
glyphname = C;
lastChange = "2017-05-07 23:59:40 +0000";
layers = (
{
anchors = (
{
name = bottom;
position = "{646, 0}";
},
{
name = top;
position = "{646, 1462}";
}
);
layerId = "2E634D02-5A4A-4A55-A314-31ACA041593B";
paths = (
{
closed = 1;
nodes = (
"938 1331 OFFCURVE",
"1048 1305 OFFCURVE",
"1159 1253 CURVE",
"1231 1399 LINE",
"1116 1455 OFFCURVE",
"982 1483 OFFCURVE",
"829 1483 CURVE SMOOTH",
"685 1483 OFFCURVE",
"560 1452 OFFCURVE",
"454 1391 CURVE SMOOTH",
"241 1268 OFFCURVE",
"125 1034 OFFCURVE",
"125 733 CURVE SMOOTH",
"125 252 OFFCURVE",
"368 -20 OFFCURVE",
"799 -20 CURVE SMOOTH",
"948 -20 OFFCURVE",
"1073 -1 OFFCURVE",
"1174 37 CURVE",
"1174 186 LINE",
"1043 149 OFFCURVE",
"927 131 OFFCURVE",
"825 131 CURVE SMOOTH",
"493 131 OFFCURVE",
"307 348 OFFCURVE",
"307 731 CURVE SMOOTH",
"307 1103 OFFCURVE",
"506 1331 OFFCURVE",
"827 1331 CURVE SMOOTH"
);
}
);
width = 1292;
}
);
note = C;
unicode = 0043;
},
{
glyphname = D;
lastChange = "2017-05-07 23:59:40 +0000";
layers = (
{
anchors = (
{
name = bottom;
position = "{747, 0}";
},
{
name = center;
position = "{747, 731}";
},
{
name = top;
position = "{747, 1462}";
}
);
layerId = "2E634D02-5A4A-4A55-A314-31ACA041593B";
paths = (
{
closed = 1;
nodes = (
"1368 1197 OFFCURVE",
"1104 1462 OFFCURVE",
"649 1462 CURVE SMOOTH",
"201 1462 LINE",
"201 0 LINE",
"606 0 LINE SMOOTH",
"1098 0 OFFCURVE",
"1368 262 OFFCURVE",
"1368 745 CURVE SMOOTH"
);
},
{
closed = 1;
nodes = (
"1188 348 OFFCURVE",
"983 147 OFFCURVE",
"578 147 CURVE SMOOTH",
"371 147 LINE",
"371 1315 LINE",
"618 1315 LINE SMOOTH",
"995 1315 OFFCURVE",
"1188 1120 OFFCURVE",
"1188 739 CURVE SMOOTH"
);
}
);
width = 1493;
}
);
note = D;
unicode = 0044;
},
{
glyphname = E;
lastChange = "2017-05-07 23:59:40 +0000";
layers = (
{
anchors = (
{
name = bottom;
position = "{570, 0}";
},
{
name = ogonek;
position = "{1025, 10}";
},
{
name = top;
position = "{570, 1462}";
},
{
name = topleft;
position = "{20, 1462}";
}
);
layerId = "2E634D02-5A4A-4A55-A314-31ACA041593B";
paths = (
{
closed = 1;
nodes = (
"371 152 LINE",
"371 690 LINE",
"977 690 LINE",
"977 840 LINE",
"371 840 LINE",
"371 1311 LINE",
"1016 1311 LINE",
"1016 1462 LINE",
"201 1462 LINE",
"201 0 LINE",
"1016 0 LINE",
"1016 152 LINE"
);
}
);
width = 1139;
}
);
note = E;
unicode = 0045;
},
{
glyphname = F;
lastChange = "2017-05-07 23:59:40 +0000";
layers = (
{
anchors = (
{
name = bottom;
position = "{529, 0}";
},
{
name = top;
position = "{529, 1462}";
}
);
layerId = "2E634D02-5A4A-4A55-A314-31ACA041593B";
paths = (
{
closed = 1;
nodes = (
"977 625 LINE",
"977 776 LINE",
"371 776 LINE",
"371 1311 LINE",
"1016 1311 LINE",
"1016 1462 LINE",
"201 1462 LINE",
"201 0 LINE",
"371 0 LINE",
"371 625 LINE"
);
}
);
width = 1057;
}
);
note = F;
unicode = 0046;
},
{
glyphname = G;
lastChange = "2017-05-07 23:59:40 +0000";
layers = (
{
anchors = (
{
name = bottom;
position = "{746, 0}";
},
{
name = top;
position = "{746, 1462}";
}
);
layerId = "2E634D02-5A4A-4A55-A314-31ACA041593B";
paths = (
{
closed = 1;
nodes = (
"1171 614 LINE",
"1171 164 LINE",
"1074 141 OFFCURVE",
"975 129 OFFCURVE",
"874 129 CURVE SMOOTH",
"501 129 OFFCURVE",
"305 336 OFFCURVE",
"305 731 CURVE SMOOTH",
"305 1107 OFFCURVE",
"516 1331 OFFCURVE",
"872 1331 CURVE SMOOTH",
"994 1331 OFFCURVE",
"1121 1303 OFFCURVE",
"1253 1247 CURVE",
"1319 1397 LINE",
"1184 1454 OFFCURVE",
"1039 1483 OFFCURVE",
"883 1483 CURVE SMOOTH",
"729 1483 OFFCURVE",
"595 1453 OFFCURVE",
"480 1393 CURVE SMOOTH",
"251 1272 OFFCURVE",
"125 1035 OFFCURVE",
"125 731 CURVE SMOOTH",
"125 256 OFFCURVE",
"384 -20 OFFCURVE",
"827 -20 CURVE SMOOTH",
"1038 -20 OFFCURVE",
"1186 6 OFFCURVE",
"1341 55 CURVE",
"1341 766 LINE",
"844 766 LINE",
"844 614 LINE"
);
}
);
width = 1491;
}
);
note = G;
unicode = 0047;
},
{
glyphname = H;
lastChange = "2017-05-07 23:59:40 +0000";
layers = (
{
anchors = (
{
name = bottom;
position = "{756, 0}";
},
{
name = center;
position = "{756, 731}";
},
{
name = top;
position = "{756, 1462}";
},
{
name = topleft;
position = "{20, 1462}";
}
);
layerId = "2E634D02-5A4A-4A55-A314-31ACA041593B";
paths = (
{
closed = 1;
nodes = (
"1141 1462 LINE",
"1141 840 LINE",
"371 840 LINE",
"371 1462 LINE",
"201 1462 LINE",
"201 0 LINE",
"371 0 LINE",
"371 688 LINE",
"1141 688 LINE",
"1141 0 LINE",
"1311 0 LINE",
"1311 1462 LINE"
);
}
);
width = 1511;
}
);
note = H;
unicode = 0048;
},
{
glyphname = I.alt;
lastChange = "2017-05-07 23:59:40 +0000";
layers = (
{
anchors = (
{
name = bottom;
position = "{341, 0}";
},
{
name = ogonek;
position = "{614, 10}";
},
{
name = top;
position = "{341, 1462}";
},
{
name = topleft;
position = "{20, 1462}";
}
);
layerId = "2E634D02-5A4A-4A55-A314-31ACA041593B";
paths = (
{
closed = 1;
nodes = (
"426 133 LINE",
"426 1327 LINE",
"598 1364 LINE",
"598 1462 LINE",
"84 1462 LINE",
"84 1364 LINE",
"256 1327 LINE",
"256 133 LINE",
"84 98 LINE",
"84 0 LINE",
"598 0 LINE",
"598 98 LINE"
);
}
);
width = 682;
}
);
note = I.alt;
},
{
glyphname = J;
lastChange = "2017-05-07 23:59:40 +0000";
layers = (
{
anchors = (
{
name = bottom;
position = "{274, 0}";
},
{
name = top;
position = "{274, 1462}";
}
);
layerId = "2E634D02-5A4A-4A55-A314-31ACA041593B";
paths = (
{
closed = 1;
nodes = (
"228 -385 OFFCURVE",
"360 -239 OFFCURVE",
"360 14 CURVE SMOOTH",
"360 1462 LINE",
"190 1462 LINE",
"190 0 LINE SMOOTH",
"190 -151 OFFCURVE",
"120 -233 OFFCURVE",
"-12 -233 CURVE SMOOTH",
"-63 -233 OFFCURVE",
"-113 -226 OFFCURVE",
"-160 -213 CURVE",
"-160 -358 LINE",
"-124 -376 OFFCURVE",
"-75 -385 OFFCURVE",
"-12 -385 CURVE SMOOTH"
);
}
);
width = 547;
}
);
note = J;
unicode = 004A;
},
{
glyphname = K;
lastChange = "2017-05-07 23:59:40 +0000";
layers = (
{
anchors = (
{
name = bottom;
position = "{629, 0}";
},
{
name = top;
position = "{629, 1462}";
}
);
layerId = "2E634D02-5A4A-4A55-A314-31ACA041593B";
paths = (
{
closed = 1;
nodes = (
"1235 1462 LINE",
"1034 1462 LINE",
"371 737 LINE",
"371 1462 LINE",
"201 1462 LINE",
"201 0 LINE",
"371 0 LINE",
"371 573 LINE",
"524 709 LINE",
"1057 0 LINE",
"1257 0 LINE",
"647 827 LINE"
);
}
);
width = 1257;
}
);
note = K;
unicode = 004B;
},
{
glyphname = L;
lastChange = "2017-05-07 23:59:40 +0000";
layers = (
{
anchors = (
{
name = bottom;
position = "{532, 0}";
},
{
name = center;
position = "{532, 731}";
},
{
name = top;
position = "{532, 1462}";
},
{
name = topright;
position = "{1043, 1462}";
}
);
layerId = "2E634D02-5A4A-4A55-A314-31ACA041593B";
paths = (
{
closed = 1;
nodes = (
"1016 154 LINE",
"371 154 LINE",
"371 1462 LINE",
"201 1462 LINE",
"201 0 LINE",
"1016 0 LINE"
);
}
);
width = 1063;
}
);
note = L;
unicode = 004C;
},
{
glyphname = M;
lastChange = "2017-05-07 23:59:40 +0000";
layers = (
{
anchors = (
{
name = bottom;
position = "{925, 0}";
},
{
name = top;
position = "{925, 1462}";
}
);
layerId = "2E634D02-5A4A-4A55-A314-31ACA041593B";
paths = (
{
closed = 1;
nodes = (
"1485 1294 LINE",
"1493 1294 LINE",
"1484 1167 OFFCURVE",
"1479 1050 OFFCURVE",
"1479 942 CURVE SMOOTH",
"1479 0 LINE",
"1649 0 LINE",
"1649 1462 LINE",
"1395 1462 LINE",
"928 256 LINE",
"920 256 LINE",
"457 1462 LINE",
"201 1462 LINE",
"201 0 LINE",
"358 0 LINE",
"358 930 LINE SMOOTH",
"358 1071 OFFCURVE",
"353 1193 OFFCURVE",
"344 1296 CURVE",
"352 1296 LINE",
"848 0 LINE",
"985 0 LINE"
);
}
);
width = 1849;
}
);
note = M;
unicode = 004D;
},
{
glyphname = N;
lastChange = "2017-05-07 23:59:40 +0000";
layers = (
{
anchors = (
{
name = bottom;
position = "{772, 0}";
},
{
name = top;
position = "{772, 1462}";
}
);
layerId = "2E634D02-5A4A-4A55-A314-31ACA041593B";
paths = (
{
closed = 1;
nodes = (
"1184 1462 LINE",
"1184 623 LINE",
"1181 539 OFFCURVE",
"1195 276 OFFCURVE",
"1198 240 CURVE",
"1190 240 LINE",
"393 1462 LINE",
"201 1462 LINE",
"201 0 LINE",
"358 0 LINE",
"358 831 LINE SMOOTH",
"358 951 OFFCURVE",
"353 1083 OFFCURVE",
"342 1227 CURVE",
"350 1227 LINE",
"1149 0 LINE",
"1343 0 LINE",
"1343 1462 LINE"
);
}
);
width = 1544;
}
);
note = N;
unicode = 004E;
},
{
glyphname = O;
lastChange = "2017-05-07 23:59:40 +0000";
layers = (
{
anchors = (
{
name = bottom;
position = "{798, 0}";
},
{
name = center;
position = "{798, 731}";
},
{
name = ogonek;
position = "{1435, 10}";
},
{
name = top;
position = "{798, 1462}";
},
{
name = topleft;
position = "{20, 1462}";
},
{
name = topright;
position = "{1575, 1462}";
}
);
layerId = "2E634D02-5A4A-4A55-A314-31ACA041593B";
paths = (
{
closed = 1;
nodes = (
"1470 1202 OFFCURVE",
"1221 1485 OFFCURVE",
"801 1485 CURVE SMOOTH",
"369 1485 OFFCURVE",
"125 1211 OFFCURVE",
"125 735 CURVE SMOOTH",
"125 255 OFFCURVE",
"368 -20 OFFCURVE",
"799 -20 CURVE SMOOTH",
"1220 -20 OFFCURVE",
"1470 265 OFFCURVE",
"1470 733 CURVE SMOOTH"
);
},
{
closed = 1;
nodes = (
"305 1124 OFFCURVE",
"477 1333 OFFCURVE",
"801 1333 CURVE SMOOTH",
"1124 1333 OFFCURVE",
"1290 1126 OFFCURVE",
"1290 733 CURVE SMOOTH",
"1290 336 OFFCURVE",
"1123 129 OFFCURVE",
"799 129 CURVE SMOOTH",
"478 129 OFFCURVE",
"305 337 OFFCURVE",
"305 733 CURVE SMOOTH"
);
}
);
width = 1595;
}
);
note = O;
unicode = 004F;
},
{
glyphname = P;
lastChange = "2017-05-07 23:59:40 +0000";
layers = (
{
anchors = (
{
name = bottom;
position = "{617, 0}";
},
{
name = top;
position = "{617, 1462}";
}
);
layerId = "2E634D02-5A4A-4A55-A314-31ACA041593B";
paths = (
{
closed = 1;
nodes = (
"1128 1320 OFFCURVE",
"945 1462 OFFCURVE",
"580 1462 CURVE SMOOTH",
"201 1462 LINE",
"201 0 LINE",
"371 0 LINE",
"371 575 LINE",
"543 575 LINE SMOOTH",
"919 575 OFFCURVE",
"1128 740 OFFCURVE",
"1128 1036 CURVE SMOOTH"
);
},
{
closed = 1;
nodes = (
"561 1315 LINE SMOOTH",
"829 1315 OFFCURVE",
"952 1221 OFFCURVE",
"952 1028 CURVE SMOOTH",
"952 813 OFFCURVE",
"825 721 OFFCURVE",
"524 721 CURVE SMOOTH",
"371 721 LINE",
"371 1315 LINE"
);
}
);
width = 1233;
}
);
note = P;
unicode = 0050;
},
{
glyphname = Q;
lastChange = "2017-05-07 23:59:40 +0000";
layers = (
{
anchors = (
{
name = bottom;
position = "{798, 0}";
},
{
name = top;
position = "{798, 1462}";
}
);
layerId = "2E634D02-5A4A-4A55-A314-31ACA041593B";
paths = (
{
closed = 1;
nodes = (
"1470 1202 OFFCURVE",
"1221 1485 OFFCURVE",
"801 1485 CURVE SMOOTH",
"369 1485 OFFCURVE",
"125 1211 OFFCURVE",
"125 735 CURVE SMOOTH",
"125 255 OFFCURVE",
"368 -20 OFFCURVE",
"799 -20 CURVE",
"854 -18 LINE",
"1139 -348 LINE",
"1386 -348 LINE",
"1038 14 LINE",
"1313 102 OFFCURVE",
"1470 358 OFFCURVE",
"1470 733 CURVE SMOOTH"
);
},
{
closed = 1;
nodes = (
"305 1124 OFFCURVE",
"477 1333 OFFCURVE",
"801 1333 CURVE SMOOTH",
"1124 1333 OFFCURVE",
"1290 1126 OFFCURVE",
"1290 733 CURVE SMOOTH",
"1290 336 OFFCURVE",
"1123 129 OFFCURVE",
"799 129 CURVE SMOOTH",
"478 129 OFFCURVE",
"305 337 OFFCURVE",
"305 733 CURVE SMOOTH"
);
}
);
width = 1595;
}
);
note = Q;
unicode = 0051;
},
{
glyphname = R;
lastChange = "2017-05-07 23:59:40 +0000";
layers = (
{
anchors = (
{
name = bottom;
position = "{633, 0}";
},
{
name = top;
position = "{633, 1462}";
}
);
layerId = "2E634D02-5A4A-4A55-A314-31ACA041593B";
paths = (
{
closed = 1;
nodes = (
"1030 0 LINE",
"1231 0 LINE",
"834 657 LINE",
"1030 725 OFFCURVE",
"1128 856 OFFCURVE",
"1128 1049 CURVE SMOOTH",
"1128 1325 OFFCURVE",
"961 1462 OFFCURVE",
"602 1462 CURVE SMOOTH",
"201 1462 LINE",
"201 0 LINE",
"371 0 LINE",
"371 608 LINE",
"676 608 LINE"
);
},
{
closed = 1;
nodes = (
"592 1313 LINE SMOOTH",
"844 1313 OFFCURVE",
"952 1233 OFFCURVE",
"952 1040 CURVE SMOOTH",
"952 849 OFFCURVE",
"844 754 OFFCURVE",
"604 754 CURVE SMOOTH",
"371 754 LINE",
"371 1313 LINE"
);
}
);
width = 1266;
}
);
note = R;
unicode = 0052;
},
{
glyphname = S;
lastChange = "2017-05-07 23:59:40 +0000";
layers = (
{
anchors = (
{
name = bottom;
position = "{562, 0}";
},
{
name = top;
position = "{562, 1462}";
}
);
layerId = "2E634D02-5A4A-4A55-A314-31ACA041593B";
paths = (
{
closed = 1;
nodes = (
"1026 589 OFFCURVE",
"930 700 OFFCURVE",
"623 809 CURVE SMOOTH",
"532 842 OFFCURVE",
"464 872 OFFCURVE",
"420 899 CURVE SMOOTH",
"331 953 OFFCURVE",
"297 1011 OFFCURVE",
"297 1112 CURVE SMOOTH",
"297 1249 OFFCURVE",
"404 1331 OFFCURVE",
"584 1331 CURVE SMOOTH",
"698 1331 OFFCURVE",
"815 1306 OFFCURVE",
"936 1255 CURVE",
"989 1403 LINE",
"867 1456 OFFCURVE",
"733 1483 OFFCURVE",
"588 1483 CURVE SMOOTH",
"309 1483 OFFCURVE",
"125 1339 OFFCURVE",
"125 1114 CURVE SMOOTH",
"125 899 OFFCURVE",
"232 777 OFFCURVE",
"504 680 CURVE SMOOTH",
"601 645 OFFCURVE",
"674 614 OFFCURVE",
"722 587 CURVE SMOOTH",
"817 532 OFFCURVE",
"854 474 OFFCURVE",
"854 373 CURVE SMOOTH",
"854 220 OFFCURVE",
"739 129 OFFCURVE",
"512 129 CURVE SMOOTH",
"373 129 OFFCURVE",
"226 160 OFFCURVE",
"106 211 CURVE",
"106 47 LINE",
"199 2 OFFCURVE",
"333 -20 OFFCURVE",
"506 -20 CURVE SMOOTH",
"826 -20 OFFCURVE",
"1026 132 OFFCURVE",
"1026 389 CURVE SMOOTH"
);
}
);
width = 1124;
}
);
note = S;
unicode = 0053;
},
{
glyphname = T;
lastChange = "2017-05-07 23:59:40 +0000";
layers = (
{
anchors = (
{
name = bottom;
position = "{567, 0}";
},
{
name = center;
position = "{567, 731}";
},
{
name = top;
position = "{567, 1462}";
}
);
layerId = "2E634D02-5A4A-4A55-A314-31ACA041593B";
paths = (
{
closed = 1;
nodes = (
"1114 1311 LINE",
"1114 1462 LINE",
"18 1462 LINE",
"18 1311 LINE",
"481 1311 LINE",
"481 0 LINE",
"651 0 LINE",
"651 1311 LINE"
);
}
);
width = 1133;
}
);
note = T;
unicode = 0054;
},
{
glyphname = U;
lastChange = "2017-05-07 23:59:40 +0000";
layers = (
{
anchors = (
{
name = bottom;
position = "{746, 0}";
},
{
name = ogonek;
position = "{1342, 10}";
},
{
name = top;
position = "{746, 1462}";
},
{
name = topright;
position = "{1471, 1462}";
}
);
layerId = "2E634D02-5A4A-4A55-A314-31ACA041593B";
paths = (
{
closed = 1;
nodes = (
"1135 510 LINE SMOOTH",
"1135 265 OFFCURVE",
"997 129 OFFCURVE",
"750 129 CURVE SMOOTH",
"491 129 OFFCURVE",
"356 264 OFFCURVE",
"356 508 CURVE SMOOTH",
"356 1462 LINE",
"186 1462 LINE",
"186 520 LINE SMOOTH",
"186 184 OFFCURVE",
"387 -20 OFFCURVE",
"739 -20 CURVE SMOOTH",
"1091 -20 OFFCURVE",
"1305 183 OFFCURVE",
"1305 516 CURVE SMOOTH",
"1305 1462 LINE",
"1135 1462 LINE"
);
}
);
width = 1491;
}
);
note = U;
unicode = 0055;
},
{
glyphname = V;
lastChange = "2017-05-07 23:59:40 +0000";
layers = (
{
anchors = (
{
name = bottom;
position = "{610, 0}";
},
{
name = top;
position = "{610, 1462}";
}
);
layerId = "2E634D02-5A4A-4A55-A314-31ACA041593B";
paths = (
{
closed = 1;
nodes = (
"663 415 OFFCURVE",
"632 307 OFFCURVE",
"608 199 CURVE",
"585 302 OFFCURVE",
"555 407 OFFCURVE",
"516 516 CURVE SMOOTH",
"180 1462 LINE",
"0 1462 LINE",
"524 0 LINE",
"692 0 LINE",
"1219 1462 LINE",
"1036 1462 LINE",
"702 522 LINE SMOOTH"
);
}
);
width = 1219;
}
);
note = V;
unicode = 0056;
},
{
glyphname = W;
lastChange = "2017-05-07 23:59:40 +0000";
layers = (
{
anchors = (
{
name = bottom;
position = "{948, 0}";
},
{
name = top;
position = "{948, 1462}";
}
);
layerId = "2E634D02-5A4A-4A55-A314-31ACA041593B";
paths = (
{
closed = 1;
nodes = (
"1688 1462 LINE",
"1458 561 LINE SMOOTH",
"1423 425 OFFCURVE",
"1399 310 OFFCURVE",
"1386 215 CURVE",
"1364 345 OFFCURVE",
"1337 462 OFFCURVE",
"1305 565 CURVE SMOOTH",
"1030 1462 LINE",
"850 1462 LINE",
"588 573 LINE SMOOTH",
"553 456 OFFCURVE",
"526 337 OFFCURVE",
"508 215 CURVE",
"493 318 OFFCURVE",
"470 432 OFFCURVE",
"438 559 CURVE SMOOTH",
"207 1462 LINE",
"27 1462 LINE",
"416 0 LINE",
"584 0 LINE",
"870 973 LINE SMOOTH",
"902 1078 OFFCURVE",
"925 1174 OFFCURVE",
"940 1262 CURVE",
"941 1235 OFFCURVE",
"986 1066 OFFCURVE",
"1014 979 CURVE SMOOTH",
"1309 0 LINE",
"1477 0 LINE",
"1868 1462 LINE"
);
}
);
width = 1896;
}
);
note = W;
unicode = 0057;
},
{
glyphname = X;
lastChange = "2017-05-07 23:59:40 +0000";
layers = (
{
anchors = (
{
name = bottom;
position = "{591, 0}";
},
{
name = top;
position = "{591, 1462}";
}
);
layerId = "2E634D02-5A4A-4A55-A314-31ACA041593B";
paths = (
{
closed = 1;
nodes = (
"1139 1462 LINE",
"958 1462 LINE",
"592 883 LINE",
"229 1462 LINE",
"41 1462 LINE",
"494 764 LINE",
"8 0 LINE",
"188 0 LINE",
"588 643 LINE",
"981 0 LINE",
"1174 0 LINE",
"686 770 LINE"
);
}
);
width = 1182;
}
);
note = X;
unicode = 0058;
},
{
glyphname = Y;
lastChange = "2017-05-07 23:59:40 +0000";
layers = (
{
anchors = (
{
name = bottom;
position = "{574, 0}";
},
{
name = top;
position = "{574, 1462}";
},
{
name = topleft;
position = "{20, 1462}";
}
);
layerId = "2E634D02-5A4A-4A55-A314-31ACA041593B";
paths = (
{
closed = 1;
nodes = (
"0 1462 LINE",
"487 559 LINE",
"487 0 LINE",
"659 0 LINE",
"659 567 LINE",
"1147 1462 LINE",
"963 1462 LINE",
"573 731 LINE",
"186 1462 LINE"
);
}
);
width = 1147;
}
);
note = Y;
unicode = 0059;
},
{
glyphname = Z;
lastChange = "2017-05-07 23:59:40 +0000";
layers = (
{
anchors = (
{
name = bottom;
position = "{585, 0}";
},
{
name = top;
position = "{585, 1462}";
}
);
layerId = "2E634D02-5A4A-4A55-A314-31ACA041593B";
paths = (
{
closed = 1;
nodes = (
"289 154 LINE",
"1065 1329 LINE",
"1065 1462 LINE",
"106 1462 LINE",
"106 1309 LINE",
"858 1309 LINE",
"82 133 LINE",
"82 0 LINE",
"1087 0 LINE",
"1087 154 LINE"
);
}
);
width = 1169;
}
);
note = Z;
unicode = 005A;
},
{
glyphname = bracketleft;
lastChange = "2017-04-22 20:56:27 +0000";
layers = (
{
layerId = "2E634D02-5A4A-4A55-A314-31ACA041593B";
paths = (
{
closed = 1;
nodes = (
"334 -182 LINE",
"334 1321 LINE",
"623 1321 LINE",
"623 1462 LINE",
"166 1462 LINE",
"166 -324 LINE",
"623 -324 LINE",
"623 -182 LINE"
);
}
);
width = 674;
}
);
note = bracketleft;
unicode = 005B;
},
{
glyphname = backslash;
lastChange = "2017-04-22 20:56:27 +0000";
layers = (
{
layerId = "2E634D02-5A4A-4A55-A314-31ACA041593B";
paths = (
{
closed = 1;
nodes = (
"567 0 LINE",
"733 0 LINE",
"186 1462 LINE",
"23 1462 LINE"
);
}
);
width = 752;
}
);
note = backslash;
unicode = 005C;
},
{
glyphname = bracketright;
lastChange = "2017-04-22 20:56:27 +0000";
layers = (
{
layerId = "2E634D02-5A4A-4A55-A314-31ACA041593B";
paths = (
{
closed = 1;
nodes = (
"508 -324 LINE",
"508 1462 LINE",
"51 1462 LINE",
"51 1321 LINE",
"340 1321 LINE",
"340 -182 LINE",
"51 -182 LINE",
"51 -324 LINE"
);
}
);
width = 674;
}
);
note = bracketright;
unicode = 005D;
},
{
glyphname = asciicircum;
lastChange = "2017-04-22 20:56:27 +0000";
layers = (
{
layerId = "2E634D02-5A4A-4A55-A314-31ACA041593B";
paths = (
{
closed = 1;
nodes = (
"535 1296 LINE",
"907 551 LINE",
"1059 551 LINE",
"582 1473 LINE",
"483 1473 LINE",
"49 551 LINE",
"201 551 LINE"
);
}
);
width = 1110;
}
);
note = asciicircum;
unicode = 005E;
},
{
glyphname = underscore;
lastChange = "2017-04-22 20:56:27 +0000";
layers = (
{
layerId = "2E634D02-5A4A-4A55-A314-31ACA041593B";
paths = (
{
closed = 1;
nodes = (
"-4 -184 LINE",
"-4 -315 LINE",
"922 -315 LINE",
"922 -184 LINE"
);
}
);
width = 918;
}
);
note = underscore;
unicode = 005F;
},
{
glyphname = grave;
lastChange = "2017-04-22 20:56:27 +0000";
layers = (
{
layerId = "2E634D02-5A4A-4A55-A314-31ACA041593B";
paths = (
{
closed = 1;
nodes = (
"727 1337 OFFCURVE",
"639 1477 OFFCURVE",
"596 1569 CURVE",
"393 1569 LINE",
"393 1548 LINE",
"446 1464 OFFCURVE",
"589 1310 OFFCURVE",
"676 1241 CURVE",
"786 1241 LINE",
"786 1266 LINE"
);
}
);
width = 1182;
}
);
note = grave;
unicode = 0060;
},
{
glyphname = a;
lastChange = "2017-05-07 23:59:40 +0000";
layers = (
{
anchors = (
{
name = bottom;
position = "{570, 0}";
},
{
name = ogonek;
position = "{1025, 10}";
},
{
name = top;
position = "{570, 1096}";
}
);
layerId = "2E634D02-5A4A-4A55-A314-31ACA041593B";
paths = (
{
closed = 1;
nodes = (
"973 748 LINE SMOOTH",
"973 1004 OFFCURVE",
"849 1114 OFFCURVE",
"588 1114 CURVE SMOOTH",
"459 1114 OFFCURVE",
"325 1079 OFFCURVE",
"217 1020 CURVE",
"268 893 LINE",
"383 949 OFFCURVE",
"487 977 OFFCURVE",
"578 977 CURVE SMOOTH",
"741 977 OFFCURVE",
"811 897 OFFCURVE",
"811 725 CURVE SMOOTH",
"811 657 LINE",
"625 651 LINE SMOOTH",
"271 640 OFFCURVE",
"94 524 OFFCURVE",
"94 303 CURVE SMOOTH",
"94 96 OFFCURVE",
"225 -20 OFFCURVE",
"442 -20 CURVE SMOOTH",
"605 -20 OFFCURVE",
"700 19 OFFCURVE",
"809 156 CURVE",
"817 156 LINE",
"850 0 LINE",
"973 0 LINE"
);
},
{
closed = 1;
nodes = (
"344 117 OFFCURVE",
"268 181 OFFCURVE",
"268 301 CURVE SMOOTH",
"268 454 OFFCURVE",
"377 523 OFFCURVE",
"641 532 CURVE SMOOTH",
"807 539 LINE",
"807 440 LINE SMOOTH",
"807 236 OFFCURVE",
"682 117 OFFCURVE",
"475 117 CURVE SMOOTH"
);
}
);
width = 1139;
}
);
note = a;
unicode = 0061;
},
{
glyphname = b;
lastChange = "2017-05-07 23:59:40 +0000";
layers = (
{
anchors = (
{
name = bottom;
position = "{628, 0}";
},
{
name = top;
position = "{628, 1096}";
}
);
layerId = "2E634D02-5A4A-4A55-A314-31ACA041593B";
paths = (
{
closed = 1;
nodes = (
"534 1114 OFFCURVE",
"419 1059 OFFCURVE",
"342 950 CURVE",
"334 950 LINE",
"339 1017 OFFCURVE",
"342 1093 OFFCURVE",
"342 1178 CURVE SMOOTH",
"342 1556 LINE",
"176 1556 LINE",
"176 0 LINE",
"295 0 LINE",
"330 141 LINE",
"342 141 LINE",
"422 32 OFFCURVE",
"543 -20 OFFCURVE",
"686 -20 CURVE SMOOTH",
"971 -20 OFFCURVE",
"1141 189 OFFCURVE",
"1141 549 CURVE SMOOTH",
"1141 909 OFFCURVE",
"974 1114 OFFCURVE",
"686 1114 CURVE SMOOTH"
);
},
{
closed = 1;
nodes = (
"871 975 OFFCURVE",
"969 836 OFFCURVE",
"969 551 CURVE SMOOTH",
"969 272 OFFCURVE",
"870 119 OFFCURVE",
"666 119 CURVE SMOOTH",
"439 119 OFFCURVE",
"342 241 OFFCURVE",
"342 549 CURVE SMOOTH",
"342 857 OFFCURVE",
"435 975 OFFCURVE",
"662 975 CURVE SMOOTH"
);
}
);
width = 1255;
}
);
note = b;
unicode = 0062;
},
{
glyphname = c;
lastChange = "2017-05-08 00:25:12 +0000";
layers = (
{
anchors = (
{
name = bottom;
position = "{488, 0}";
},
{
name = top;
position = "{571, 1096}";
}
);
layerId = "2E634D02-5A4A-4A55-A314-31ACA041593B";
paths = (
{
closed = 1;
nodes = (
"725 -20 OFFCURVE",
"818 -1 OFFCURVE",
"891 37 CURVE",
"891 184 LINE",
"795 145 OFFCURVE",
"701 125 OFFCURVE",
"610 125 CURVE SMOOTH",
"397 125 OFFCURVE",
"287 274 OFFCURVE",
"287 543 CURVE SMOOTH",
"287 827 OFFCURVE",
"398 969 OFFCURVE",
"621 969 CURVE SMOOTH",
"688 969 OFFCURVE",
"783 947 OFFCURVE",
"856 918 CURVE",
"907 1059 LINE",
"847 1090 OFFCURVE",
"730 1116 OFFCURVE",
"625 1116 CURVE SMOOTH",
"298 1116 OFFCURVE",
"115 908 OFFCURVE",
"115 541 CURVE SMOOTH",
"115 184 OFFCURVE",
"297 -20 OFFCURVE",
"614 -20 CURVE SMOOTH"
);
}
);
width = 975;
}
);
note = c;
unicode = 0063;
},
{
glyphname = d;
lastChange = "2017-05-07 23:59:40 +0000";
layers = (
{
anchors = (
{
name = bottom;
position = "{628, 0}";
},
{
name = center;
position = "{628, 548}";
},
{
name = top;
position = "{628, 1096}";
},
{
name = topright;
position = "{1235, 1096}";
}
);
layerId = "2E634D02-5A4A-4A55-A314-31ACA041593B";
paths = (
{
closed = 1;
nodes = (
"1079 0 LINE",
"1079 1556 LINE",
"913 1556 LINE",
"913 1110 LINE",
"917 1033 LINE",
"924 954 LINE",
"911 954 LINE",
"832 1062 OFFCURVE",
"718 1116 OFFCURVE",
"569 1116 CURVE SMOOTH",
"284 1116 OFFCURVE",
"115 906 OFFCURVE",
"115 545 CURVE SMOOTH",
"115 184 OFFCURVE",
"282 -20 OFFCURVE",
"569 -20 CURVE SMOOTH",
"722 -20 OFFCURVE",
"836 36 OFFCURVE",
"913 147 CURVE",
"922 147 LINE",
"944 0 LINE"
);
},
{
closed = 1;
nodes = (
"391 119 OFFCURVE",
"287 263 OFFCURVE",
"287 543 CURVE SMOOTH",
"287 819 OFFCURVE",
"393 977 OFFCURVE",
"588 977 CURVE SMOOTH",
"815 977 OFFCURVE",
"913 856 OFFCURVE",
"913 545 CURVE SMOOTH",
"913 510 LINE SMOOTH",
"913 235 OFFCURVE",
"817 119 OFFCURVE",
"590 119 CURVE SMOOTH"
);
}
);
width = 1255;
}
);
note = d;
unicode = 0064;
},
{
glyphname = e;
lastChange = "2017-05-07 23:59:40 +0000";
layers = (
{
anchors = (
{
name = bottom;
position = "{575, 0}";
},
{
name = ogonek;
position = "{1034, 10}";
},
{
name = top;
position = "{575, 1096}";
}
);
layerId = "2E634D02-5A4A-4A55-A314-31ACA041593B";
paths = (
{
closed = 1;
nodes = (
"787 -20 OFFCURVE",
"878 0 OFFCURVE",
"995 51 CURVE",
"995 199 LINE",
"880 150 OFFCURVE",
"763 125 OFFCURVE",
"645 125 CURVE SMOOTH",
"421 125 OFFCURVE",
"294 261 OFFCURVE",
"287 518 CURVE",
"1042 518 LINE",
"1042 623 LINE SMOOTH",
"1042 919 OFFCURVE",
"871 1116 OFFCURVE",
"596 1116 CURVE SMOOTH",
"303 1116 OFFCURVE",
"115 892 OFFCURVE",
"115 539 CURVE SMOOTH",
"115 188 OFFCURVE",
"315 -20 OFFCURVE",
"639 -20 CURVE SMOOTH"
);
},
{
closed = 1;
nodes = (
"767 977 OFFCURVE",
"864 862 OFFCURVE",
"864 653 CURVE",
"291 653 LINE",
"310 856 OFFCURVE",
"418 977 OFFCURVE",
"594 977 CURVE SMOOTH"
);
}
);
width = 1149;
}
);
note = e;
unicode = 0065;
},
{
glyphname = f;
lastChange = "2017-05-07 23:59:40 +0000";
layers = (
{
anchors = (
{
name = bottom;
position = "{347, 0}";
},
{
name = top;
position = "{347, 1096}";
}
);
layerId = "2E634D02-5A4A-4A55-A314-31ACA041593B";
paths = (
{
closed = 1;
nodes = (
"391 1096 LINE",
"391 1167 LINE SMOOTH",
"391 1351 OFFCURVE",
"450 1430 OFFCURVE",
"575 1430 CURVE SMOOTH",
"620 1430 OFFCURVE",
"675 1420 OFFCURVE",
"739 1399 CURVE",
"782 1532 LINE",
"704 1555 OFFCURVE",
"636 1567 OFFCURVE",
"578 1567 CURVE SMOOTH",
"343 1567 OFFCURVE",
"225 1432 OFFCURVE",
"225 1163 CURVE SMOOTH",
"225 1102 LINE",
"29 1042 LINE",
"29 967 LINE",
"225 967 LINE",
"225 0 LINE",
"391 0 LINE",
"391 967 LINE",
"670 967 LINE",
"670 1096 LINE"
);
}
);
width = 694;
}
);
note = f;
unicode = 0066;
},
{
glyphname = g;
lastChange = "2017-05-07 23:59:40 +0000";
layers = (
{
anchors = (
{
name = bottom;
position = "{561, 0}";
},
{
name = top;
position = "{561, 1096}";
}
);
layerId = "2E634D02-5A4A-4A55-A314-31ACA041593B";
paths = (
{
closed = 1;
nodes = (
"648 1109 OFFCURVE",
"596 1116 OFFCURVE",
"539 1116 CURVE SMOOTH",
"275 1116 OFFCURVE",
"125 981 OFFCURVE",
"125 741 CURVE SMOOTH",
"125 597 OFFCURVE",
"204 477 OFFCURVE",
"317 430 CURVE",
"225 374 OFFCURVE",
"184 318 OFFCURVE",
"184 238 CURVE SMOOTH",
"184 167 OFFCURVE",
"227 111 OFFCURVE",
"283 86 CURVE",
"128 51 OFFCURVE",
"39 -53 OFFCURVE",
"39 -186 CURVE SMOOTH",
"39 -381 OFFCURVE",
"200 -492 OFFCURVE",
"487 -492 CURVE SMOOTH",
"860 -492 OFFCURVE",
"1059 -362 OFFCURVE",
"1059 -119 CURVE SMOOTH",
"1059 72 OFFCURVE",
"927 174 OFFCURVE",
"690 174 CURVE SMOOTH",
"496 174 LINE SMOOTH",
"376 174 OFFCURVE",
"332 202 OFFCURVE",
"332 262 CURVE SMOOTH",
"332 319 OFFCURVE",
"367 366 OFFCURVE",
"438 403 CURVE",
"467 398 OFFCURVE",
"497 395 OFFCURVE",
"530 395 CURVE SMOOTH",
"786 395 OFFCURVE",
"942 533 OFFCURVE",
"942 748 CURVE SMOOTH",
"942 843 OFFCURVE",
"907 920 OFFCURVE",
"870 967 CURVE",
"1073 991 LINE",
"1073 1096 LINE",
"694 1096 LINE"
);
},
{
closed = 1;
nodes = (
"199 -49 OFFCURVE",
"287 25 OFFCURVE",
"438 25 CURVE SMOOTH",
"637 25 LINE SMOOTH",
"840 25 OFFCURVE",
"899 -14 OFFCURVE",
"899 -133 CURVE SMOOTH",
"899 -276 OFFCURVE",
"768 -365 OFFCURVE",
"489 -365 CURVE SMOOTH",
"302 -365 OFFCURVE",
"199 -303 OFFCURVE",
"199 -184 CURVE SMOOTH"
);
},
{
closed = 1;
nodes = (
"289 910 OFFCURVE",
"376 995 OFFCURVE",
"532 995 CURVE SMOOTH",
"696 995 OFFCURVE",
"778 913 OFFCURVE",
"778 748 CURVE SMOOTH",
"778 591 OFFCURVE",
"697 512 OFFCURVE",
"535 512 CURVE SMOOTH",
"380 512 OFFCURVE",
"289 592 OFFCURVE",
"289 745 CURVE SMOOTH"
);
}
);
width = 1122;
}
);
note = g;
unicode = 0067;
},
{
glyphname = h;
lastChange = "2017-05-07 23:59:40 +0000";
layers = (
{
anchors = (
{
name = bottom;
position = "{629, 0}";
},
{
name = center;
position = "{629, 548}";
},
{
name = top;
position = "{629, 1096}";
}
);
layerId = "2E634D02-5A4A-4A55-A314-31ACA041593B";
paths = (
{
closed = 1;
nodes = (
"1092 715 LINE SMOOTH",
"1092 992 OFFCURVE",
"958 1114 OFFCURVE",
"690 1114 CURVE SMOOTH",
"535 1114 OFFCURVE",
"409 1049 OFFCURVE",
"344 944 CURVE",
"334 944 LINE",
"339 981 OFFCURVE",
"342 1028 OFFCURVE",
"342 1085 CURVE SMOOTH",
"342 1556 LINE",
"176 1556 LINE",
"176 0 LINE",
"342 0 LINE",
"342 573 LINE SMOOTH",
"342 858 OFFCURVE",
"443 975 OFFCURVE",
"674 975 CURVE SMOOTH",
"847 975 OFFCURVE",
"926 888 OFFCURVE",
"926 709 CURVE SMOOTH",
"926 0 LINE",
"1092 0 LINE"
);
}
);
width = 1257;
}
);
note = h;
unicode = 0068;
},
{
glyphname = i;
lastChange = "2017-05-07 23:59:40 +0000";
layers = (
{
anchors = (
{
name = bottom;
position = "{259, 0}";
}
);
layerId = "2E634D02-5A4A-4A55-A314-31ACA041593B";
paths = (
{
closed = 1;
nodes = (
"176 1096 LINE",
"176 0 LINE",
"342 0 LINE",
"342 1096 LINE"
);
},
{
closed = 1;
nodes = (
"162 1318 OFFCURVE",
"204 1282 OFFCURVE",
"260 1282 CURVE SMOOTH",
"313 1282 OFFCURVE",
"358 1318 OFFCURVE",
"358 1393 CURVE SMOOTH",
"358 1468 OFFCURVE",
"313 1503 OFFCURVE",
"260 1503 CURVE SMOOTH",
"204 1503 OFFCURVE",
"162 1469 OFFCURVE",
"162 1393 CURVE SMOOTH"
);
}
);
width = 518;
}
);
note = i;
unicode = 0069;
},
{
glyphname = j;
lastChange = "2017-05-07 23:58:36 +0000";
layers = (
{
layerId = "2E634D02-5A4A-4A55-A314-31ACA041593B";
paths = (
{
closed = 1;
nodes = (
"242 -492 OFFCURVE",
"342 -384 OFFCURVE",
"342 -168 CURVE SMOOTH",
"342 1096 LINE",
"176 1096 LINE",
"176 -180 LINE SMOOTH",
"176 -296 OFFCURVE",
"129 -352 OFFCURVE",
"25 -352 CURVE SMOOTH",
"-20 -352 OFFCURVE",
"-65 -345 OFFCURVE",
"-111 -332 CURVE",
"-111 -467 LINE",
"-72 -484 OFFCURVE",
"-20 -492 OFFCURVE",
"43 -492 CURVE SMOOTH"
);
},
{
closed = 1;
nodes = (
"162 1318 OFFCURVE",
"204 1282 OFFCURVE",
"260 1282 CURVE SMOOTH",
"313 1282 OFFCURVE",
"358 1318 OFFCURVE",
"358 1393 CURVE SMOOTH",
"358 1468 OFFCURVE",
"313 1503 OFFCURVE",
"260 1503 CURVE SMOOTH",
"204 1503 OFFCURVE",
"162 1469 OFFCURVE",
"162 1393 CURVE SMOOTH"
);
}
);
width = 518;
}
);
note = j;
unicode = 006A;
},
{
glyphname = k;
lastChange = "2017-05-08 00:27:06 +0000";
layers = (
{
anchors = (
{
name = bottom;
position = "{538, 0}";
},
{
name = top;
position = "{650, 1096}";
}
);
guideLines = (
{
angle = 270;
position = "{578, 547}";
}
);
layerId = "2E634D02-5A4A-4A55-A314-31ACA041593B";
paths = (
{
closed = 1;
nodes = (
"337 638 OFFCURVE",
"340 694 OFFCURVE",
"340 731 CURVE SMOOTH",
"340 1556 LINE",
"176 1556 LINE",
"176 0 LINE",
"340 0 LINE",
"340 410 LINE",
"465 518 LINE",
"852 0 LINE",
"1053 0 LINE",
"578 629 LINE",
"1022 1096 LINE",
"825 1096 LINE",
"471 721 LINE SMOOTH",
"412 655 OFFCURVE",
"369 602 OFFCURVE",
"340 561 CURVE",
"332 561 LINE"
);
}
);
width = 1075;
}
);
note = k;
unicode = 006B;
},
{
glyphname = l;
lastChange = "2017-05-08 00:30:21 +0000";
layers = (
{
anchors = (
{
name = bottom;
position = "{259, 0}";
},
{
name = center;
position = "{259, 548}";
},
{
name = top;
position = "{724, 1096}";
},
{
name = topright;
position = "{498, 1096}";
}
);
layerId = "2E634D02-5A4A-4A55-A314-31ACA041593B";
paths = (
{
closed = 1;
nodes = (
"176 1556 LINE",
"176 0 LINE",
"342 0 LINE",
"342 1556 LINE"
);
}
);
width = 518;
}
);
note = l;
unicode = 006C;
},
{
glyphname = m;
lastChange = "2017-05-07 23:59:40 +0000";
layers = (
{
anchors = (
{
name = bottom;
position = "{953, 0}";
},
{
name = top;
position = "{953, 1096}";
}
);
layerId = "2E634D02-5A4A-4A55-A314-31ACA041593B";
paths = (
{
closed = 1;
nodes = (
"1739 715 LINE SMOOTH",
"1739 995 OFFCURVE",
"1616 1116 OFFCURVE",
"1368 1116 CURVE SMOOTH",
"1209 1116 OFFCURVE",
"1079 1045 OFFCURVE",
"1014 930 CURVE",
"1006 930 LINE",
"953 1054 OFFCURVE",
"841 1116 OFFCURVE",
"670 1116 CURVE SMOOTH",
"529 1116 OFFCURVE",
"409 1053 OFFCURVE",
"346 946 CURVE",
"338 946 LINE",
"311 1096 LINE",
"176 1096 LINE",
"176 0 LINE",
"342 0 LINE",
"342 575 LINE SMOOTH",
"342 859 OFFCURVE",
"435 975 OFFCURVE",
"643 975 CURVE SMOOTH",
"802 975 OFFCURVE",
"874 888 OFFCURVE",
"874 713 CURVE SMOOTH",
"874 0 LINE",
"1040 0 LINE",
"1040 612 LINE SMOOTH",
"1040 859 OFFCURVE",
"1136 975 OFFCURVE",
"1343 975 CURVE SMOOTH",
"1500 975 OFFCURVE",
"1573 888 OFFCURVE",
"1573 713 CURVE SMOOTH",
"1573 0 LINE",
"1739 0 LINE"
);
}
);
width = 1905;
}
);
note = m;
unicode = 006D;
},
{
glyphname = n;
lastChange = "2017-05-07 23:59:40 +0000";
layers = (
{
anchors = (
{
name = bottom;
position = "{629, 0}";
},
{
name = top;
position = "{629, 1096}";
}
);
layerId = "2E634D02-5A4A-4A55-A314-31ACA041593B";
paths = (
{
closed = 1;
nodes = (
"1092 715 LINE SMOOTH",
"1092 995 OFFCURVE",
"958 1116 OFFCURVE",
"694 1116 CURVE SMOOTH",
"543 1116 OFFCURVE",
"414 1054 OFFCURVE",
"346 946 CURVE",
"338 946 LINE",
"311 1096 LINE",
"176 1096 LINE",
"176 0 LINE",
"342 0 LINE",
"342 575 LINE SMOOTH",
"342 860 OFFCURVE",
"445 975 OFFCURVE",
"674 975 CURVE SMOOTH",
"847 975 OFFCURVE",
"926 888 OFFCURVE",
"926 709 CURVE SMOOTH",
"926 0 LINE",
"1092 0 LINE"
);
}
);
width = 1257;
}
);
note = n;
unicode = 006E;
},
{
glyphname = o;
lastChange = "2018-06-28 15:40:29 +0000";
layers = (
{
anchors = (
{
name = bottom;
position = "{619, 0}";
},
{
name = center;
position = "{619, 548}";
},
{
name = ogonek;
position = "{1113, 10}";
},
{
name = top;
position = "{619, 1096}";
},
{
name = topright;
position = "{1217, 1096}";
}
);
layerId = "2E634D02-5A4A-4A55-A314-31ACA041593B";
paths = (
{
closed = 1;
nodes = (
"1122 897 OFFCURVE",
"928 1116 OFFCURVE",
"621 1116 CURVE SMOOTH",
"304 1116 OFFCURVE",
"115 906 OFFCURVE",
"115 549 CURVE SMOOTH",
"115 434 OFFCURVE",
"136 333 OFFCURVE",
"177 247 CURVE SMOOTH",
"260 75 OFFCURVE",
"418 -20 OFFCURVE",
"614 -20 CURVE SMOOTH",
"931 -20 OFFCURVE",
"1122 192 OFFCURVE",
"1122 549 CURVE SMOOTH"
);
},
{
closed = 1;
nodes = (
"287 832 OFFCURVE",
"399 975 OFFCURVE",
"616 975 CURVE SMOOTH",
"836 975 OFFCURVE",
"950 828 OFFCURVE",
"950 549 CURVE SMOOTH",
"950 268 OFFCURVE",
"835 119 OFFCURVE",
"618 119 CURVE SMOOTH",
"401 119 OFFCURVE",
"287 269 OFFCURVE",
"287 549 CURVE SMOOTH"
);
}
);
width = 1237;
}
);
note = o;
unicode = 006F;
},
{
glyphname = p;
lastChange = "2017-05-07 23:59:40 +0000";
layers = (
{
anchors = (
{
name = bottom;
position = "{628, 0}";
},
{
name = top;
position = "{628, 1096}";
}
);
layerId = "2E634D02-5A4A-4A55-A314-31ACA041593B";
paths = (
{
closed = 1;
nodes = (
"971 -20 OFFCURVE",
"1141 189 OFFCURVE",
"1141 549 CURVE SMOOTH",
"1141 908 OFFCURVE",
"977 1116 OFFCURVE",
"686 1116 CURVE SMOOTH",
"539 1116 OFFCURVE",
"427 1066 OFFCURVE",
"342 946 CURVE",
"334 946 LINE",
"311 1096 LINE",
"176 1096 LINE",
"176 -492 LINE",
"342 -492 LINE",
"342 -41 LINE SMOOTH",
"342 16 OFFCURVE",
"338 77 OFFCURVE",
"330 141 CURVE",
"342 141 LINE",
"422 32 OFFCURVE",
"543 -20 OFFCURVE",
"686 -20 CURVE SMOOTH"
);
},
{
closed = 1;
nodes = (
"857 975 OFFCURVE",
"969 824 OFFCURVE",
"969 551 CURVE SMOOTH",
"969 282 OFFCURVE",
"855 119 OFFCURVE",
"666 119 CURVE SMOOTH",
"439 119 OFFCURVE",
"342 241 OFFCURVE",
"342 549 CURVE SMOOTH",
"342 586 LINE SMOOTH",
"345 857 OFFCURVE",
"438 975 OFFCURVE",
"662 975 CURVE SMOOTH"
);
}
);
width = 1255;
}
);
note = p;
unicode = 0070;
},
{
glyphname = q;
lastChange = "2017-05-07 23:59:40 +0000";
layers = (
{
anchors = (
{
name = bottom;
position = "{628, 0}";
},
{
name = top;
position = "{628, 1096}";
}
);
layerId = "2E634D02-5A4A-4A55-A314-31ACA041593B";
paths = (
{
closed = 1;
nodes = (
"390 119 OFFCURVE",
"287 267 OFFCURVE",
"287 543 CURVE SMOOTH",
"287 819 OFFCURVE",
"393 977 OFFCURVE",
"588 977 CURVE SMOOTH",
"813 977 OFFCURVE",
"913 852 OFFCURVE",
"913 545 CURVE SMOOTH",
"913 508 LINE SMOOTH",
"906 227 OFFCURVE",
"811 119 OFFCURVE",
"590 119 CURVE SMOOTH"
);
},
{
closed = 1;
nodes = (
"719 -20 OFFCURVE",
"834 36 OFFCURVE",
"911 147 CURVE",
"924 147 LINE",
"917 100 OFFCURVE",
"913 44 OFFCURVE",
"913 -23 CURVE SMOOTH",
"913 -492 LINE",
"1079 -492 LINE",
"1079 1096 LINE",
"948 1096 LINE",
"924 946 LINE",
"915 946 LINE",
"834 1059 OFFCURVE",
"719 1116 OFFCURVE",
"569 1116 CURVE SMOOTH",
"284 1116 OFFCURVE",
"115 904 OFFCURVE",
"115 545 CURVE SMOOTH",
"115 189 OFFCURVE",
"282 -20 OFFCURVE",
"565 -20 CURVE SMOOTH"
);
}
);
width = 1255;
}
);
note = q;
unicode = 0071;
},
{
glyphname = r;
lastChange = "2017-05-07 23:59:40 +0000";
layers = (
{
anchors = (
{
name = bottom;
position = "{418, 0}";
},
{
name = top;
position = "{418, 1096}";
}
);
layerId = "2E634D02-5A4A-4A55-A314-31ACA041593B";
paths = (
{
closed = 1;
nodes = (
"539 1116 OFFCURVE",
"421 1036 OFFCURVE",
"340 893 CURVE",
"332 893 LINE",
"313 1096 LINE",
"176 1096 LINE",
"176 0 LINE",
"342 0 LINE",
"342 588 LINE SMOOTH",
"342 803 OFFCURVE",
"487 965 OFFCURVE",
"664 965 CURVE SMOOTH",
"699 965 OFFCURVE",
"739 960 OFFCURVE",
"784 950 CURVE",
"807 1104 LINE",
"768 1112 OFFCURVE",
"725 1116 OFFCURVE",
"676 1116 CURVE SMOOTH"
);
}
);
width = 836;
}
);
note = r;
unicode = 0072;
},
{
glyphname = s;
lastChange = "2017-05-07 23:59:40 +0000";
layers = (
{
anchors = (
{
name = bottom;
position = "{489, 0}";
},
{
name = top;
position = "{489, 1096}";
}
);
layerId = "2E634D02-5A4A-4A55-A314-31ACA041593B";
paths = (
{
closed = 1;
nodes = (
"883 444 OFFCURVE",
"811 528 OFFCURVE",
"551 623 CURVE SMOOTH",
"456 658 OFFCURVE",
"392 685 OFFCURVE",
"359 704 CURVE SMOOTH",
"292 741 OFFCURVE",
"264 779 OFFCURVE",
"264 838 CURVE SMOOTH",
"264 925 OFFCURVE",
"345 977 OFFCURVE",
"502 977 CURVE SMOOTH",
"591 977 OFFCURVE",
"691 954 OFFCURVE",
"801 909 CURVE",
"860 1044 LINE",
"747 1092 OFFCURVE",
"632 1116 OFFCURVE",
"514 1116 CURVE SMOOTH",
"261 1116 OFFCURVE",
"106 1006 OFFCURVE",
"106 827 CURVE SMOOTH",
"106 727 OFFCURVE",
"148 658 OFFCURVE",
"234 602 CURVE SMOOTH",
"277 573 OFFCURVE",
"349 540 OFFCURVE",
"451 502 CURVE SMOOTH",
"558 461 OFFCURVE",
"631 425 OFFCURVE",
"668 395 CURVE SMOOTH",
"705 364 OFFCURVE",
"723 328 OFFCURVE",
"723 285 CURVE SMOOTH",
"723 172 OFFCURVE",
"626 117 OFFCURVE",
"453 117 CURVE SMOOTH",
"341 117 OFFCURVE",
"214 150 OFFCURVE",
"109 203 CURVE",
"109 49 LINE",
"190 3 OFFCURVE",
"304 -20 OFFCURVE",
"449 -20 CURVE SMOOTH",
"724 -20 OFFCURVE",
"883 95 OFFCURVE",
"883 299 CURVE SMOOTH"
);
}
);
width = 977;
}
);
note = s;
unicode = 0073;
},
{
glyphname = t;
lastChange = "2017-05-08 00:30:07 +0000";
layers = (
{
anchors = (
{
name = bottom;
position = "{461, 0}";
},
{
name = center;
position = "{362, 548}";
},
{
name = top;
position = "{583, 1096}";
},
{
name = topright;
position = "{703, 1096}";
}
);
layerId = "2E634D02-5A4A-4A55-A314-31ACA041593B";
paths = (
{
closed = 1;
nodes = (
"421 117 OFFCURVE",
"354 190 OFFCURVE",
"354 322 CURVE SMOOTH",
"354 967 LINE",
"672 967 LINE",
"672 1096 LINE",
"354 1096 LINE",
"354 1350 LINE",
"258 1350 LINE",
"188 1116 LINE",
"31 1047 LINE",
"31 967 LINE",
"188 967 LINE",
"188 315 LINE SMOOTH",
"188 92 OFFCURVE",
"294 -20 OFFCURVE",
"506 -20 CURVE SMOOTH",
"562 -20 OFFCURVE",
"644 -7 OFFCURVE",
"680 10 CURVE",
"680 137 LINE",
"648 128 OFFCURVE",
"589 117 OFFCURVE",
"530 117 CURVE SMOOTH"
);
}
);
width = 723;
}
);
note = t;
unicode = 0074;
},
{
glyphname = u;
lastChange = "2017-05-07 23:59:40 +0000";
layers = (
{
anchors = (
{
name = bottom;
position = "{629, 0}";
},
{
name = ogonek;
position = "{1131, 10}";
},
{
name = top;
position = "{629, 1096}";
},
{
name = topright;
position = "{1237, 1096}";
}
);
layerId = "2E634D02-5A4A-4A55-A314-31ACA041593B";
paths = (
{
closed = 1;
nodes = (
"164 379 LINE SMOOTH",
"164 100 OFFCURVE",
"296 -20 OFFCURVE",
"563 -20 CURVE SMOOTH",
"718 -20 OFFCURVE",
"843 39 OFFCURVE",
"911 147 CURVE",
"920 147 LINE",
"944 0 LINE",
"1081 0 LINE",
"1081 1096 LINE",
"915 1096 LINE",
"915 520 LINE SMOOTH",
"915 236 OFFCURVE",
"813 119 OFFCURVE",
"584 119 CURVE SMOOTH",
"411 119 OFFCURVE",
"332 206 OFFCURVE",
"332 385 CURVE SMOOTH",
"332 1096 LINE",
"164 1096 LINE"
);
}
);
width = 1257;
}
);
note = u;
unicode = 0075;
},
{
glyphname = v;
lastChange = "2017-05-07 23:59:40 +0000";
layers = (
{
anchors = (
{
name = bottom;
position = "{513, 0}";
},
{
name = top;
position = "{513, 1096}";
}
);
layerId = "2E634D02-5A4A-4A55-A314-31ACA041593B";
paths = (
{
closed = 1;
nodes = (
"1026 1096 LINE",
"848 1096 LINE",
"712 723 OFFCURVE",
"625 481 OFFCURVE",
"586 370 CURVE SMOOTH",
"547 259 OFFCURVE",
"523 185 OFFCURVE",
"516 150 CURVE",
"508 150 LINE",
"499 195 OFFCURVE",
"467 294 OFFCURVE",
"414 446 CURVE SMOOTH",
"178 1096 LINE",
"0 1096 LINE",
"416 0 LINE",
"610 0 LINE"
);
}
);
width = 1026;
}
);
note = v;
unicode = 0076;
},
{
glyphname = w;
lastChange = "2017-05-07 23:59:40 +0000";
layers = (
{
anchors = (
{
name = bottom;
position = "{797, 0}";
},
{
name = top;
position = "{797, 1096}";
}
);
layerId = "2E634D02-5A4A-4A55-A314-31ACA041593B";
paths = (
{
closed = 1;
nodes = (
"1571 1096 LINE",
"1399 1096 LINE",
"1272 608 OFFCURVE",
"1202 339 OFFCURVE",
"1191 289 CURVE SMOOTH",
"1179 239 OFFCURVE",
"1172 202 OFFCURVE",
"1169 178 CURVE",
"1161 178 LINE",
"1148 256 OFFCURVE",
"1122 352 OFFCURVE",
"1085 467 CURVE SMOOTH",
"889 1096 LINE",
"709 1096 LINE",
"508 467 LINE SMOOTH",
"484 396 OFFCURVE",
"445 252 OFFCURVE",
"430 176 CURVE",
"422 176 LINE",
"417 226 OFFCURVE",
"396 323 OFFCURVE",
"359 467 CURVE SMOOTH",
"322 611 OFFCURVE",
"268 821 OFFCURVE",
"197 1096 CURVE",
"23 1096 LINE",
"322 0 LINE",
"514 0 LINE",
"721 641 LINE SMOOTH",
"741 704 OFFCURVE",
"764 794 OFFCURVE",
"791 911 CURVE",
"799 911 LINE",
"834 772 OFFCURVE",
"857 682 OFFCURVE",
"870 643 CURVE SMOOTH",
"1071 0 LINE",
"1268 0 LINE"
);
}
);
width = 1593;
}
);
note = w;
unicode = 0077;
},
{
glyphname = x;
lastChange = "2017-05-07 23:59:40 +0000";
layers = (
{
anchors = (
{
name = bottom;
position = "{537, 0}";
},
{
name = top;
position = "{537, 1096}";
}
);
layerId = "2E634D02-5A4A-4A55-A314-31ACA041593B";
paths = (
{
closed = 1;
nodes = (
"227 0 LINE",
"537 444 LINE",
"844 0 LINE",
"1032 0 LINE",
"631 561 LINE",
"1012 1096 LINE",
"825 1096 LINE",
"537 676 LINE",
"248 1096 LINE",
"59 1096 LINE",
"440 561 LINE",
"39 0 LINE"
);
}
);
width = 1073;
}
);
note = x;
unicode = 0078;
},
{
glyphname = y;
lastChange = "2017-05-07 23:59:40 +0000";
layers = (
{
anchors = (
{
name = bottom;
position = "{516, 0}";
},
{
name = top;
position = "{516, 1096}";
}
);
layerId = "2E634D02-5A4A-4A55-A314-31ACA041593B";
paths = (
{
closed = 1;
nodes = (
"383 -162 LINE SMOOTH",
"334 -290 OFFCURVE",
"253 -354 OFFCURVE",
"139 -354 CURVE SMOOTH",
"94 -354 OFFCURVE",
"53 -350 OFFCURVE",
"16 -342 CURVE",
"16 -475 LINE",
"65 -486 OFFCURVE",
"115 -492 OFFCURVE",
"166 -492 CURVE SMOOTH",
"347 -492 OFFCURVE",
"466 -399 OFFCURVE",
"559 -152 CURVE SMOOTH",
"1030 1096 LINE",
"852 1096 LINE",
"699 672 OFFCURVE",
"608 419 OFFCURVE",
"581 337 CURVE SMOOTH",
"553 254 OFFCURVE",
"535 196 OFFCURVE",
"526 162 CURVE",
"518 162 LINE",
"505 225 OFFCURVE",
"473 328 OFFCURVE",
"420 471 CURVE SMOOTH",
"180 1096 LINE",
"2 1096 LINE",
"444 -6 LINE"
);
}
);
width = 1032;
}
);
note = y;
unicode = 0079;
},
{
glyphname = z;
lastChange = "2017-05-07 23:59:40 +0000";
layers = (
{
anchors = (
{
name = bottom;
position = "{479, 0}";
},
{
name = top;
position = "{479, 1096}";
}
);
layerId = "2E634D02-5A4A-4A55-A314-31ACA041593B";
paths = (
{
closed = 1;
nodes = (
"272 129 LINE",
"862 967 LINE",
"862 1096 LINE",
"119 1096 LINE",
"119 967 LINE",
"680 967 LINE",
"82 113 LINE",
"82 0 LINE",
"877 0 LINE",
"877 129 LINE"
);
}
);
width = 958;
}
);
note = z;
unicode = 007A;
},
{
glyphname = braceleft;
lastChange = "2017-04-22 20:56:27 +0000";
layers = (
{
layerId = "2E634D02-5A4A-4A55-A314-31ACA041593B";
paths = (
{
closed = 1;
nodes = (
"475 452 OFFCURVE",
"401 537 OFFCURVE",
"252 563 CURVE",
"252 575 LINE",
"401 601 OFFCURVE",
"475 686 OFFCURVE",
"475 829 CURVE SMOOTH",
"475 1124 LINE SMOOTH",
"475 1253 OFFCURVE",
"552 1319 OFFCURVE",
"705 1323 CURVE",
"705 1462 LINE",
"462 1462 OFFCURVE",
"307 1342 OFFCURVE",
"307 1135 CURVE SMOOTH",
"307 829 LINE SMOOTH",
"307 701 OFFCURVE",
"234 642 OFFCURVE",
"61 639 CURVE",
"61 498 LINE",
"221 498 OFFCURVE",
"307 444 OFFCURVE",
"307 305 CURVE SMOOTH",
"307 2 LINE SMOOTH",
"307 -203 OFFCURVE",
"452 -321 OFFCURVE",
"705 -324 CURVE",
"705 -184 LINE",
"554 -181 OFFCURVE",
"475 -124 OFFCURVE",
"475 12 CURVE SMOOTH",
"475 309 LINE SMOOTH"
);
}
);
width = 776;
}
);
note = braceleft;
unicode = 007B;
},
{
glyphname = bar;
lastChange = "2017-04-22 20:56:27 +0000";
layers = (
{
layerId = "2E634D02-5A4A-4A55-A314-31ACA041593B";
paths = (
{
closed = 1;
nodes = (
"635 -496 LINE",
"635 1556 LINE",
"494 1556 LINE",
"494 -496 LINE"
);
}
);
width = 1128;
}
);
note = bar;
unicode = 007C;
},
{
glyphname = braceright;
lastChange = "2017-04-22 20:56:27 +0000";
layers = (
{
layerId = "2E634D02-5A4A-4A55-A314-31ACA041593B";
paths = (
{
closed = 1;
nodes = (
"371 536 OFFCURVE",
"299 461 OFFCURVE",
"299 309 CURVE SMOOTH",
"299 12 LINE SMOOTH",
"299 -124 OFFCURVE",
"220 -181 OFFCURVE",
"72 -184 CURVE",
"72 -324 LINE",
"325 -321 OFFCURVE",
"467 -202 OFFCURVE",
"467 2 CURVE SMOOTH",
"467 305 LINE SMOOTH",
"467 444 OFFCURVE",
"552 498 OFFCURVE",
"715 498 CURVE",
"715 639 LINE",
"542 642 OFFCURVE",
"467 700 OFFCURVE",
"467 829 CURVE SMOOTH",
"467 1135 LINE SMOOTH",
"467 1339 OFFCURVE",
"317 1462 OFFCURVE",
"72 1462 CURVE",
"72 1323 LINE",
"223 1319 OFFCURVE",
"299 1253 OFFCURVE",
"299 1124 CURVE SMOOTH",
"299 829 LINE SMOOTH",
"299 686 OFFCURVE",
"373 601 OFFCURVE",
"522 575 CURVE",
"522 563 LINE"
);
}
);
width = 776;
}
);
note = braceright;
unicode = 007D;
},
{
glyphname = asciitilde;
lastChange = "2017-04-22 20:56:27 +0000";
layers = (
{
layerId = "2E634D02-5A4A-4A55-A314-31ACA041593B";
paths = (
{
closed = 1;
nodes = (
"402 713 OFFCURVE",
"451 700 OFFCURVE",
"551 657 CURVE SMOOTH",
"647 614 OFFCURVE",
"725 592 OFFCURVE",
"821 592 CURVE SMOOTH",
"916 592 OFFCURVE",
"997 629 OFFCURVE",
"1065 702 CURVE",
"1065 852 LINE",
"993 776 OFFCURVE",
"901 731 OFFCURVE",
"829 731 CURVE SMOOTH",
"766 731 OFFCURVE",
"706 749 OFFCURVE",
"618 786 CURVE SMOOTH",
"499 837 OFFCURVE",
"439 852 OFFCURVE",
"348 852 CURVE SMOOTH",
"252 852 OFFCURVE",
"171 816 OFFCURVE",
"104 743 CURVE",
"104 592 LINE",
"176 664 OFFCURVE",
"267 713 OFFCURVE",
"338 713 CURVE SMOOTH"
);
}
);
width = 1171;
}
);
note = asciitilde;
unicode = 007E;
},
{
glyphname = exclamdown;
lastChange = "2017-04-22 20:56:27 +0000";
layers = (
{
layerId = "2E634D02-5A4A-4A55-A314-31ACA041593B";
paths = (
{
closed = 1;
nodes = (
"375 -373 LINE",
"324 684 LINE",
"219 684 LINE",
"168 -373 LINE"
);
},
{
closed = 1;
nodes = (
"393 1078 OFFCURVE",
"340 1118 OFFCURVE",
"272 1118 CURVE SMOOTH",
"196 1118 OFFCURVE",
"152 1067 OFFCURVE",
"152 983 CURVE SMOOTH",
"152 898 OFFCURVE",
"192 848 OFFCURVE",
"272 848 CURVE SMOOTH",
"353 848 OFFCURVE",
"393 893 OFFCURVE",
"393 983 CURVE SMOOTH"
);
}
);
width = 547;
}
);
note = exclamdown;
unicode = 00A1;
},
{
glyphname = cent;
lastChange = "2017-04-22 20:56:27 +0000";
layers = (
{
layerId = "2E634D02-5A4A-4A55-A314-31ACA041593B";
paths = (
{
closed = 1;
nodes = (
"876 348 OFFCURVE",
"782 328 OFFCURVE",
"688 328 CURVE SMOOTH",
"465 328 OFFCURVE",
"362 460 OFFCURVE",
"362 743 CURVE SMOOTH",
"362 1032 OFFCURVE",
"467 1171 OFFCURVE",
"696 1171 CURVE SMOOTH",
"769 1171 OFFCURVE",
"849 1154 OFFCURVE",
"938 1120 CURVE",
"987 1260 LINE",
"922 1291 OFFCURVE",
"821 1315 OFFCURVE",
"721 1319 CURVE",
"721 1483 LINE",
"586 1483 LINE",
"586 1311 LINE",
"322 1270 OFFCURVE",
"190 1080 OFFCURVE",
"190 741 CURVE SMOOTH",
"190 408 OFFCURVE",
"315 229 OFFCURVE",
"586 186 CURVE",
"586 -20 LINE",
"719 -20 LINE",
"719 180 LINE",
"817 184 OFFCURVE",
"901 204 OFFCURVE",
"971 240 CURVE",
"971 387 LINE"
);
}
);
width = 1171;
}
);
note = cent;
unicode = 00A2;
},
{
glyphname = sterling;
lastChange = "2017-04-22 20:56:27 +0000";
layers = (
{
layerId = "2E634D02-5A4A-4A55-A314-31ACA041593B";
paths = (
{
closed = 1;
nodes = (
"429 1481 OFFCURVE",
"268 1335 OFFCURVE",
"268 1098 CURVE SMOOTH",
"268 782 LINE",
"70 782 LINE",
"70 655 LINE",
"268 655 LINE",
"268 432 LINE SMOOTH",
"268 269 OFFCURVE",
"200 172 OFFCURVE",
"63 141 CURVE",
"63 0 LINE",
"1092 0 LINE",
"1092 154 LINE",
"297 154 LINE",
"396 213 OFFCURVE",
"436 301 OFFCURVE",
"436 434 CURVE SMOOTH",
"436 655 LINE",
"858 655 LINE",
"858 782 LINE",
"436 782 LINE",
"436 1077 LINE SMOOTH",
"436 1264 OFFCURVE",
"520 1341 OFFCURVE",
"684 1341 CURVE SMOOTH",
"779 1341 OFFCURVE",
"878 1315 OFFCURVE",
"981 1264 CURVE",
"1042 1397 LINE",
"929 1453 OFFCURVE",
"809 1481 OFFCURVE",
"682 1481 CURVE SMOOTH"
);
}
);
width = 1171;
}
);
note = sterling;
unicode = 00A3;
},
{
glyphname = currency;
lastChange = "2017-04-22 20:56:27 +0000";
layers = (
{
layerId = "2E634D02-5A4A-4A55-A314-31ACA041593B";
paths = (
{
closed = 1;
nodes = (
"184 640 OFFCURVE",
"209 563 OFFCURVE",
"258 492 CURVE",
"125 356 LINE",
"217 264 LINE",
"352 397 LINE",
"419 348 OFFCURVE",
"497 324 OFFCURVE",
"586 324 CURVE SMOOTH",
"671 324 OFFCURVE",
"747 348 OFFCURVE",
"815 395 CURVE",
"952 262 LINE",
"1044 354 LINE",
"913 489 LINE",
"962 558 OFFCURVE",
"987 636 OFFCURVE",
"987 723 CURVE SMOOTH",
"987 802 OFFCURVE",
"962 879 OFFCURVE",
"913 954 CURVE",
"1047 1092 LINE",
"952 1184 LINE",
"815 1051 LINE",
"747 1100 OFFCURVE",
"671 1124 OFFCURVE",
"586 1124 CURVE SMOOTH",
"499 1124 OFFCURVE",
"421 1100 OFFCURVE",
"352 1051 CURVE",
"217 1184 LINE",
"123 1092 LINE",
"258 952 LINE",
"209 881 OFFCURVE",
"184 804 OFFCURVE",
"184 723 CURVE SMOOTH"
);
},
{
closed = 1;
nodes = (
"313 872 OFFCURVE",
"431 999 OFFCURVE",
"586 999 CURVE SMOOTH",
"738 999 OFFCURVE",
"860 875 OFFCURVE",
"860 723 CURVE SMOOTH",
"860 572 OFFCURVE",
"741 451 OFFCURVE",
"586 451 CURVE SMOOTH",
"431 451 OFFCURVE",
"313 574 OFFCURVE",
"313 723 CURVE SMOOTH"
);
}
);
width = 1171;
}
);
note = currency;
unicode = 00A4;
},
{
glyphname = yen;
lastChange = "2017-04-22 20:56:27 +0000";
layers = (
{
layerId = "2E634D02-5A4A-4A55-A314-31ACA041593B";
paths = (
{
closed = 1;
nodes = (
"31 1462 LINE",
"442 692 LINE",
"186 692 LINE",
"186 565 LINE",
"502 565 LINE",
"502 395 LINE",
"186 395 LINE",
"186 268 LINE",
"502 268 LINE",
"502 0 LINE",
"666 0 LINE",
"666 268 LINE",
"983 268 LINE",
"983 395 LINE",
"666 395 LINE",
"666 565 LINE",
"983 565 LINE",
"983 692 LINE",
"721 692 LINE",
"1137 1462 LINE",
"963 1462 LINE",
"584 735 LINE",
"209 1462 LINE"
);
}
);
width = 1171;
}
);
note = yen;
unicode = 00A5;
},
{
glyphname = brokenbar;
lastChange = "2017-04-22 20:56:27 +0000";
layers = (
{
layerId = "2E634D02-5A4A-4A55-A314-31ACA041593B";
paths = (
{
closed = 1;
nodes = (
"635 780 LINE",
"635 1556 LINE",
"494 1556 LINE",
"494 780 LINE"
);
},
{
closed = 1;
nodes = (
"635 -496 LINE",
"635 281 LINE",
"494 281 LINE",
"494 -496 LINE"
);
}
);
width = 1128;
}
);
note = brokenbar;
unicode = 00A6;
},
{
glyphname = section;
lastChange = "2017-04-22 20:56:27 +0000";
layers = (
{
layerId = "2E634D02-5A4A-4A55-A314-31ACA041593B";
paths = (
{
closed = 1;
nodes = (
"139 757 OFFCURVE",
"150 712 OFFCURVE",
"172 674 CURVE SMOOTH",
"216 598 OFFCURVE",
"292 544 OFFCURVE",
"481 475 CURVE SMOOTH",
"558 446 OFFCURVE",
"614 422 OFFCURVE",
"650 403 CURVE SMOOTH",
"722 364 OFFCURVE",
"752 331 OFFCURVE",
"752 270 CURVE SMOOTH",
"752 175 OFFCURVE",
"656 123 OFFCURVE",
"477 123 CURVE SMOOTH",
"368 123 OFFCURVE",
"227 156 OFFCURVE",
"123 205 CURVE",
"123 57 LINE",
"208 14 OFFCURVE",
"324 -8 OFFCURVE",
"469 -8 CURVE SMOOTH",
"752 -8 OFFCURVE",
"915 98 OFFCURVE",
"915 285 CURVE SMOOTH",
"915 382 OFFCURVE",
"864 458 OFFCURVE",
"762 512 CURVE",
"861 567 OFFCURVE",
"918 664 OFFCURVE",
"918 784 CURVE SMOOTH",
"918 927 OFFCURVE",
"830 1019 OFFCURVE",
"582 1110 CURVE SMOOTH",
"479 1147 OFFCURVE",
"408 1179 OFFCURVE",
"367 1207 CURVE SMOOTH",
"326 1235 OFFCURVE",
"305 1269 OFFCURVE",
"305 1309 CURVE SMOOTH",
"305 1394 OFFCURVE",
"382 1432 OFFCURVE",
"537 1432 CURVE SMOOTH",
"638 1432 OFFCURVE",
"715 1418 OFFCURVE",
"846 1366 CURVE",
"899 1497 LINE",
"770 1549 OFFCURVE",
"674 1565 OFFCURVE",
"549 1565 CURVE SMOOTH",
"286 1565 OFFCURVE",
"145 1466 OFFCURVE",
"145 1305 CURVE SMOOTH",
"145 1192 OFFCURVE",
"204 1122 OFFCURVE",
"303 1069 CURVE",
"199 1020 OFFCURVE",
"139 924 OFFCURVE",
"139 809 CURVE SMOOTH"
);
},
{
closed = 1;
nodes = (
"285 912 OFFCURVE",
"347 985 OFFCURVE",
"438 1010 CURVE",
"561 972 OFFCURVE",
"648 934 OFFCURVE",
"697 897 CURVE SMOOTH",
"746 860 OFFCURVE",
"770 813 OFFCURVE",
"770 758 CURVE SMOOTH",
"770 684 OFFCURVE",
"724 620 OFFCURVE",
"633 567 CURVE",
"584 586 LINE SMOOTH",
"473 627 OFFCURVE",
"395 665 OFFCURVE",
"351 700 CURVE SMOOTH",
"307 735 OFFCURVE",
"285 778 OFFCURVE",
"285 829 CURVE SMOOTH"
);
}
);
width = 1057;
}
);
note = section;
unicode = 00A7;
},
{
glyphname = dieresis;
lastChange = "2017-04-22 20:56:27 +0000";
layers = (
{
layerId = "2E634D02-5A4A-4A55-A314-31ACA041593B";
paths = (
{
closed = 1;
nodes = (
"309 1326 OFFCURVE",
"350 1294 OFFCURVE",
"399 1294 CURVE SMOOTH",
"450 1294 OFFCURVE",
"492 1326 OFFCURVE",
"492 1393 CURVE SMOOTH",
"492 1462 OFFCURVE",
"450 1491 OFFCURVE",
"399 1491 CURVE SMOOTH",
"350 1491 OFFCURVE",
"309 1462 OFFCURVE",
"309 1393 CURVE SMOOTH"
);
},
{
closed = 1;
nodes = (
"690 1326 OFFCURVE",
"731 1294 OFFCURVE",
"780 1294 CURVE SMOOTH",
"829 1294 OFFCURVE",
"872 1326 OFFCURVE",
"872 1393 CURVE SMOOTH",
"872 1462 OFFCURVE",
"829 1491 OFFCURVE",
"780 1491 CURVE SMOOTH",
"731 1491 OFFCURVE",
"690 1462 OFFCURVE",
"690 1393 CURVE SMOOTH"
);
}
);
width = 1182;
}
);
note = dieresis;
unicode = 00A8;
},
{
glyphname = copyright;
lastChange = "2017-04-22 20:56:27 +0000";
layers = (
{
layerId = "2E634D02-5A4A-4A55-A314-31ACA041593B";
paths = (
{
closed = 1;
nodes = (
"946 1059 OFFCURVE",
"1009 1042 OFFCURVE",
"1081 1008 CURVE",
"1139 1126 LINE",
"1060 1166 OFFCURVE",
"978 1186 OFFCURVE",
"893 1186 CURVE SMOOTH",
"638 1186 OFFCURVE",
"481 1010 OFFCURVE",
"481 731 CURVE SMOOTH",
"481 443 OFFCURVE",
"624 274 OFFCURVE",
"883 274 CURVE SMOOTH",
"976 274 OFFCURVE",
"1038 295 OFFCURVE",
"1102 322 CURVE",
"1102 446 LINE",
"1019 416 OFFCURVE",
"948 401 OFFCURVE",
"891 401 CURVE SMOOTH",
"716 401 OFFCURVE",
"633 507 OFFCURVE",
"633 731 CURVE SMOOTH",
"633 936 OFFCURVE",
"726 1059 OFFCURVE",
"893 1059 CURVE SMOOTH"
);
},
{
closed = 1;
nodes = (
"100 599 OFFCURVE",
"133 475 OFFCURVE",
"198 360 CURVE SMOOTH",
"328 129 OFFCURVE",
"576 -20 OFFCURVE",
"852 -20 CURVE SMOOTH",
"991 -20 OFFCURVE",
"1118 15 OFFCURVE",
"1235 84 CURVE SMOOTH",
"1468 223 OFFCURVE",
"1604 468 OFFCURVE",
"1604 731 CURVE SMOOTH",
"1604 866 OFFCURVE",
"1570 991 OFFCURVE",
"1503 1108 CURVE SMOOTH",
"1368 1341 OFFCURVE",
"1119 1483 OFFCURVE",
"852 1483 CURVE SMOOTH",
"717 1483 OFFCURVE",
"592 1449 OFFCURVE",
"475 1382 CURVE SMOOTH",
"242 1247 OFFCURVE",
"100 998 OFFCURVE",
"100 731 CURVE SMOOTH"
);
},
{
closed = 1;
nodes = (
"205 848 OFFCURVE",
"234 957 OFFCURVE",
"293 1056 CURVE SMOOTH",
"409 1254 OFFCURVE",
"620 1378 OFFCURVE",
"852 1378 CURVE SMOOTH",
"969 1378 OFFCURVE",
"1078 1349 OFFCURVE",
"1177 1291 CURVE SMOOTH",
"1375 1174 OFFCURVE",
"1499 963 OFFCURVE",
"1499 731 CURVE SMOOTH",
"1499 614 OFFCURVE",
"1470 506 OFFCURVE",
"1412 407 CURVE SMOOTH",
"1295 209 OFFCURVE",
"1084 84 OFFCURVE",
"852 84 CURVE SMOOTH",
"737 84 OFFCURVE",
"630 113 OFFCURVE",
"530 171 CURVE SMOOTH",
"329 286 OFFCURVE",
"205 500 OFFCURVE",
"205 731 CURVE SMOOTH"
);
}
);
width = 1704;
}
);
note = copyright;
unicode = 00A9;
},
{
glyphname = ordfeminine;
lastChange = "2017-04-22 20:56:27 +0000";
layers = (
{
layerId = "2E634D02-5A4A-4A55-A314-31ACA041593B";
paths = (
{
closed = 1;
nodes = (
"625 1253 LINE SMOOTH",
"625 1414 OFFCURVE",
"531 1479 OFFCURVE",
"358 1479 CURVE SMOOTH",
"269 1479 OFFCURVE",
"187 1460 OFFCURVE",
"111 1423 CURVE",
"154 1327 LINE",
"223 1361 OFFCURVE",
"291 1378 OFFCURVE",
"358 1378 CURVE SMOOTH",
"457 1378 OFFCURVE",
"506 1334 OFFCURVE",
"506 1245 CURVE SMOOTH",
"506 1206 LINE",
"389 1202 LINE SMOOTH",
"169 1194 OFFCURVE",
"70 1125 OFFCURVE",
"70 989 CURVE SMOOTH",
"70 853 OFFCURVE",
"149 788 OFFCURVE",
"276 788 CURVE SMOOTH",
"369 788 OFFCURVE",
"447 820 OFFCURVE",
"508 885 CURVE",
"532 801 LINE",
"625 801 LINE"
);
},
{
closed = 1;
nodes = (
"193 1074 OFFCURVE",
"259 1109 OFFCURVE",
"408 1114 CURVE SMOOTH",
"506 1118 LINE",
"506 1069 LINE SMOOTH",
"506 949 OFFCURVE",
"439 889 OFFCURVE",
"305 889 CURVE SMOOTH",
"230 889 OFFCURVE",
"193 922 OFFCURVE",
"193 989 CURVE SMOOTH"
);
}
);
width = 725;
}
);
note = ordfeminine;
unicode = 00AA;
},
{
glyphname = guillemotleft;
lastChange = "2017-04-22 20:56:27 +0000";
layers = (
{
layerId = "2E634D02-5A4A-4A55-A314-31ACA041593B";
paths = (
{
closed = 1;
nodes = (
"424 117 LINE",
"543 188 LINE",
"254 539 LINE",
"543 889 LINE",
"424 958 LINE",
"82 551 LINE",
"82 524 LINE"
);
},
{
closed = 1;
nodes = (
"821 117 LINE",
"938 188 LINE",
"651 539 LINE",
"938 889 LINE",
"821 958 LINE",
"477 551 LINE",
"477 524 LINE"
);
}
);
width = 1018;
}
);
note = guillemotleft;
unicode = 00AB;
},
{
glyphname = logicalnot;
lastChange = "2017-04-22 20:56:27 +0000";
layers = (
{
layerId = "2E634D02-5A4A-4A55-A314-31ACA041593B";
paths = (
{
closed = 1;
nodes = (
"104 653 LINE",
"928 653 LINE",
"928 264 LINE",
"1065 264 LINE",
"1065 791 LINE",
"104 791 LINE"
);
}
);
width = 1171;
}
);
note = logicalnot;
unicode = 00AC;
},
{
glyphname = registered;
lastChange = "2017-04-22 20:56:27 +0000";
layers = (
{
layerId = "2E634D02-5A4A-4A55-A314-31ACA041593B";
paths = (
{
closed = 1;
nodes = (
"829 1049 LINE SMOOTH",
"953 1049 OFFCURVE",
"1008 1009 OFFCURVE",
"1008 909 CURVE SMOOTH",
"1008 824 OFFCURVE",
"938 762 OFFCURVE",
"831 762 CURVE SMOOTH",
"723 762 LINE",
"723 1049 LINE"
);
},
{
closed = 1;
nodes = (
"1157 1090 OFFCURVE",
"1057 1176 OFFCURVE",
"836 1176 CURVE SMOOTH",
"575 1176 LINE",
"575 285 LINE",
"723 285 LINE",
"723 639 LINE",
"858 639 LINE",
"1065 285 LINE",
"1233 285 LINE",
"995 680 LINE",
"1098 720 OFFCURVE",
"1157 806 OFFCURVE",
"1157 913 CURVE SMOOTH"
);
},
{
closed = 1;
nodes = (
"100 599 OFFCURVE",
"133 475 OFFCURVE",
"198 360 CURVE SMOOTH",
"328 129 OFFCURVE",
"576 -20 OFFCURVE",
"852 -20 CURVE SMOOTH",
"991 -20 OFFCURVE",
"1118 15 OFFCURVE",
"1235 84 CURVE SMOOTH",
"1468 223 OFFCURVE",
"1604 468 OFFCURVE",
"1604 731 CURVE SMOOTH",
"1604 866 OFFCURVE",
"1570 991 OFFCURVE",
"1503 1108 CURVE SMOOTH",
"1368 1341 OFFCURVE",
"1119 1483 OFFCURVE",
"852 1483 CURVE SMOOTH",
"717 1483 OFFCURVE",
"592 1449 OFFCURVE",
"475 1382 CURVE SMOOTH",
"242 1247 OFFCURVE",
"100 998 OFFCURVE",
"100 731 CURVE SMOOTH"
);
},
{
closed = 1;
nodes = (
"205 848 OFFCURVE",
"234 957 OFFCURVE",
"293 1056 CURVE SMOOTH",
"409 1254 OFFCURVE",
"620 1378 OFFCURVE",
"852 1378 CURVE SMOOTH",
"969 1378 OFFCURVE",
"1078 1349 OFFCURVE",
"1177 1291 CURVE SMOOTH",
"1375 1174 OFFCURVE",
"1499 963 OFFCURVE",
"1499 731 CURVE SMOOTH",
"1499 614 OFFCURVE",
"1470 506 OFFCURVE",
"1412 407 CURVE SMOOTH",
"1295 209 OFFCURVE",
"1084 84 OFFCURVE",
"852 84 CURVE SMOOTH",
"737 84 OFFCURVE",
"630 113 OFFCURVE",
"530 171 CURVE SMOOTH",
"329 286 OFFCURVE",
"205 500 OFFCURVE",
"205 731 CURVE SMOOTH"
);
}
);
width = 1704;
}
);
note = registered;
unicode = 00AE;
},
{
glyphname = overscore;
lastChange = "2017-04-22 20:56:27 +0000";
layers = (
{
layerId = "2E634D02-5A4A-4A55-A314-31ACA041593B";
paths = (
{
closed = 1;
nodes = (
"-6 1683 LINE",
"-6 1556 LINE",
"1030 1556 LINE",
"1030 1683 LINE"
);
}
);
width = 1024;
}
);
note = overscore;
unicode = 00AF;
},
{
glyphname = degree;
lastChange = "2017-04-22 20:56:27 +0000";
layers = (
{
layerId = "2E634D02-5A4A-4A55-A314-31ACA041593B";
paths = (
{
closed = 1;
nodes = (
"127 996 OFFCURVE",
"265 860 OFFCURVE",
"438 860 CURVE SMOOTH",
"494 860 OFFCURVE",
"546 874 OFFCURVE",
"595 902 CURVE SMOOTH",
"692 958 OFFCURVE",
"750 1059 OFFCURVE",
"750 1171 CURVE SMOOTH",
"750 1346 OFFCURVE",
"611 1483 OFFCURVE",
"438 1483 CURVE SMOOTH",
"265 1483 OFFCURVE",
"127 1344 OFFCURVE",
"127 1171 CURVE SMOOTH"
);
},
{
closed = 1;
nodes = (
"242 1282 OFFCURVE",
"329 1368 OFFCURVE",
"440 1368 CURVE SMOOTH",
"549 1368 OFFCURVE",
"635 1283 OFFCURVE",
"635 1171 CURVE SMOOTH",
"635 1060 OFFCURVE",
"547 975 OFFCURVE",
"440 975 CURVE SMOOTH",
"332 975 OFFCURVE",
"242 1062 OFFCURVE",
"242 1171 CURVE SMOOTH"
);
}
);
width = 877;
}
);
note = degree;
unicode = 00B0;
},
{
glyphname = twosuperior;
lastChange = "2017-04-22 20:56:27 +0000";
layers = (
{
layerId = "2E634D02-5A4A-4A55-A314-31ACA041593B";
paths = (
{
closed = 1;
nodes = (
"213 705 LINE",
"387 870 LINE SMOOTH",
"485 962 OFFCURVE",
"549 1033 OFFCURVE",
"579 1084 CURVE SMOOTH",
"608 1134 OFFCURVE",
"623 1186 OFFCURVE",
"623 1239 CURVE SMOOTH",
"623 1388 OFFCURVE",
"520 1481 OFFCURVE",
"344 1481 CURVE SMOOTH",
"243 1481 OFFCURVE",
"148 1444 OFFCURVE",
"61 1370 CURVE",
"127 1282 LINE",
"219 1349 OFFCURVE",
"277 1370 OFFCURVE",
"346 1370 CURVE SMOOTH",
"430 1370 OFFCURVE",
"489 1324 OFFCURVE",
"489 1233 CURVE SMOOTH",
"489 1161 OFFCURVE",
"470 1119 OFFCURVE",
"415 1055 CURVE SMOOTH",
"388 1022 OFFCURVE",
"344 977 OFFCURVE",
"285 920 CURVE SMOOTH",
"49 690 LINE",
"49 586 LINE",
"653 586 LINE",
"653 705 LINE"
);
}
);
width = 711;
}
);
note = twosuperior;
unicode = 00B2;
},
{
glyphname = threesuperior;
lastChange = "2017-04-22 20:56:27 +0000";
layers = (
{
layerId = "2E634D02-5A4A-4A55-A314-31ACA041593B";
paths = (
{
closed = 1;
nodes = (
"627 1398 OFFCURVE",
"515 1481 OFFCURVE",
"334 1481 CURVE SMOOTH",
"209 1481 OFFCURVE",
"121 1442 OFFCURVE",
"37 1382 CURVE",
"106 1292 LINE",
"181 1339 OFFCURVE",
"252 1370 OFFCURVE",
"340 1370 CURVE SMOOTH",
"429 1370 OFFCURVE",
"487 1322 OFFCURVE",
"487 1241 CURVE SMOOTH",
"487 1150 OFFCURVE",
"422 1094 OFFCURVE",
"285 1094 CURVE SMOOTH",
"166 1094 LINE",
"166 987 LINE",
"283 987 LINE SMOOTH",
"437 987 OFFCURVE",
"514 939 OFFCURVE",
"514 842 CURVE SMOOTH",
"514 734 OFFCURVE",
"444 680 OFFCURVE",
"303 680 CURVE SMOOTH",
"221 680 OFFCURVE",
"131 703 OFFCURVE",
"33 748 CURVE",
"33 625 LINE",
"110 588 OFFCURVE",
"200 569 OFFCURVE",
"301 569 CURVE SMOOTH",
"525 569 OFFCURVE",
"653 669 OFFCURVE",
"653 840 CURVE SMOOTH",
"653 948 OFFCURVE",
"594 1018 OFFCURVE",
"477 1049 CURVE",
"568 1080 OFFCURVE",
"627 1148 OFFCURVE",
"627 1255 CURVE SMOOTH"
);
}
);
width = 711;
}
);
note = threesuperior;
unicode = 00B3;
},
{
glyphname = acute;
lastChange = "2017-04-22 20:56:27 +0000";
layers = (
{
layerId = "2E634D02-5A4A-4A55-A314-31ACA041593B";
paths = (
{
closed = 1;
nodes = (
"504 1241 LINE",
"589 1310 OFFCURVE",
"727 1461 OFFCURVE",
"786 1548 CURVE",
"786 1569 LINE",
"584 1569 LINE",
"541 1482 OFFCURVE",
"457 1349 OFFCURVE",
"393 1266 CURVE",
"393 1241 LINE"
);
}
);
width = 1182;
}
);
note = acute;
unicode = 00B4;
},
{
glyphname = mu;
lastChange = "2017-04-22 20:56:27 +0000";
layers = (
{
layerId = "2E634D02-5A4A-4A55-A314-31ACA041593B";
paths = (
{
closed = 1;
nodes = (
"176 1096 LINE",
"176 -492 LINE",
"342 -492 LINE",
"342 -172 LINE SMOOTH",
"342 -65 OFFCURVE",
"339 16 OFFCURVE",
"332 72 CURVE",
"342 72 LINE",
"401 11 OFFCURVE",
"480 -20 OFFCURVE",
"580 -20 CURVE SMOOTH",
"733 -20 OFFCURVE",
"846 36 OFFCURVE",
"920 147 CURVE",
"930 147 LINE",
"956 0 LINE",
"1092 0 LINE",
"1092 1096 LINE",
"926 1096 LINE",
"926 520 LINE SMOOTH",
"926 237 OFFCURVE",
"824 119 OFFCURVE",
"596 119 CURVE SMOOTH",
"427 119 OFFCURVE",
"342 206 OFFCURVE",
"342 381 CURVE SMOOTH",
"342 1096 LINE"
);
}
);
width = 1268;
}
);
note = mu;
unicode = 00B5;
},
{
glyphname = paragraph;
lastChange = "2017-04-22 20:56:27 +0000";
layers = (
{
layerId = "2E634D02-5A4A-4A55-A314-31ACA041593B";
paths = (
{
closed = 1;
nodes = (
"563 1556 LINE SMOOTH",
"254 1556 OFFCURVE",
"113 1389 OFFCURVE",
"113 1042 CURVE SMOOTH",
"113 707 OFFCURVE",
"244 541 OFFCURVE",
"532 541 CURVE SMOOTH",
"588 541 OFFCURVE",
"637 547 OFFCURVE",
"678 559 CURVE",
"678 -260 LINE",
"793 -260 LINE",
"793 1452 LINE",
"1006 1452 LINE",
"1006 -260 LINE",
"1120 -260 LINE",
"1120 1556 LINE"
);
}
);
width = 1341;
}
);
note = paragraph;
unicode = 00B6;
},
{
glyphname = periodcentered;
lastChange = "2017-04-22 20:56:27 +0000";
layers = (
{
layerId = "2E634D02-5A4A-4A55-A314-31ACA041593B";
paths = (
{
closed = 1;
nodes = (
"152 627 OFFCURVE",
"202 588 OFFCURVE",
"270 588 CURVE SMOOTH",
"346 588 OFFCURVE",
"393 636 OFFCURVE",
"393 723 CURVE SMOOTH",
"393 811 OFFCURVE",
"347 858 OFFCURVE",
"270 858 CURVE SMOOTH",
"195 858 OFFCURVE",
"152 811 OFFCURVE",
"152 723 CURVE SMOOTH"
);
}
);
width = 545;
}
);
note = periodcentered;
unicode = 00B7;
},
{
glyphname = cedilla;
lastChange = "2017-04-22 20:56:27 +0000";
layers = (
{
layerId = "2E634D02-5A4A-4A55-A314-31ACA041593B";
paths = (
{
closed = 1;
nodes = (
"436 -199 OFFCURVE",
"376 -141 OFFCURVE",
"256 -115 CURVE",
"311 0 LINE",
"201 0 LINE",
"113 -178 LINE",
"186 -189 OFFCURVE",
"235 -204 OFFCURVE",
"262 -221 CURVE",
"288 -239 OFFCURVE",
"301 -262 OFFCURVE",
"301 -291 CURVE SMOOTH",
"301 -363 OFFCURVE",
"246 -385 OFFCURVE",
"141 -385 CURVE SMOOTH",
"102 -385 OFFCURVE",
"67 -382 OFFCURVE",
"37 -377 CURVE",
"37 -483 LINE",
"67 -489 OFFCURVE",
"99 -492 OFFCURVE",
"133 -492 CURVE SMOOTH",
"333 -492 OFFCURVE",
"436 -418 OFFCURVE",
"436 -289 CURVE SMOOTH"
);
}
);
width = 465;
}
);
note = cedilla;
unicode = 00B8;
},
{
glyphname = onesuperior;
lastChange = "2017-04-22 20:56:27 +0000";
layers = (
{
layerId = "2E634D02-5A4A-4A55-A314-31ACA041593B";
paths = (
{
closed = 1;
nodes = (
"143 1184 LINE",
"233 1247 OFFCURVE",
"287 1287 OFFCURVE",
"305 1302 CURVE SMOOTH",
"323 1317 OFFCURVE",
"339 1331 OFFCURVE",
"354 1346 CURVE",
"350 1286 OFFCURVE",
"348 1226 OFFCURVE",
"348 1165 CURVE SMOOTH",
"348 586 LINE",
"481 586 LINE",
"481 1462 LINE",
"338 1462 LINE",
"76 1280 LINE"
);
}
);
width = 711;
}
);
note = onesuperior;
unicode = 00B9;
},
{
glyphname = ordmasculine;
lastChange = "2017-04-22 20:56:27 +0000";
layers = (
{
layerId = "2E634D02-5A4A-4A55-A314-31ACA041593B";
paths = (
{
closed = 1;
nodes = (
"702 1351 OFFCURVE",
"588 1479 OFFCURVE",
"385 1479 CURVE SMOOTH",
"184 1479 OFFCURVE",
"66 1352 OFFCURVE",
"66 1135 CURVE SMOOTH",
"66 920 OFFCURVE",
"186 788 OFFCURVE",
"381 788 CURVE SMOOTH",
"581 788 OFFCURVE",
"702 916 OFFCURVE",
"702 1135 CURVE SMOOTH"
);
},
{
closed = 1;
nodes = (
"188 1299 OFFCURVE",
"246 1376 OFFCURVE",
"383 1376 CURVE SMOOTH",
"523 1376 OFFCURVE",
"580 1299 OFFCURVE",
"580 1135 CURVE SMOOTH",
"580 972 OFFCURVE",
"523 891 OFFCURVE",
"383 891 CURVE SMOOTH",
"244 891 OFFCURVE",
"188 972 OFFCURVE",
"188 1135 CURVE SMOOTH"
);
}
);
width = 768;
}
);
note = ordmasculine;
unicode = 00BA;
},
{
glyphname = guillemotright;
lastChange = "2017-04-22 20:56:27 +0000";
layers = (
{
layerId = "2E634D02-5A4A-4A55-A314-31ACA041593B";
paths = (
{
closed = 1;
nodes = (
"592 958 LINE",
"475 889 LINE",
"762 539 LINE",
"475 188 LINE",
"592 117 LINE",
"936 524 LINE",
"936 551 LINE"
);
},
{
closed = 1;
nodes = (
"197 958 LINE",
"80 889 LINE",
"367 539 LINE",
"80 188 LINE",
"197 117 LINE",
"541 524 LINE",
"541 551 LINE"
);
}
);
width = 1018;
}
);
note = guillemotright;
unicode = 00BB;
},
{
glyphname = onequarter;
lastChange = "2017-04-23 06:02:58 +0000";
layers = (
{
layerId = "2E634D02-5A4A-4A55-A314-31ACA041593B";
paths = (
{
closed = 1;
nodes = (
"312 0 LINE",
"455 0 LINE",
"1358 1462 LINE",
"1215 1462 LINE"
);
},
{
closed = 1;
nodes = (
"229 1184 LINE",
"319 1247 OFFCURVE",
"373 1287 OFFCURVE",
"391 1302 CURVE SMOOTH",
"409 1317 OFFCURVE",
"425 1331 OFFCURVE",
"440 1346 CURVE",
"436 1286 OFFCURVE",
"434 1226 OFFCURVE",
"434 1165 CURVE SMOOTH",
"434 586 LINE",
"567 586 LINE",
"567 1462 LINE",
"424 1462 LINE",
"162 1280 LINE"
);
},
{
closed = 1;
nodes = (
"1350 319 LINE",
"1350 882 LINE",
"1211 882 LINE",
"803 303 LINE",
"803 202 LINE",
"1205 202 LINE",
"1205 0 LINE",
"1350 0 LINE",
"1350 202 LINE",
"1475 202 LINE",
"1475 319 LINE"
);
},
{
closed = 1;
nodes = (
"1111 565 LINE SMOOTH",
"1118 576 OFFCURVE",
"1127 590 OFFCURVE",
"1137 605 CURVE SMOOTH",
"1147 620 OFFCURVE",
"1157 635 OFFCURVE",
"1167 650 CURVE SMOOTH",
"1187 680 OFFCURVE",
"1204 707 OFFCURVE",
"1211 723 CURVE",
"1207 673 OFFCURVE",
"1205 603 OFFCURVE",
"1205 514 CURVE SMOOTH",
"1205 319 LINE",
"943 319 LINE"
);
}
);
width = 1688;
}
);
note = onequarter;
unicode = 00BC;
},
{
glyphname = onehalf;
lastChange = "2017-04-23 06:03:40 +0000";
layers = (
{
layerId = "2E634D02-5A4A-4A55-A314-31ACA041593B";
paths = (
{
closed = 1;
nodes = (
"239 0 LINE",
"382 0 LINE",
"1285 1462 LINE",
"1142 1462 LINE"
);
},
{
closed = 1;
nodes = (
"148 1184 LINE",
"238 1247 OFFCURVE",
"292 1287 OFFCURVE",
"310 1302 CURVE SMOOTH",
"328 1317 OFFCURVE",
"344 1331 OFFCURVE",
"359 1346 CURVE",
"355 1286 OFFCURVE",
"353 1226 OFFCURVE",
"353 1165 CURVE SMOOTH",
"353 586 LINE",
"486 586 LINE",
"486 1462 LINE",
"343 1462 LINE",
"81 1280 LINE"
);
},
{
closed = 1;
nodes = (
"1120 119 LINE",
"1294 284 LINE SMOOTH",
"1392 376 OFFCURVE",
"1456 447 OFFCURVE",
"1486 498 CURVE SMOOTH",
"1515 548 OFFCURVE",
"1530 600 OFFCURVE",
"1530 653 CURVE SMOOTH",
"1530 802 OFFCURVE",
"1427 895 OFFCURVE",
"1251 895 CURVE SMOOTH",
"1150 895 OFFCURVE",
"1055 858 OFFCURVE",
"968 784 CURVE",
"1034 696 LINE",
"1126 763 OFFCURVE",
"1184 784 OFFCURVE",
"1253 784 CURVE SMOOTH",
"1337 784 OFFCURVE",
"1396 738 OFFCURVE",
"1396 647 CURVE SMOOTH",
"1396 575 OFFCURVE",
"1378 533 OFFCURVE",
"1322 469 CURVE SMOOTH",
"1294 437 OFFCURVE",
"1251 391 OFFCURVE",
"1192 334 CURVE SMOOTH",
"956 104 LINE",
"956 0 LINE",
"1560 0 LINE",
"1560 119 LINE"
);
}
);
width = 1688;
}
);
note = onehalf;
unicode = 00BD;
},
{
glyphname = threequarters;
lastChange = "2017-04-23 06:04:15 +0000";
layers = (
{
layerId = "2E634D02-5A4A-4A55-A314-31ACA041593B";
paths = (
{
closed = 1;
nodes = (
"706 1398 OFFCURVE",
"594 1481 OFFCURVE",
"413 1481 CURVE SMOOTH",
"288 1481 OFFCURVE",
"200 1442 OFFCURVE",
"116 1382 CURVE",
"185 1292 LINE",
"260 1339 OFFCURVE",
"331 1370 OFFCURVE",
"419 1370 CURVE SMOOTH",
"508 1370 OFFCURVE",
"566 1322 OFFCURVE",
"566 1241 CURVE SMOOTH",
"566 1150 OFFCURVE",
"501 1094 OFFCURVE",
"364 1094 CURVE SMOOTH",
"245 1094 LINE",
"245 987 LINE",
"362 987 LINE SMOOTH",
"516 987 OFFCURVE",
"593 939 OFFCURVE",
"593 842 CURVE SMOOTH",
"593 734 OFFCURVE",
"523 680 OFFCURVE",
"382 680 CURVE SMOOTH",
"300 680 OFFCURVE",
"210 703 OFFCURVE",
"112 748 CURVE",
"112 625 LINE",
"189 588 OFFCURVE",
"279 569 OFFCURVE",
"380 569 CURVE SMOOTH",
"604 569 OFFCURVE",
"732 669 OFFCURVE",
"732 840 CURVE SMOOTH",
"732 948 OFFCURVE",
"673 1018 OFFCURVE",
"556 1049 CURVE",
"647 1080 OFFCURVE",
"706 1148 OFFCURVE",
"706 1255 CURVE SMOOTH"
);
},
{
closed = 1;
nodes = (
"409 0 LINE",
"552 0 LINE",
"1455 1462 LINE",
"1312 1462 LINE"
);
},
{
closed = 1;
nodes = (
"1451 319 LINE",
"1451 882 LINE",
"1312 882 LINE",
"904 303 LINE",
"904 202 LINE",
"1306 202 LINE",
"1306 0 LINE",
"1451 0 LINE",
"1451 202 LINE",
"1576 202 LINE",
"1576 319 LINE"
);
},
{
closed = 1;
nodes = (
"1212 565 LINE SMOOTH",
"1219 576 OFFCURVE",
"1228 590 OFFCURVE",
"1238 605 CURVE SMOOTH",
"1248 620 OFFCURVE",
"1258 635 OFFCURVE",
"1268 650 CURVE SMOOTH",
"1288 680 OFFCURVE",
"1305 707 OFFCURVE",
"1312 723 CURVE",
"1308 673 OFFCURVE",
"1306 603 OFFCURVE",
"1306 514 CURVE SMOOTH",
"1306 319 LINE",
"1044 319 LINE"
);
}
);
width = 1688;
}
);
note = threequarters;
unicode = 00BE;
},
{
glyphname = questiondown;
lastChange = "2017-04-22 20:56:27 +0000";
layers = (
{
layerId = "2E634D02-5A4A-4A55-A314-31ACA041593B";
paths = (
{
closed = 1;
nodes = (
"459 653 LINE SMOOTH",
"459 529 OFFCURVE",
"428 473 OFFCURVE",
"293 356 CURVE SMOOTH",
"221 293 OFFCURVE",
"161 242 OFFCURVE",
"118 183 CURVE SMOOTH",
"75 123 OFFCURVE",
"51 56 OFFCURVE",
"51 -37 CURVE SMOOTH",
"51 -264 OFFCURVE",
"204 -393 OFFCURVE",
"457 -393 CURVE SMOOTH",
"589 -393 OFFCURVE",
"721 -361 OFFCURVE",
"852 -297 CURVE",
"793 -162 LINE",
"662 -226 OFFCURVE",
"572 -248 OFFCURVE",
"465 -248 CURVE SMOOTH",
"302 -248 OFFCURVE",
"211 -168 OFFCURVE",
"211 -35 CURVE SMOOTH",
"211 40 OFFCURVE",
"226 86 OFFCURVE",
"267 136 CURVE SMOOTH",
"287 161 OFFCURVE",
"337 208 OFFCURVE",
"418 279 CURVE SMOOTH",
"547 391 OFFCURVE",
"590 470 OFFCURVE",
"590 633 CURVE SMOOTH",
"590 684 LINE",
"459 684 LINE"
);
},
{
closed = 1;
nodes = (
"639 1078 OFFCURVE",
"586 1118 OFFCURVE",
"518 1118 CURVE SMOOTH",
"445 1118 OFFCURVE",
"397 1068 OFFCURVE",
"397 983 CURVE SMOOTH",
"397 895 OFFCURVE",
"439 848 OFFCURVE",
"518 848 CURVE SMOOTH",
"599 848 OFFCURVE",
"639 893 OFFCURVE",
"639 983 CURVE SMOOTH"
);
}
);
width = 879;
}
);
note = questiondown;
unicode = 00BF;
},
{
glyphname = AE;
lastChange = "2017-05-07 23:59:40 +0000";
layers = (
{
anchors = (
{
name = bottom;
position = "{894, 0}";
},
{
name = top;
position = "{894, 1462}";
}
);
layerId = "2E634D02-5A4A-4A55-A314-31ACA041593B";
paths = (
{
closed = 1;
nodes = (
"1085 152 LINE",
"1085 690 LINE",
"1626 690 LINE",
"1626 840 LINE",
"1085 840 LINE",
"1085 1311 LINE",
"1665 1311 LINE",
"1665 1462 LINE",
"696 1462 LINE",
"-2 0 LINE",
"174 0 LINE",
"401 465 LINE",
"915 465 LINE",
"915 0 LINE",
"1665 0 LINE",
"1665 152 LINE"
);
},
{
closed = 1;
nodes = (
"915 1311 LINE",
"915 618 LINE",
"469 618 LINE",
"797 1311 LINE"
);
}
);
width = 1788;
}
);
note = AE;
unicode = 00C6;
},
{
glyphname = Eth;
lastChange = "2017-04-22 20:56:27 +0000";
layers = (
{
layerId = "2E634D02-5A4A-4A55-A314-31ACA041593B";
paths = (
{
closed = 1;
nodes = (
"1352 1201 OFFCURVE",
"1084 1462 OFFCURVE",
"635 1462 CURVE SMOOTH",
"201 1462 LINE",
"201 799 LINE",
"47 799 LINE",
"47 649 LINE",
"201 649 LINE",
"201 0 LINE",
"590 0 LINE SMOOTH",
"1082 0 OFFCURVE",
"1352 262 OFFCURVE",
"1352 745 CURVE SMOOTH"
);
},
{
closed = 1;
nodes = (
"1171 344 OFFCURVE",
"968 147 OFFCURVE",
"561 147 CURVE SMOOTH",
"371 147 LINE",
"371 649 LINE",
"750 649 LINE",
"750 799 LINE",
"371 799 LINE",
"371 1315 LINE",
"602 1315 LINE SMOOTH",
"981 1315 OFFCURVE",
"1171 1123 OFFCURVE",
"1171 739 CURVE SMOOTH"
);
}
);
width = 1479;
}
);
note = Eth;
unicode = 00D0;
},
{
glyphname = multiply;
lastChange = "2017-04-22 20:56:27 +0000";
layers = (
{
layerId = "2E634D02-5A4A-4A55-A314-31ACA041593B";
paths = (
{
closed = 1;
nodes = (
"233 1176 LINE",
"133 1075 LINE",
"485 723 LINE",
"135 371 LINE",
"236 272 LINE",
"584 623 LINE",
"938 272 LINE",
"1034 371 LINE",
"684 723 LINE",
"1036 1077 LINE",
"940 1176 LINE",
"586 821 LINE"
);
}
);
width = 1171;
}
);
note = multiply;
unicode = 00D7;
},
{
glyphname = Oslash;
lastChange = "2017-05-07 23:59:40 +0000";
layers = (
{
anchors = (
{
name = bottom;
position = "{798, 0}";
},
{
name = top;
position = "{798, 1462}";
}
);
layerId = "2E634D02-5A4A-4A55-A314-31ACA041593B";
paths = (
{
closed = 1;
nodes = (
"1470 975 OFFCURVE",
"1406 1163 OFFCURVE",
"1278 1298 CURVE",
"1384 1446 LINE",
"1264 1526 LINE",
"1167 1391 LINE",
"1062 1454 OFFCURVE",
"940 1485 OFFCURVE",
"801 1485 CURVE SMOOTH",
"369 1485 OFFCURVE",
"125 1211 OFFCURVE",
"125 735 CURVE SMOOTH",
"125 492 OFFCURVE",
"184 304 OFFCURVE",
"303 172 CURVE",
"195 18 LINE",
"315 -61 LINE",
"416 80 LINE",
"515 13 OFFCURVE",
"642 -20 OFFCURVE",
"799 -20 CURVE SMOOTH",
"1220 -20 OFFCURVE",
"1470 265 OFFCURVE",
"1470 733 CURVE SMOOTH"
);
},
{
closed = 1;
nodes = (
"1290 336 OFFCURVE",
"1123 129 OFFCURVE",
"799 129 CURVE SMOOTH",
"682 129 OFFCURVE",
"585 156 OFFCURVE",
"508 211 CURVE",
"1180 1159 LINE",
"1253 1056 OFFCURVE",
"1290 914 OFFCURVE",
"1290 733 CURVE SMOOTH"
);
},
{
closed = 1;
nodes = (
"305 1124 OFFCURVE",
"477 1333 OFFCURVE",
"801 1333 CURVE SMOOTH",
"913 1333 OFFCURVE",
"1004 1309 OFFCURVE",
"1075 1260 CURVE",
"406 317 LINE",
"339 420 OFFCURVE",
"305 558 OFFCURVE",
"305 733 CURVE SMOOTH"
);
}
);
width = 1595;
}
);
note = Oslash;
unicode = 00D8;
},
{
glyphname = Thorn;
lastChange = "2017-05-07 23:59:40 +0000";
layers = (
{
anchors = (
{
name = bottom;
position = "{626, 0}";
},
{
name = top;
position = "{626, 1462}";
}
);
layerId = "2E634D02-5A4A-4A55-A314-31ACA041593B";
paths = (
{
closed = 1;
nodes = (
"1145 1071 OFFCURVE",
"961 1206 OFFCURVE",
"586 1206 CURVE SMOOTH",
"371 1206 LINE",
"371 1462 LINE",
"201 1462 LINE",
"201 0 LINE",
"371 0 LINE",
"371 319 LINE",
"555 319 LINE SMOOTH",
"938 319 OFFCURVE",
"1145 481 OFFCURVE",
"1145 784 CURVE SMOOTH"
);
},
{
closed = 1;
nodes = (
"575 1059 LINE SMOOTH",
"844 1059 OFFCURVE",
"967 971 OFFCURVE",
"967 772 CURVE SMOOTH",
"967 553 OFFCURVE",
"840 465 OFFCURVE",
"539 465 CURVE SMOOTH",
"371 465 LINE",
"371 1059 LINE"
);
}
);
width = 1251;
}
);
note = Thorn;
unicode = 00DE;
},
{
glyphname = germandbls;
lastChange = "2017-05-07 23:59:40 +0000";
layers = (
{
anchors = (
{
name = bottom;
position = "{637, 0}";
},
{
name = top;
position = "{637, 1096}";
}
);
layerId = "2E634D02-5A4A-4A55-A314-31ACA041593B";
paths = (
{
closed = 1;
nodes = (
"1049 1458 OFFCURVE",
"893 1567 OFFCURVE",
"618 1567 CURVE SMOOTH",
"322 1567 OFFCURVE",
"176 1439 OFFCURVE",
"176 1202 CURVE SMOOTH",
"176 0 LINE",
"342 0 LINE",
"342 1204 LINE SMOOTH",
"342 1353 OFFCURVE",
"434 1427 OFFCURVE",
"618 1427 CURVE SMOOTH",
"787 1427 OFFCURVE",
"881 1369 OFFCURVE",
"881 1262 CURVE SMOOTH",
"881 1191 OFFCURVE",
"842 1138 OFFCURVE",
"742 1062 CURVE SMOOTH",
"647 991 OFFCURVE",
"602 924 OFFCURVE",
"602 840 CURVE SMOOTH",
"602 728 OFFCURVE",
"656 660 OFFCURVE",
"825 551 CURVE SMOOTH",
"972 458 OFFCURVE",
"1018 399 OFFCURVE",
"1018 299 CURVE SMOOTH",
"1018 178 OFFCURVE",
"946 117 OFFCURVE",
"803 117 CURVE SMOOTH",
"707 117 OFFCURVE",
"596 151 OFFCURVE",
"512 203 CURVE",
"512 49 LINE",
"583 3 OFFCURVE",
"682 -20 OFFCURVE",
"807 -20 CURVE SMOOTH",
"1046 -20 OFFCURVE",
"1180 98 OFFCURVE",
"1180 311 CURVE SMOOTH",
"1180 446 OFFCURVE",
"1125 537 OFFCURVE",
"938 664 CURVE SMOOTH",
"886 698 OFFCURVE",
"848 725 OFFCURVE",
"825 744 CURVE SMOOTH",
"777 782 OFFCURVE",
"762 803 OFFCURVE",
"762 846 CURVE SMOOTH",
"762 868 OFFCURVE",
"771 890 OFFCURVE",
"790 913 CURVE SMOOTH",
"809 935 OFFCURVE",
"847 969 OFFCURVE",
"906 1016 CURVE SMOOTH",
"1001 1093 OFFCURVE",
"1049 1176 OFFCURVE",
"1049 1266 CURVE SMOOTH"
);
}
);
width = 1274;
}
);
note = germandbls;
unicode = 00DF;
},
{
glyphname = ae;
lastChange = "2017-05-07 23:59:40 +0000";
layers = (
{
anchors = (
{
name = bottom;
position = "{879, 0}";
},
{
name = top;
position = "{879, 1096}";
}
);
layerId = "2E634D02-5A4A-4A55-A314-31ACA041593B";
paths = (
{
closed = 1;
nodes = (
"94 99 OFFCURVE",
"225 -20 OFFCURVE",
"442 -20 CURVE SMOOTH",
"621 -20 OFFCURVE",
"746 44 OFFCURVE",
"854 213 CURVE",
"937 58 OFFCURVE",
"1075 -20 OFFCURVE",
"1268 -20 CURVE SMOOTH",
"1403 -20 OFFCURVE",
"1489 0 OFFCURVE",
"1604 51 CURVE",
"1604 199 LINE",
"1492 147 OFFCURVE",
"1393 125 OFFCURVE",
"1272 125 CURVE SMOOTH",
"1063 125 OFFCURVE",
"955 257 OFFCURVE",
"950 520 CURVE",
"1651 520 LINE",
"1651 627 LINE SMOOTH",
"1651 923 OFFCURVE",
"1483 1116 OFFCURVE",
"1227 1116 CURVE SMOOTH",
"1080 1116 OFFCURVE",
"964 1049 OFFCURVE",
"893 932 CURVE",
"838 1059 OFFCURVE",
"730 1114 OFFCURVE",
"557 1114 CURVE SMOOTH",
"426 1114 OFFCURVE",
"285 1075 OFFCURVE",
"186 1020 CURVE",
"238 893 LINE",
"347 949 OFFCURVE",
"449 977 OFFCURVE",
"545 977 CURVE SMOOTH",
"704 977 OFFCURVE",
"780 897 OFFCURVE",
"780 725 CURVE SMOOTH",
"780 657 LINE",
"596 651 LINE SMOOTH",
"257 640 OFFCURVE",
"94 518 OFFCURVE",
"94 303 CURVE SMOOTH"
);
},
{
closed = 1;
nodes = (
"268 453 OFFCURVE",
"370 521 OFFCURVE",
"618 532 CURVE SMOOTH",
"776 539 LINE",
"776 440 LINE SMOOTH",
"776 235 OFFCURVE",
"656 117 OFFCURVE",
"463 117 CURVE SMOOTH",
"346 117 OFFCURVE",
"268 174 OFFCURVE",
"268 301 CURVE SMOOTH"
);
},
{
closed = 1;
nodes = (
"1385 977 OFFCURVE",
"1473 861 OFFCURVE",
"1473 653 CURVE",
"954 653 LINE",
"969 864 OFFCURVE",
"1064 977 OFFCURVE",
"1225 977 CURVE SMOOTH"
);
}
);
width = 1757;
}
);
note = ae;
unicode = 00E6;
},
{
glyphname = eth;
lastChange = "2017-04-22 20:56:27 +0000";
layers = (
{
layerId = "2E634D02-5A4A-4A55-A314-31ACA041593B";
paths = (
{
closed = 1;
nodes = (
"1122 868 OFFCURVE",
"1008 1142 OFFCURVE",
"805 1333 CURVE",
"1012 1452 LINE",
"936 1559 LINE",
"698 1421 LINE",
"630 1471 OFFCURVE",
"544 1520 OFFCURVE",
"440 1569 CURVE",
"371 1452 LINE",
"434 1419 OFFCURVE",
"496 1382 OFFCURVE",
"557 1341 CURVE",
"324 1208 LINE",
"397 1100 LINE",
"668 1255 LINE",
"805 1128 OFFCURVE",
"892 993 OFFCURVE",
"930 850 CURVE",
"922 846 LINE",
"855 927 OFFCURVE",
"747 967 OFFCURVE",
"596 967 CURVE SMOOTH",
"303 967 OFFCURVE",
"113 782 OFFCURVE",
"113 475 CURVE SMOOTH",
"113 174 OFFCURVE",
"318 -20 OFFCURVE",
"614 -20 CURVE SMOOTH",
"943 -20 OFFCURVE",
"1122 188 OFFCURVE",
"1122 563 CURVE SMOOTH"
);
},
{
closed = 1;
nodes = (
"954 256 OFFCURVE",
"851 119 OFFCURVE",
"618 119 CURVE SMOOTH",
"402 119 OFFCURVE",
"281 246 OFFCURVE",
"281 469 CURVE SMOOTH",
"281 709 OFFCURVE",
"393 829 OFFCURVE",
"618 829 CURVE SMOOTH",
"826 829 OFFCURVE",
"954 708 OFFCURVE",
"954 512 CURVE SMOOTH"
);
}
);
width = 1221;
}
);
note = eth;
unicode = 00F0;
},
{
glyphname = divide;
lastChange = "2017-04-22 20:56:27 +0000";
layers = (
{
layerId = "2E634D02-5A4A-4A55-A314-31ACA041593B";
paths = (
{
closed = 1;
nodes = (
"1065 791 LINE",
"104 791 LINE",
"104 653 LINE",
"1065 653 LINE"
);
},
{
closed = 1;
nodes = (
"471 296 OFFCURVE",
"515 252 OFFCURVE",
"584 252 CURVE SMOOTH",
"652 252 OFFCURVE",
"694 297 OFFCURVE",
"694 373 CURVE SMOOTH",
"694 450 OFFCURVE",
"653 494 OFFCURVE",
"584 494 CURVE SMOOTH",
"512 494 OFFCURVE",
"471 453 OFFCURVE",
"471 373 CURVE SMOOTH"
);
},
{
closed = 1;
nodes = (
"471 994 OFFCURVE",
"515 950 OFFCURVE",
"584 950 CURVE SMOOTH",
"652 950 OFFCURVE",
"694 995 OFFCURVE",
"694 1071 CURVE SMOOTH",
"694 1148 OFFCURVE",
"653 1192 OFFCURVE",
"584 1192 CURVE SMOOTH",
"512 1192 OFFCURVE",
"471 1151 OFFCURVE",
"471 1071 CURVE SMOOTH"
);
}
);
width = 1171;
}
);
note = divide;
unicode = 00F7;
},
{
glyphname = oslash;
lastChange = "2017-05-07 23:59:40 +0000";
layers = (
{
anchors = (
{
name = top;
position = "{619, 1096}";
}
);
layerId = "2E634D02-5A4A-4A55-A314-31ACA041593B";
paths = (
{
closed = 1;
nodes = (
"1122 715 OFFCURVE",
"1080 849 OFFCURVE",
"995 950 CURVE",
"1092 1083 LINE",
"975 1159 LINE",
"891 1040 LINE",
"814 1091 OFFCURVE",
"724 1116 OFFCURVE",
"621 1116 CURVE SMOOTH",
"304 1116 OFFCURVE",
"115 906 OFFCURVE",
"115 549 CURVE SMOOTH",
"115 378 OFFCURVE",
"158 242 OFFCURVE",
"244 141 CURVE",
"150 10 LINE",
"264 -68 LINE",
"348 49 LINE",
"423 3 OFFCURVE",
"511 -20 OFFCURVE",
"614 -20 CURVE SMOOTH",
"931 -20 OFFCURVE",
"1122 192 OFFCURVE",
"1122 549 CURVE SMOOTH"
);
},
{
closed = 1;
nodes = (
"287 832 OFFCURVE",
"399 975 OFFCURVE",
"616 975 CURVE SMOOTH",
"692 975 OFFCURVE",
"755 957 OFFCURVE",
"805 922 CURVE",
"340 276 LINE",
"305 344 OFFCURVE",
"287 435 OFFCURVE",
"287 549 CURVE SMOOTH"
);
},
{
closed = 1;
nodes = (
"950 268 OFFCURVE",
"835 119 OFFCURVE",
"618 119 CURVE SMOOTH",
"543 119 OFFCURVE",
"481 136 OFFCURVE",
"434 170 CURVE",
"899 813 LINE",
"933 746 OFFCURVE",
"950 658 OFFCURVE",
"950 549 CURVE SMOOTH"
);
}
);
width = 1237;
}
);
note = oslash;
unicode = 00F8;
},
{
glyphname = thorn;
lastChange = "2017-05-07 23:59:40 +0000";
layers = (
{
anchors = (
{
name = bottom;
position = "{628, 0}";
},
{
name = top;
position = "{628, 1096}";
}
);
layerId = "2E634D02-5A4A-4A55-A314-31ACA041593B";
paths = (
{
closed = 1;
nodes = (
"340 1008 OFFCURVE",
"342 1055 OFFCURVE",
"342 1090 CURVE SMOOTH",
"342 1556 LINE",
"176 1556 LINE",
"176 -492 LINE",
"342 -492 LINE",
"342 -33 LINE SMOOTH",
"342 9 OFFCURVE",
"339 56 OFFCURVE",
"334 107 CURVE SMOOTH",
"330 141 LINE",
"342 141 LINE",
"423 34 OFFCURVE",
"538 -20 OFFCURVE",
"686 -20 CURVE SMOOTH",
"971 -20 OFFCURVE",
"1141 192 OFFCURVE",
"1141 549 CURVE SMOOTH",
"1141 905 OFFCURVE",
"973 1116 OFFCURVE",
"686 1116 CURVE SMOOTH",
"545 1116 OFFCURVE",
"432 1067 OFFCURVE",
"344 948 CURVE",
"336 948 LINE"
);
},
{
closed = 1;
nodes = (
"873 975 OFFCURVE",
"969 838 OFFCURVE",
"969 551 CURVE SMOOTH",
"969 263 OFFCURVE",
"868 119 OFFCURVE",
"666 119 CURVE SMOOTH",
"439 119 OFFCURVE",
"342 241 OFFCURVE",
"342 549 CURVE SMOOTH",
"342 590 LINE SMOOTH",
"345 858 OFFCURVE",
"440 975 OFFCURVE",
"664 975 CURVE SMOOTH"
);
}
);
width = 1255;
}
);
note = thorn;
unicode = 00FE;
},
{
glyphname = dcroat;
lastChange = "2017-04-22 20:56:27 +0000";
layers = (
{
layerId = "2E634D02-5A4A-4A55-A314-31ACA041593B";
paths = (
{
closed = 1;
nodes = (
"1079 0 LINE",
"1079 1243 LINE",
"1235 1243 LINE",
"1235 1372 LINE",
"1079 1372 LINE",
"1079 1556 LINE",
"913 1556 LINE",
"913 1372 LINE",
"465 1372 LINE",
"465 1243 LINE",
"913 1243 LINE",
"913 1110 LINE SMOOTH",
"913 1061 OFFCURVE",
"917 1009 OFFCURVE",
"924 954 CURVE",
"911 954 LINE",
"832 1062 OFFCURVE",
"718 1116 OFFCURVE",
"569 1116 CURVE SMOOTH",
"284 1116 OFFCURVE",
"115 906 OFFCURVE",
"115 545 CURVE SMOOTH",
"115 184 OFFCURVE",
"282 -20 OFFCURVE",
"569 -20 CURVE SMOOTH",
"722 -20 OFFCURVE",
"836 36 OFFCURVE",
"913 147 CURVE",
"922 147 LINE",
"944 0 LINE"
);
},
{
closed = 1;
nodes = (
"391 119 OFFCURVE",
"287 263 OFFCURVE",
"287 543 CURVE SMOOTH",
"287 819 OFFCURVE",
"393 977 OFFCURVE",
"588 977 CURVE SMOOTH",
"815 977 OFFCURVE",
"913 856 OFFCURVE",
"913 545 CURVE SMOOTH",
"913 510 LINE SMOOTH",
"913 235 OFFCURVE",
"817 119 OFFCURVE",
"590 119 CURVE SMOOTH"
);
}
);
width = 1255;
}
);
note = dcroat;
unicode = 0111;
},
{
glyphname = Hbar;
lastChange = "2017-04-22 20:56:27 +0000";
layers = (
{
layerId = "2E634D02-5A4A-4A55-A314-31ACA041593B";
paths = (
{
closed = 1;
nodes = (
"0 1073 LINE",
"201 1073 LINE",
"201 0 LINE",
"371 0 LINE",
"371 688 LINE",
"1141 688 LINE",
"1141 0 LINE",
"1311 0 LINE",
"1311 1073 LINE",
"1511 1073 LINE",
"1511 1214 LINE",
"1311 1214 LINE",
"1311 1462 LINE",
"1141 1462 LINE",
"1141 1214 LINE",
"371 1214 LINE",
"371 1462 LINE",
"201 1462 LINE",
"201 1214 LINE",
"0 1214 LINE"
);
},
{
closed = 1;
nodes = (
"371 1073 LINE",
"1141 1073 LINE",
"1141 840 LINE",
"371 840 LINE"
);
}
);
width = 1511;
}
);
note = Hbar;
unicode = 0126;
},
{
glyphname = hbar;
lastChange = "2017-04-22 20:56:27 +0000";
layers = (
{
layerId = "2E634D02-5A4A-4A55-A314-31ACA041593B";
paths = (
{
closed = 1;
nodes = (
"1092 676 LINE SMOOTH",
"1092 956 OFFCURVE",
"958 1077 OFFCURVE",
"690 1077 CURVE SMOOTH",
"535 1077 OFFCURVE",
"409 1012 OFFCURVE",
"344 907 CURVE",
"334 907 LINE",
"339 944 OFFCURVE",
"342 991 OFFCURVE",
"342 1047 CURVE SMOOTH",
"342 1243 LINE",
"791 1243 LINE",
"791 1370 LINE",
"342 1370 LINE",
"342 1556 LINE",
"176 1556 LINE",
"176 1370 LINE",
"20 1370 LINE",
"20 1243 LINE",
"176 1243 LINE",
"176 0 LINE",
"342 0 LINE",
"342 537 LINE SMOOTH",
"342 821 OFFCURVE",
"442 936 OFFCURVE",
"674 936 CURVE SMOOTH",
"847 936 OFFCURVE",
"926 849 OFFCURVE",
"926 670 CURVE SMOOTH",
"926 0 LINE",
"1092 0 LINE"
);
}
);
width = 1257;
}
);
note = hbar;
unicode = 0127;
},
{
glyphname = dotlessi;
lastChange = "2017-05-07 23:59:40 +0000";
layers = (
{
anchors = (
{
name = bottom;
position = "{259, 0}";
},
{
name = ogonek;
position = "{466, 10}";
},
{
name = top;
position = "{259, 1096}";
}
);
layerId = "2E634D02-5A4A-4A55-A314-31ACA041593B";
paths = (
{
closed = 1;
nodes = (
"176 1096 LINE",
"176 0 LINE",
"342 0 LINE",
"342 1096 LINE"
);
}
);
width = 518;
}
);
note = dotlessi;
unicode = 0131;
},
{
glyphname = kgreenlandic;
lastChange = "2017-05-07 23:59:40 +0000";
layers = (
{
anchors = (
{
name = bottom;
position = "{531, 0}";
},
{
name = top;
position = "{531, 1096}";
}
);
layerId = "2E634D02-5A4A-4A55-A314-31ACA041593B";
paths = (
{
closed = 1;
nodes = (
"350 607 OFFCURVE",
"354 700 OFFCURVE",
"354 811 CURVE SMOOTH",
"354 1094 LINE",
"176 1094 LINE",
"176 0 LINE",
"354 0 LINE",
"354 391 LINE",
"489 504 LINE",
"850 0 LINE",
"1051 0 LINE",
"608 612 LINE",
"1022 1094 LINE",
"815 1094 LINE",
"342 532 LINE"
);
}
);
width = 1061;
}
);
note = kgreenlandic;
unicode = 0138;
},
{
glyphname = Lslash;
lastChange = "2017-04-22 20:56:27 +0000";
layers = (
{
layerId = "2E634D02-5A4A-4A55-A314-31ACA041593B";
paths = (
{
closed = 1;
nodes = (
"1016 154 LINE",
"371 154 LINE",
"371 606 LINE",
"735 817 LINE",
"668 938 LINE",
"371 764 LINE",
"371 1462 LINE",
"201 1462 LINE",
"201 664 LINE",
"29 563 LINE",
"96 449 LINE",
"201 508 LINE",
"201 0 LINE",
"1016 0 LINE"
);
}
);
width = 1071;
}
);
note = Lslash;
unicode = 0141;
},
{
glyphname = lslash;
lastChange = "2017-04-22 20:56:27 +0000";
layers = (
{
layerId = "2E634D02-5A4A-4A55-A314-31ACA041593B";
paths = (
{
closed = 1;
nodes = (
"176 1556 LINE",
"176 756 LINE",
"-4 637 LINE",
"66 524 LINE",
"176 596 LINE",
"176 0 LINE",
"342 0 LINE",
"342 705 LINE",
"551 846 LINE",
"479 958 LINE",
"342 864 LINE",
"342 1556 LINE"
);
}
);
width = 535;
}
);
note = lslash;
unicode = 0142;
},
{
glyphname = Eng;
lastChange = "2017-04-22 20:56:27 +0000";
layers = (
{
layerId = "2E634D02-5A4A-4A55-A314-31ACA041593B";
paths = (
{
closed = 1;
nodes = (
"1210 -385 OFFCURVE",
"1343 -246 OFFCURVE",
"1343 14 CURVE SMOOTH",
"1343 1462 LINE",
"1184 1462 LINE",
"1184 633 LINE SMOOTH",
"1184 484 OFFCURVE",
"1189 359 OFFCURVE",
"1198 260 CURVE",
"1190 260 LINE",
"393 1462 LINE",
"201 1462 LINE",
"201 0 LINE",
"358 0 LINE",
"358 805 LINE SMOOTH",
"358 910 OFFCURVE",
"353 1051 OFFCURVE",
"342 1227 CURVE",
"350 1227 LINE",
"1182 0 LINE",
"1182 -148 OFFCURVE",
"1111 -233 OFFCURVE",
"971 -233 CURVE SMOOTH",
"916 -233 OFFCURVE",
"864 -226 OFFCURVE",
"817 -213 CURVE",
"817 -358 LINE",
"853 -376 OFFCURVE",
"904 -385 OFFCURVE",
"969 -385 CURVE SMOOTH"
);
}
);
width = 1544;
}
);
note = Eng;
unicode = 014A;
},
{
glyphname = eng;
lastChange = "2017-04-22 20:56:27 +0000";
layers = (
{
layerId = "2E634D02-5A4A-4A55-A314-31ACA041593B";
paths = (
{
closed = 1;
nodes = (
"1001 -492 OFFCURVE",
"1092 -373 OFFCURVE",
"1092 -168 CURVE SMOOTH",
"1092 715 LINE SMOOTH",
"1092 995 OFFCURVE",
"961 1116 OFFCURVE",
"690 1116 CURVE SMOOTH",
"543 1116 OFFCURVE",
"417 1055 OFFCURVE",
"348 946 CURVE",
"338 946 LINE",
"311 1096 LINE",
"176 1096 LINE",
"176 0 LINE",
"342 0 LINE",
"342 575 LINE SMOOTH",
"342 860 OFFCURVE",
"445 975 OFFCURVE",
"674 975 CURVE SMOOTH",
"847 975 OFFCURVE",
"926 888 OFFCURVE",
"926 709 CURVE SMOOTH",
"926 -180 LINE SMOOTH",
"926 -295 OFFCURVE",
"879 -352 OFFCURVE",
"786 -352 CURVE SMOOTH",
"745 -352 OFFCURVE",
"704 -345 OFFCURVE",
"664 -332 CURVE",
"664 -467 LINE",
"701 -484 OFFCURVE",
"748 -492 OFFCURVE",
"805 -492 CURVE SMOOTH"
);
}
);
width = 1257;
}
);
note = eng;
unicode = 014B;
},
{
glyphname = OE;
lastChange = "2017-05-07 23:59:40 +0000";
layers = (
{
anchors = (
{
name = bottom;
position = "{945, 0}";
},
{
name = top;
position = "{945, 1462}";
}
);
layerId = "2E634D02-5A4A-4A55-A314-31ACA041593B";
paths = (
{
closed = 1;
nodes = (
"1178 152 LINE",
"1178 690 LINE",
"1729 690 LINE",
"1729 840 LINE",
"1178 840 LINE",
"1178 1311 LINE",
"1767 1311 LINE",
"1767 1462 LINE",
"985 1462 LINE",
"925 1477 OFFCURVE",
"861 1485 OFFCURVE",
"793 1485 CURVE SMOOTH",
"366 1485 OFFCURVE",
"125 1215 OFFCURVE",
"125 735 CURVE SMOOTH",
"125 252 OFFCURVE",
"369 -20 OFFCURVE",
"805 -20 CURVE SMOOTH",
"866 -20 OFFCURVE",
"931 -13 OFFCURVE",
"999 0 CURVE",
"1767 0 LINE",
"1767 152 LINE"
);
},
{
closed = 1;
nodes = (
"884 1333 OFFCURVE",
"950 1323 OFFCURVE",
"1008 1303 CURVE",
"1008 162 LINE",
"950 140 OFFCURVE",
"884 129 OFFCURVE",
"809 129 CURVE SMOOTH",
"480 129 OFFCURVE",
"305 337 OFFCURVE",
"305 733 CURVE SMOOTH",
"305 1126 OFFCURVE",
"479 1333 OFFCURVE",
"811 1333 CURVE SMOOTH"
);
}
);
width = 1890;
}
);
note = OE;
unicode = 0152;
},
{
glyphname = oe;
lastChange = "2017-05-07 23:59:40 +0000";
layers = (
{
anchors = (
{
name = bottom;
position = "{965, 0}";
},
{
name = top;
position = "{965, 1096}";
}
);
layerId = "2E634D02-5A4A-4A55-A314-31ACA041593B";
paths = (
{
closed = 1;
nodes = (
"1569 -20 OFFCURVE",
"1657 -1 OFFCURVE",
"1774 51 CURVE",
"1774 199 LINE",
"1658 147 OFFCURVE",
"1557 125 OFFCURVE",
"1432 125 CURVE SMOOTH",
"1212 125 OFFCURVE",
"1099 256 OFFCURVE",
"1094 518 CURVE",
"1823 518 LINE",
"1823 623 LINE SMOOTH",
"1823 924 OFFCURVE",
"1652 1114 OFFCURVE",
"1384 1114 CURVE SMOOTH",
"1216 1114 OFFCURVE",
"1085 1030 OFFCURVE",
"1008 881 CURVE",
"925 1033 OFFCURVE",
"785 1114 OFFCURVE",
"610 1114 CURVE SMOOTH",
"297 1114 OFFCURVE",
"113 902 OFFCURVE",
"113 549 CURVE SMOOTH",
"113 197 OFFCURVE",
"307 -20 OFFCURVE",
"604 -20 CURVE SMOOTH",
"787 -20 OFFCURVE",
"929 60 OFFCURVE",
"1012 215 CURVE",
"1095 58 OFFCURVE",
"1235 -20 OFFCURVE",
"1430 -20 CURVE SMOOTH"
);
},
{
closed = 1;
nodes = (
"287 829 OFFCURVE",
"381 975 OFFCURVE",
"602 975 CURVE SMOOTH",
"822 975 OFFCURVE",
"922 836 OFFCURVE",
"922 541 CURVE SMOOTH",
"922 262 OFFCURVE",
"823 119 OFFCURVE",
"606 119 CURVE SMOOTH",
"383 119 OFFCURVE",
"287 268 OFFCURVE",
"287 549 CURVE SMOOTH"
);
},
{
closed = 1;
nodes = (
"1553 975 OFFCURVE",
"1642 864 OFFCURVE",
"1642 653 CURVE",
"1098 653 LINE",
"1114 864 OFFCURVE",
"1213 975 OFFCURVE",
"1382 975 CURVE SMOOTH"
);
}
);
width = 1929;
}
);
note = oe;
unicode = 0153;
},
{
glyphname = Tbar;
lastChange = "2017-04-22 20:56:27 +0000";
layers = (
{
layerId = "2E634D02-5A4A-4A55-A314-31ACA041593B";
paths = (
{
closed = 1;
nodes = (
"168 674 LINE",
"481 674 LINE",
"481 0 LINE",
"651 0 LINE",
"651 674 LINE",
"961 674 LINE",
"961 815 LINE",
"651 815 LINE",
"651 1311 LINE",
"1114 1311 LINE",
"1114 1462 LINE",
"18 1462 LINE",
"18 1311 LINE",
"481 1311 LINE",
"481 815 LINE",
"168 815 LINE"
);
}
);
width = 1133;
}
);
note = Tbar;
unicode = 0166;
},
{
glyphname = tbar;
lastChange = "2017-04-22 20:56:27 +0000";
layers = (
{
layerId = "2E634D02-5A4A-4A55-A314-31ACA041593B";
paths = (
{
closed = 1;
nodes = (
"414 117 OFFCURVE",
"354 191 OFFCURVE",
"354 338 CURVE SMOOTH",
"354 582 LINE",
"655 582 LINE",
"655 711 LINE",
"354 711 LINE",
"354 967 LINE",
"672 967 LINE",
"672 1096 LINE",
"354 1096 LINE",
"354 1350 LINE",
"258 1350 LINE",
"188 1116 LINE",
"31 1047 LINE",
"31 967 LINE",
"188 967 LINE",
"188 711 LINE",
"47 711 LINE",
"47 582 LINE",
"188 582 LINE",
"188 328 LINE SMOOTH",
"188 96 OFFCURVE",
"292 -20 OFFCURVE",
"500 -20 CURVE SMOOTH",
"556 -20 OFFCURVE",
"637 -9 OFFCURVE",
"680 10 CURVE",
"680 137 LINE",
"640 124 OFFCURVE",
"592 117 OFFCURVE",
"535 117 CURVE SMOOTH"
);
}
);
width = 723;
}
);
note = tbar;
unicode = 0167;
},
{
glyphname = longs;
lastChange = "2017-05-07 23:59:40 +0000";
layers = (
{
anchors = (
{
name = bottom;
position = "{328, 0}";
},
{
name = top;
position = "{328, 1096}";
}
);
layerId = "2E634D02-5A4A-4A55-A314-31ACA041593B";
paths = (
{
closed = 1;
nodes = (
"342 1345 OFFCURVE",
"399 1427 OFFCURVE",
"528 1427 CURVE SMOOTH",
"577 1427 OFFCURVE",
"630 1417 OFFCURVE",
"688 1397 CURVE",
"731 1530 LINE",
"664 1555 OFFCURVE",
"599 1567 OFFCURVE",
"535 1567 CURVE SMOOTH",
"296 1567 OFFCURVE",
"176 1438 OFFCURVE",
"176 1180 CURVE SMOOTH",
"176 0 LINE",
"342 0 LINE",
"342 1182 LINE SMOOTH"
);
}
);
width = 655;
}
);
note = longs;
unicode = 017F;
},
{
glyphname = florin;
lastChange = "2017-04-22 20:56:27 +0000";
layers = (
{
layerId = "2E634D02-5A4A-4A55-A314-31ACA041593B";
paths = (
{
closed = 1;
nodes = (
"571 -492 OFFCURVE",
"668 -378 OFFCURVE",
"668 -133 CURVE SMOOTH",
"668 836 LINE",
"946 836 LINE",
"946 965 LINE",
"664 965 LINE",
"664 1114 LINE SMOOTH",
"664 1279 OFFCURVE",
"711 1343 OFFCURVE",
"842 1343 CURVE SMOOTH",
"882 1343 OFFCURVE",
"936 1332 OFFCURVE",
"1004 1311 CURVE",
"1025 1376 LINE",
"1047 1440 LINE",
"967 1469 OFFCURVE",
"899 1483 OFFCURVE",
"842 1483 CURVE SMOOTH",
"599 1483 OFFCURVE",
"498 1370 OFFCURVE",
"498 1110 CURVE SMOOTH",
"498 971 LINE",
"276 911 LINE",
"276 836 LINE",
"498 836 LINE",
"498 -137 LINE SMOOTH",
"498 -288 OFFCURVE",
"453 -352 OFFCURVE",
"326 -352 CURVE SMOOTH",
"285 -352 OFFCURVE",
"242 -346 OFFCURVE",
"195 -334 CURVE",
"195 -473 LINE",
"238 -486 OFFCURVE",
"282 -492 OFFCURVE",
"328 -492 CURVE SMOOTH"
);
}
);
width = 1182;
}
);
note = florin;
unicode = 0192;
},
{
glyphname = Aringacute;
lastChange = "2017-04-22 20:56:27 +0000";
layers = (
{
layerId = "2E634D02-5A4A-4A55-A314-31ACA041593B";
paths = (
{
closed = 1;
nodes = (
"872 1557 OFFCURVE",
"780 1642 OFFCURVE",
"647 1642 CURVE SMOOTH",
"515 1642 OFFCURVE",
"426 1562 OFFCURVE",
"426 1427 CURVE SMOOTH",
"426 1336 OFFCURVE",
"461 1274 OFFCURVE",
"532 1239 CURVE",
"0 0 LINE",
"174 0 LINE",
"340 401 LINE",
"950 401 LINE",
"1126 0 LINE",
"1300 0 LINE",
"768 1241 LINE",
"837 1278 OFFCURVE",
"872 1341 OFFCURVE",
"872 1430 CURVE SMOOTH"
);
},
{
closed = 1;
nodes = (
"578 983 LINE SMOOTH",
"590 1015 OFFCURVE",
"630 1126 OFFCURVE",
"649 1190 CURVE",
"680 1093 OFFCURVE",
"704 1026 OFFCURVE",
"721 987 CURVE SMOOTH",
"899 555 LINE",
"401 555 LINE"
);
},
{
closed = 1;
nodes = (
"664 1694 LINE",
"752 1754 OFFCURVE",
"887 1885 OFFCURVE",
"930 1946 CURVE",
"930 1962 LINE",
"727 1962 LINE",
"696 1906 OFFCURVE",
"618 1791 OFFCURVE",
"553 1712 CURVE",
"553 1694 LINE"
);
},
{
closed = 1;
nodes = (
"764 1354 OFFCURVE",
"718 1311 OFFCURVE",
"647 1311 CURVE SMOOTH",
"571 1311 OFFCURVE",
"530 1354 OFFCURVE",
"530 1427 CURVE SMOOTH",
"530 1503 OFFCURVE",
"579 1544 OFFCURVE",
"647 1544 CURVE SMOOTH",
"715 1544 OFFCURVE",
"764 1503 OFFCURVE",
"764 1427 CURVE SMOOTH"
);
}
);
width = 1300;
}
);
note = Aringacute;
unicode = 01FA;
},
{
glyphname = aringacute;
lastChange = "2017-04-22 20:56:27 +0000";
layers = (
{
layerId = "2E634D02-5A4A-4A55-A314-31ACA041593B";
paths = (
{
closed = 1;
nodes = (
"677 1798 OFFCURVE",
"747 1839 OFFCURVE",
"802 1874 CURVE SMOOTH",
"857 1909 OFFCURVE",
"891 1934 OFFCURVE",
"905 1950 CURVE",
"905 1962 LINE",
"645 1962 LINE",
"616 1921 OFFCURVE",
"532 1825 OFFCURVE",
"471 1769 CURVE",
"471 1753 LINE",
"592 1753 LINE"
);
},
{
closed = 1;
nodes = (
"973 748 LINE SMOOTH",
"973 1004 OFFCURVE",
"842 1114 OFFCURVE",
"563 1114 CURVE SMOOTH",
"428 1114 OFFCURVE",
"282 1077 OFFCURVE",
"170 1020 CURVE",
"225 893 LINE",
"320 936 OFFCURVE",
"431 977 OFFCURVE",
"559 977 CURVE SMOOTH",
"736 977 OFFCURVE",
"811 898 OFFCURVE",
"811 725 CURVE SMOOTH",
"811 657 LINE",
"631 651 LINE SMOOTH",
"273 640 OFFCURVE",
"94 524 OFFCURVE",
"94 303 CURVE SMOOTH",
"94 96 OFFCURVE",
"225 -20 OFFCURVE",
"442 -20 CURVE SMOOTH",
"605 -20 OFFCURVE",
"700 19 OFFCURVE",
"809 156 CURVE",
"817 156 LINE",
"850 0 LINE",
"973 0 LINE"
);
},
{
closed = 1;
nodes = (
"344 117 OFFCURVE",
"268 181 OFFCURVE",
"268 301 CURVE SMOOTH",
"268 454 OFFCURVE",
"377 523 OFFCURVE",
"641 532 CURVE SMOOTH",
"807 539 LINE",
"807 440 LINE SMOOTH",
"807 236 OFFCURVE",
"682 117 OFFCURVE",
"475 117 CURVE SMOOTH"
);
},
{
closed = 1;
nodes = (
"803 1581 OFFCURVE",
"713 1669 OFFCURVE",
"578 1669 CURVE SMOOTH",
"443 1669 OFFCURVE",
"356 1587 OFFCURVE",
"356 1456 CURVE SMOOTH",
"356 1324 OFFCURVE",
"443 1241 OFFCURVE",
"578 1241 CURVE SMOOTH",
"714 1241 OFFCURVE",
"803 1327 OFFCURVE",
"803 1458 CURVE SMOOTH"
);
},
{
closed = 1;
nodes = (
"694 1381 OFFCURVE",
"647 1339 OFFCURVE",
"578 1339 CURVE SMOOTH",
"502 1339 OFFCURVE",
"461 1381 OFFCURVE",
"461 1456 CURVE SMOOTH",
"461 1531 OFFCURVE",
"510 1573 OFFCURVE",
"578 1573 CURVE SMOOTH",
"646 1573 OFFCURVE",
"694 1531 OFFCURVE",
"694 1456 CURVE SMOOTH"
);
}
);
width = 1139;
}
);
note = aringacute;
unicode = 01FB;
},
{
glyphname = circumflex;
lastChange = "2017-04-22 20:56:27 +0000";
layers = (
{
layerId = "2E634D02-5A4A-4A55-A314-31ACA041593B";
paths = (
{
closed = 1;
nodes = (
"383 1241 LINE",
"438 1276 OFFCURVE",
"511 1338 OFFCURVE",
"602 1427 CURVE",
"691 1340 OFFCURVE",
"764 1278 OFFCURVE",
"823 1241 CURVE",
"942 1241 LINE",
"942 1264 LINE",
"859 1351 OFFCURVE",
"799 1416 OFFCURVE",
"763 1461 CURVE SMOOTH",
"726 1505 OFFCURVE",
"701 1541 OFFCURVE",
"686 1569 CURVE",
"520 1569 LINE",
"505 1542 OFFCURVE",
"480 1507 OFFCURVE",
"446 1464 CURVE SMOOTH",
"412 1421 OFFCURVE",
"353 1355 OFFCURVE",
"268 1264 CURVE",
"268 1241 LINE"
);
}
);
width = 1212;
}
);
note = circumflex;
unicode = 02C6;
},
{
glyphname = caron;
lastChange = "2017-04-22 20:56:27 +0000";
layers = (
{
layerId = "2E634D02-5A4A-4A55-A314-31ACA041593B";
paths = (
{
closed = 1;
nodes = (
"353 1453 OFFCURVE",
"412 1387 OFFCURVE",
"446 1345 CURVE SMOOTH",
"480 1303 OFFCURVE",
"505 1268 OFFCURVE",
"520 1241 CURVE",
"686 1241 LINE",
"717 1299 OFFCURVE",
"780 1377 OFFCURVE",
"876 1476 CURVE SMOOTH",
"942 1544 LINE",
"942 1569 LINE",
"823 1569 LINE",
"762 1530 OFFCURVE",
"689 1467 OFFCURVE",
"602 1380 CURVE",
"532 1457 OFFCURVE",
"459 1520 OFFCURVE",
"383 1569 CURVE",
"268 1569 LINE",
"268 1544 LINE"
);
}
);
width = 1212;
}
);
note = caron;
unicode = 02C7;
},
{
glyphname = macron;
lastChange = "2017-04-22 20:56:27 +0000";
layers = (
{
layerId = "2E634D02-5A4A-4A55-A314-31ACA041593B";
paths = (
{
closed = 1;
nodes = (
"901 1241 LINE",
"901 1378 LINE",
"301 1378 LINE",
"301 1241 LINE"
);
}
);
width = 1202;
}
);
note = macron;
unicode = 02C9;
},
{
glyphname = breve;
lastChange = "2017-04-22 20:56:27 +0000";
layers = (
{
layerId = "2E634D02-5A4A-4A55-A314-31ACA041593B";
paths = (
{
closed = 1;
nodes = (
"782 1241 OFFCURVE",
"900 1341 OFFCURVE",
"913 1509 CURVE",
"809 1509 LINE",
"796 1420 OFFCURVE",
"737 1378 OFFCURVE",
"602 1378 CURVE SMOOTH",
"545 1378 OFFCURVE",
"505 1382 OFFCURVE",
"481 1391 CURVE SMOOTH",
"432 1408 OFFCURVE",
"405 1444 OFFCURVE",
"397 1509 CURVE",
"293 1509 LINE",
"305 1334 OFFCURVE",
"411 1241 OFFCURVE",
"598 1241 CURVE SMOOTH"
);
}
);
width = 1212;
}
);
note = breve;
unicode = 02D8;
},
{
glyphname = dotaccent;
lastChange = "2017-04-22 20:56:27 +0000";
layers = (
{
layerId = "2E634D02-5A4A-4A55-A314-31ACA041593B";
paths = (
{
closed = 1;
nodes = (
"162 1318 OFFCURVE",
"204 1282 OFFCURVE",
"260 1282 CURVE SMOOTH",
"313 1282 OFFCURVE",
"358 1318 OFFCURVE",
"358 1393 CURVE SMOOTH",
"358 1468 OFFCURVE",
"313 1503 OFFCURVE",
"260 1503 CURVE SMOOTH",
"204 1503 OFFCURVE",
"162 1469 OFFCURVE",
"162 1393 CURVE SMOOTH"
);
}
);
width = 518;
}
);
note = dotaccent;
unicode = 02D9;
},
{
glyphname = ring;
lastChange = "2017-04-22 20:56:27 +0000";
layers = (
{
layerId = "2E634D02-5A4A-4A55-A314-31ACA041593B";
paths = (
{
closed = 1;
nodes = (
"813 1581 OFFCURVE",
"723 1669 OFFCURVE",
"588 1669 CURVE SMOOTH",
"455 1669 OFFCURVE",
"367 1587 OFFCURVE",
"367 1456 CURVE SMOOTH",
"367 1325 OFFCURVE",
"453 1241 OFFCURVE",
"588 1241 CURVE SMOOTH",
"724 1241 OFFCURVE",
"813 1327 OFFCURVE",
"813 1458 CURVE SMOOTH"
);
},
{
closed = 1;
nodes = (
"705 1381 OFFCURVE",
"657 1339 OFFCURVE",
"588 1339 CURVE SMOOTH",
"512 1339 OFFCURVE",
"471 1381 OFFCURVE",
"471 1456 CURVE SMOOTH",
"471 1531 OFFCURVE",
"520 1573 OFFCURVE",
"588 1573 CURVE SMOOTH",
"656 1573 OFFCURVE",
"705 1531 OFFCURVE",
"705 1456 CURVE SMOOTH"
);
}
);
width = 1182;
}
);
note = ring;
unicode = 02DA;
},
{
glyphname = ogonek;
lastChange = "2017-04-22 20:56:27 +0000";
layers = (
{
layerId = "2E634D02-5A4A-4A55-A314-31ACA041593B";
paths = (
{
closed = 1;
nodes = (
"178 -154 OFFCURVE",
"224 -88 OFFCURVE",
"315 0 CURVE",
"195 0 LINE",
"99 -71 OFFCURVE",
"37 -165 OFFCURVE",
"37 -258 CURVE SMOOTH",
"37 -383 OFFCURVE",
"106 -446 OFFCURVE",
"244 -446 CURVE SMOOTH",
"284 -446 OFFCURVE",
"326 -440 OFFCURVE",
"369 -428 CURVE",
"369 -319 LINE",
"332 -328 OFFCURVE",
"300 -332 OFFCURVE",
"272 -332 CURVE SMOOTH",
"209 -332 OFFCURVE",
"178 -301 OFFCURVE",
"178 -238 CURVE SMOOTH"
);
}
);
width = 403;
}
);
note = ogonek;
unicode = 02DB;
},
{
glyphname = tilde;
lastChange = "2017-04-22 20:56:27 +0000";
layers = (
{
layerId = "2E634D02-5A4A-4A55-A314-31ACA041593B";
paths = (
{
closed = 1;
nodes = (
"913 1243 OFFCURVE",
"991 1340 OFFCURVE",
"1008 1501 CURVE",
"909 1501 LINE",
"889 1418 OFFCURVE",
"862 1380 OFFCURVE",
"797 1380 CURVE SMOOTH",
"754 1380 OFFCURVE",
"706 1410 OFFCURVE",
"654 1440 CURVE SMOOTH",
"602 1470 OFFCURVE",
"544 1499 OFFCURVE",
"483 1499 CURVE SMOOTH",
"362 1499 OFFCURVE",
"281 1402 OFFCURVE",
"264 1241 CURVE",
"362 1241 LINE",
"381 1322 OFFCURVE",
"410 1362 OFFCURVE",
"477 1362 CURVE SMOOTH",
"522 1362 OFFCURVE",
"571 1333 OFFCURVE",
"624 1303 CURVE SMOOTH",
"676 1273 OFFCURVE",
"731 1243 OFFCURVE",
"788 1243 CURVE SMOOTH"
);
}
);
width = 1212;
}
);
note = tilde;
unicode = 02DC;
},
{
glyphname = hungarumlaut;
lastChange = "2017-04-22 20:56:27 +0000";
layers = (
{
layerId = "2E634D02-5A4A-4A55-A314-31ACA041593B";
paths = (
{
closed = 1;
nodes = (
"328 1241 LINE",
"405 1305 OFFCURVE",
"545 1464 OFFCURVE",
"594 1548 CURVE",
"594 1569 LINE",
"408 1569 LINE",
"367 1477 OFFCURVE",
"279 1330 OFFCURVE",
"231 1266 CURVE",
"231 1241 LINE"
);
},
{
closed = 1;
nodes = (
"684 1241 LINE",
"761 1305 OFFCURVE",
"901 1464 OFFCURVE",
"950 1548 CURVE",
"950 1569 LINE",
"764 1569 LINE",
"729 1492 OFFCURVE",
"653 1357 OFFCURVE",
"588 1266 CURVE",
"588 1241 LINE"
);
}
);
width = 1182;
}
);
note = hungarumlaut;
unicode = 02DD;
},
{
glyphname = tonos;
lastChange = "2017-05-07 23:59:40 +0000";
layers = (
{
anchors = (
{
name = _top;
position = "{646, 1096}";
}
);
layerId = "2E634D02-5A4A-4A55-A314-31ACA041593B";
paths = (
{
closed = 1;
nodes = (
"608 1241 LINE",
"673 1342 OFFCURVE",
"760 1529 OFFCURVE",
"784 1628 CURVE",
"784 1651 LINE",
"600 1651 LINE",
"584 1542 OFFCURVE",
"544 1366 OFFCURVE",
"508 1270 CURVE",
"508 1241 LINE"
);
}
);
width = 1182;
}
);
note = tonos;
unicode = 0384;
},
{
glyphname = dieresistonos;
lastChange = "2017-05-07 23:59:40 +0000";
layers = (
{
anchors = (
{
name = _top;
position = "{591, 1096}";
}
);
layerId = "2E634D02-5A4A-4A55-A314-31ACA041593B";
paths = (
{
closed = 1;
nodes = (
"592 1389 LINE",
"660 1470 OFFCURVE",
"753 1607 OFFCURVE",
"797 1696 CURVE",
"797 1716 LINE",
"608 1716 LINE",
"587 1627 OFFCURVE",
"555 1526 OFFCURVE",
"512 1413 CURVE",
"512 1389 LINE"
);
},
{
closed = 1;
nodes = (
"283 1326 OFFCURVE",
"322 1294 OFFCURVE",
"373 1294 CURVE SMOOTH",
"420 1294 OFFCURVE",
"463 1326 OFFCURVE",
"463 1393 CURVE SMOOTH",
"463 1454 OFFCURVE",
"428 1491 OFFCURVE",
"373 1491 CURVE SMOOTH",
"322 1491 OFFCURVE",
"283 1462 OFFCURVE",
"283 1393 CURVE SMOOTH"
);
},
{
closed = 1;
nodes = (
"719 1326 OFFCURVE",
"758 1294 OFFCURVE",
"809 1294 CURVE SMOOTH",
"856 1294 OFFCURVE",
"899 1326 OFFCURVE",
"899 1393 CURVE SMOOTH",
"899 1454 OFFCURVE",
"864 1491 OFFCURVE",
"809 1491 CURVE SMOOTH",
"758 1491 OFFCURVE",
"719 1462 OFFCURVE",
"719 1393 CURVE SMOOTH"
);
}
);
width = 1182;
}
);
note = dieresistonos;
unicode = 0385;
},
{
glyphname = Gamma;
lastChange = "2017-04-22 20:56:27 +0000";
layers = (
{
layerId = "2E634D02-5A4A-4A55-A314-31ACA041593B";
paths = (
{
closed = 1;
nodes = (
"201 0 LINE",
"371 0 LINE",
"371 1309 LINE",
"1016 1309 LINE",
"1016 1462 LINE",
"201 1462 LINE"
);
}
);
width = 1065;
}
);
note = Gamma;
unicode = 0393;
},
{
glyphname = Theta;
lastChange = "2017-04-22 20:56:27 +0000";
layers = (
{
layerId = "2E634D02-5A4A-4A55-A314-31ACA041593B";
paths = (
{
closed = 1;
nodes = (
"1112 670 LINE",
"1112 819 LINE",
"483 819 LINE",
"483 670 LINE"
);
},
{
closed = 1;
nodes = (
"1470 1202 OFFCURVE",
"1221 1485 OFFCURVE",
"801 1485 CURVE SMOOTH",
"369 1485 OFFCURVE",
"125 1211 OFFCURVE",
"125 735 CURVE SMOOTH",
"125 255 OFFCURVE",
"368 -20 OFFCURVE",
"799 -20 CURVE SMOOTH",
"1220 -20 OFFCURVE",
"1470 265 OFFCURVE",
"1470 733 CURVE SMOOTH"
);
},
{
closed = 1;
nodes = (
"305 1125 OFFCURVE",
"474 1333 OFFCURVE",
"801 1333 CURVE SMOOTH",
"1124 1333 OFFCURVE",
"1290 1130 OFFCURVE",
"1290 733 CURVE SMOOTH",
"1290 333 OFFCURVE",
"1123 129 OFFCURVE",
"799 129 CURVE SMOOTH",
"474 129 OFFCURVE",
"305 338 OFFCURVE",
"305 733 CURVE SMOOTH"
);
}
);
width = 1595;
}
);
note = Theta;
unicode = 0398;
},
{
glyphname = Lambda;
lastChange = "2017-04-22 20:56:27 +0000";
layers = (
{
layerId = "2E634D02-5A4A-4A55-A314-31ACA041593B";
paths = (
{
closed = 1;
nodes = (
"528 1462 LINE",
"0 0 LINE",
"182 0 LINE",
"510 930 LINE SMOOTH",
"557 1064 OFFCURVE",
"592 1177 OFFCURVE",
"614 1270 CURVE",
"629 1210 OFFCURVE",
"665 1096 OFFCURVE",
"723 928 CURVE SMOOTH",
"1053 0 LINE",
"1235 0 LINE",
"705 1462 LINE"
);
}
);
width = 1235;
}
);
note = Lambda;
unicode = 039B;
},
{
glyphname = Xi;
lastChange = "2017-04-22 20:56:27 +0000";
layers = (
{
layerId = "2E634D02-5A4A-4A55-A314-31ACA041593B";
paths = (
{
closed = 1;
nodes = (
"938 690 LINE",
"938 840 LINE",
"195 840 LINE",
"195 690 LINE"
);
},
{
closed = 1;
nodes = (
"1020 1311 LINE",
"1020 1462 LINE",
"113 1462 LINE",
"113 1311 LINE"
);
},
{
closed = 1;
nodes = (
"72 0 LINE",
"1061 0 LINE",
"1061 152 LINE",
"72 152 LINE"
);
}
);
width = 1133;
}
);
note = Xi;
unicode = 039E;
},
{
glyphname = Pi;
lastChange = "2017-04-22 20:56:27 +0000";
layers = (
{
layerId = "2E634D02-5A4A-4A55-A314-31ACA041593B";
paths = (
{
closed = 1;
nodes = (
"201 1462 LINE",
"201 0 LINE",
"371 0 LINE",
"371 1311 LINE",
"1122 1311 LINE",
"1122 0 LINE",
"1292 0 LINE",
"1292 1462 LINE"
);
}
);
width = 1493;
}
);
note = Pi;
unicode = 03A0;
},
{
glyphname = Sigma;
lastChange = "2017-04-22 20:56:27 +0000";
layers = (
{
layerId = "2E634D02-5A4A-4A55-A314-31ACA041593B";
paths = (
{
closed = 1;
nodes = (
"1116 152 LINE",
"264 152 LINE",
"745 766 LINE",
"285 1311 LINE",
"381 1309 LINE",
"1057 1309 LINE",
"1057 1462 LINE",
"86 1462 LINE",
"86 1319 LINE",
"555 764 LINE",
"74 141 LINE",
"74 0 LINE",
"1116 0 LINE"
);
}
);
width = 1161;
}
);
note = Sigma;
unicode = 03A3;
},
{
glyphname = Phi;
lastChange = "2017-04-22 20:56:27 +0000";
layers = (
{
layerId = "2E634D02-5A4A-4A55-A314-31ACA041593B";
paths = (
{
closed = 1;
nodes = (
"664 1303 LINE SMOOTH",
"550 1303 OFFCURVE",
"451 1280 OFFCURVE",
"367 1234 CURVE SMOOTH",
"199 1141 OFFCURVE",
"106 969 OFFCURVE",
"106 758 CURVE SMOOTH",
"106 651 OFFCURVE",
"130 554 OFFCURVE",
"179 467 CURVE SMOOTH",
"276 294 OFFCURVE",
"451 205 OFFCURVE",
"686 205 CURVE SMOOTH",
"731 205 LINE",
"731 -20 LINE",
"903 -20 LINE",
"903 205 LINE",
"944 205 LINE SMOOTH",
"1061 205 OFFCURVE",
"1163 227 OFFCURVE",
"1250 270 CURVE SMOOTH",
"1422 357 OFFCURVE",
"1528 539 OFFCURVE",
"1528 760 CURVE SMOOTH",
"1528 866 OFFCURVE",
"1506 960 OFFCURVE",
"1462 1043 CURVE SMOOTH",
"1373 1208 OFFCURVE",
"1201 1303 OFFCURVE",
"973 1303 CURVE SMOOTH",
"903 1303 LINE",
"903 1483 LINE",
"731 1483 LINE",
"731 1303 LINE"
);
},
{
closed = 1;
nodes = (
"961 1157 LINE SMOOTH",
"1208 1157 OFFCURVE",
"1352 1009 OFFCURVE",
"1352 762 CURVE SMOOTH",
"1352 502 OFFCURVE",
"1196 348 OFFCURVE",
"928 348 CURVE SMOOTH",
"903 348 LINE",
"903 1157 LINE"
);
},
{
closed = 1;
nodes = (
"707 348 LINE SMOOTH",
"438 348 OFFCURVE",
"283 499 OFFCURVE",
"283 762 CURVE SMOOTH",
"283 1006 OFFCURVE",
"431 1157 OFFCURVE",
"674 1157 CURVE SMOOTH",
"731 1157 LINE",
"731 348 LINE"
);
}
);
width = 1634;
}
);
note = Phi;
unicode = 03A6;
},
{
glyphname = Psi;
lastChange = "2017-04-22 20:56:27 +0000";
layers = (
{
layerId = "2E634D02-5A4A-4A55-A314-31ACA041593B";
paths = (
{
closed = 1;
nodes = (
"944 446 LINE SMOOTH",
"1061 446 OFFCURVE",
"1162 467 OFFCURVE",
"1249 508 CURVE SMOOTH",
"1421 590 OFFCURVE",
"1522 761 OFFCURVE",
"1522 981 CURVE SMOOTH",
"1522 1462 LINE",
"1346 1462 LINE",
"1346 979 LINE SMOOTH",
"1346 730 OFFCURVE",
"1209 594 OFFCURVE",
"928 594 CURVE SMOOTH",
"899 594 LINE",
"899 1462 LINE",
"729 1462 LINE",
"729 594 LINE",
"702 594 LINE SMOOTH",
"419 594 OFFCURVE",
"283 732 OFFCURVE",
"283 983 CURVE SMOOTH",
"283 1462 LINE",
"109 1462 LINE",
"109 979 LINE SMOOTH",
"109 870 OFFCURVE",
"133 774 OFFCURVE",
"181 692 CURVE SMOOTH",
"277 527 OFFCURVE",
"449 446 OFFCURVE",
"684 446 CURVE SMOOTH",
"729 446 LINE",
"729 0 LINE",
"899 0 LINE",
"899 446 LINE"
);
}
);
width = 1630;
}
);
note = Psi;
unicode = 03A8;
},
{
glyphname = uni03A9;
lastChange = "2017-05-07 23:59:40 +0000";
layers = (
{
anchors = (
{
name = bottom;
position = "{801, 0}";
},
{
name = topleft;
position = "{20, 1462}";
}
);
layerId = "2E634D02-5A4A-4A55-A314-31ACA041593B";
paths = (
{
closed = 1;
nodes = (
"1121 1333 OFFCURVE",
"1290 1159 OFFCURVE",
"1290 823 CURVE SMOOTH",
"1290 527 OFFCURVE",
"1182 312 OFFCURVE",
"938 133 CURVE",
"938 0 LINE",
"1524 0 LINE",
"1524 152 LINE",
"1161 152 LINE",
"1362 312 OFFCURVE",
"1470 549 OFFCURVE",
"1470 825 CURVE SMOOTH",
"1470 1242 OFFCURVE",
"1221 1485 OFFCURVE",
"801 1485 CURVE SMOOTH",
"382 1485 OFFCURVE",
"133 1236 OFFCURVE",
"133 823 CURVE SMOOTH",
"133 552 OFFCURVE",
"243 309 OFFCURVE",
"444 152 CURVE",
"80 152 LINE",
"80 0 LINE",
"666 0 LINE",
"666 133 LINE",
"426 309 OFFCURVE",
"313 523 OFFCURVE",
"313 823 CURVE SMOOTH",
"313 1160 OFFCURVE",
"484 1333 OFFCURVE",
"801 1333 CURVE SMOOTH"
);
}
);
width = 1602;
}
);
note = uni03A9;
unicode = 03A9;
},
{
glyphname = alpha;
lastChange = "2017-05-07 23:59:40 +0000";
layers = (
{
anchors = (
{
name = top;
position = "{626, 1096}";
}
);
layerId = "2E634D02-5A4A-4A55-A314-31ACA041593B";
paths = (
{
closed = 1;
nodes = (
"381 119 OFFCURVE",
"287 260 OFFCURVE",
"287 543 CURVE SMOOTH",
"287 831 OFFCURVE",
"388 975 OFFCURVE",
"590 975 CURVE SMOOTH",
"815 975 OFFCURVE",
"911 852 OFFCURVE",
"911 547 CURVE SMOOTH",
"911 532 LINE SMOOTH",
"911 241 OFFCURVE",
"817 119 OFFCURVE",
"592 119 CURVE SMOOTH"
);
},
{
closed = 1;
nodes = (
"724 -20 OFFCURVE",
"832 32 OFFCURVE",
"911 147 CURVE",
"924 147 LINE",
"948 32 OFFCURVE",
"1004 -20 OFFCURVE",
"1112 -20 CURVE SMOOTH",
"1155 -20 OFFCURVE",
"1192 -11 OFFCURVE",
"1223 6 CURVE",
"1223 125 LINE",
"1201 118 OFFCURVE",
"1180 115 OFFCURVE",
"1161 115 CURVE SMOOTH",
"1105 115 OFFCURVE",
"1077 153 OFFCURVE",
"1077 229 CURVE SMOOTH",
"1077 668 LINE SMOOTH",
"1077 823 OFFCURVE",
"1098 1008 OFFCURVE",
"1126 1096 CURVE",
"997 1096 LINE",
"970 1059 OFFCURVE",
"948 1009 OFFCURVE",
"932 948 CURVE",
"920 948 LINE",
"848 1060 OFFCURVE",
"745 1116 OFFCURVE",
"584 1116 CURVE SMOOTH",
"284 1116 OFFCURVE",
"115 910 OFFCURVE",
"115 545 CURVE SMOOTH",
"115 188 OFFCURVE",
"282 -20 OFFCURVE",
"567 -20 CURVE SMOOTH"
);
}
);
width = 1251;
}
);
note = alpha;
unicode = 03B1;
},
{
glyphname = beta;
lastChange = "2017-04-22 20:56:27 +0000";
layers = (
{
layerId = "2E634D02-5A4A-4A55-A314-31ACA041593B";
paths = (
{
closed = 1;
nodes = (
"352 1567 OFFCURVE",
"176 1396 OFFCURVE",
"176 1096 CURVE SMOOTH",
"176 -492 LINE",
"342 -492 LINE",
"342 49 LINE",
"447 -2 OFFCURVE",
"545 -20 OFFCURVE",
"690 -20 CURVE SMOOTH",
"1007 -20 OFFCURVE",
"1192 135 OFFCURVE",
"1192 414 CURVE SMOOTH",
"1192 659 OFFCURVE",
"1066 795 OFFCURVE",
"815 823 CURVE",
"815 831 LINE",
"1024 865 OFFCURVE",
"1128 980 OFFCURVE",
"1128 1176 CURVE SMOOTH",
"1128 1420 OFFCURVE",
"952 1567 OFFCURVE",
"659 1567 CURVE SMOOTH"
);
},
{
closed = 1;
nodes = (
"848 1427 OFFCURVE",
"956 1335 OFFCURVE",
"956 1171 CURVE SMOOTH",
"956 988 OFFCURVE",
"846 887 OFFCURVE",
"639 887 CURVE SMOOTH",
"547 887 LINE",
"547 745 LINE",
"659 745 LINE SMOOTH",
"895 745 OFFCURVE",
"1026 633 OFFCURVE",
"1026 424 CURVE SMOOTH",
"1026 215 OFFCURVE",
"910 117 OFFCURVE",
"682 117 CURVE SMOOTH",
"567 117 OFFCURVE",
"466 138 OFFCURVE",
"342 203 CURVE",
"342 1090 LINE SMOOTH",
"342 1310 OFFCURVE",
"446 1427 OFFCURVE",
"657 1427 CURVE SMOOTH"
);
}
);
width = 1286;
}
);
note = beta;
unicode = 03B2;
},
{
glyphname = gamma;
lastChange = "2017-04-22 20:56:27 +0000";
layers = (
{
layerId = "2E634D02-5A4A-4A55-A314-31ACA041593B";
paths = (
{
closed = 1;
nodes = (
"532 -355 OFFCURVE",
"569 -138 OFFCURVE",
"633 27 CURVE SMOOTH",
"1038 1096 LINE",
"866 1096 LINE",
"710 682 OFFCURVE",
"625 454 OFFCURVE",
"611 411 CURVE SMOOTH",
"582 325 OFFCURVE",
"550 214 OFFCURVE",
"543 174 CURVE",
"535 174 LINE",
"522 243 OFFCURVE",
"485 355 OFFCURVE",
"422 512 CURVE SMOOTH",
"182 1096 LINE",
"10 1096 LINE",
"459 12 LINE",
"402 -140 OFFCURVE",
"352 -364 OFFCURVE",
"352 -492 CURVE",
"532 -492 LINE"
);
}
);
width = 1049;
}
);
note = gamma;
unicode = 03B3;
},
{
glyphname = delta;
lastChange = "2017-04-22 20:56:27 +0000";
layers = (
{
layerId = "2E634D02-5A4A-4A55-A314-31ACA041593B";
paths = (
{
closed = 1;
nodes = (
"270 856 OFFCURVE",
"113 674 OFFCURVE",
"113 438 CURVE SMOOTH",
"113 158 OFFCURVE",
"309 -20 OFFCURVE",
"612 -20 CURVE SMOOTH",
"927 -20 OFFCURVE",
"1120 166 OFFCURVE",
"1120 479 CURVE SMOOTH",
"1120 698 OFFCURVE",
"1013 846 OFFCURVE",
"733 999 CURVE SMOOTH",
"622 1060 OFFCURVE",
"548 1109 OFFCURVE",
"513 1146 CURVE SMOOTH",
"477 1183 OFFCURVE",
"459 1225 OFFCURVE",
"459 1272 CURVE SMOOTH",
"459 1360 OFFCURVE",
"528 1417 OFFCURVE",
"641 1417 CURVE SMOOTH",
"749 1417 OFFCURVE",
"844 1394 OFFCURVE",
"993 1311 CURVE",
"1065 1446 LINE",
"897 1530 OFFCURVE",
"784 1554 OFFCURVE",
"647 1554 CURVE SMOOTH",
"428 1554 OFFCURVE",
"289 1445 OFFCURVE",
"289 1272 CURVE SMOOTH",
"289 1140 OFFCURVE",
"358 1040 OFFCURVE",
"545 936 CURVE"
);
},
{
closed = 1;
nodes = (
"948 247 OFFCURVE",
"828 119 OFFCURVE",
"612 119 CURVE SMOOTH",
"416 119 OFFCURVE",
"287 242 OFFCURVE",
"287 434 CURVE SMOOTH",
"287 647 OFFCURVE",
"409 793 OFFCURVE",
"684 864 CURVE",
"872 765 OFFCURVE",
"948 650 OFFCURVE",
"948 479 CURVE SMOOTH"
);
}
);
width = 1188;
}
);
note = delta;
unicode = 03B4;
},
{
glyphname = epsilon;
lastChange = "2017-05-07 23:59:40 +0000";
layers = (
{
anchors = (
{
name = top;
position = "{487, 1096}";
}
);
layerId = "2E634D02-5A4A-4A55-A314-31ACA041593B";
paths = (
{
closed = 1;
nodes = (
"393 641 OFFCURVE",
"287 698 OFFCURVE",
"287 813 CURVE SMOOTH",
"287 921 OFFCURVE",
"370 975 OFFCURVE",
"537 975 CURVE SMOOTH",
"642 975 OFFCURVE",
"715 961 OFFCURVE",
"840 905 CURVE",
"903 1038 LINE",
"770 1098 OFFCURVE",
"670 1116 OFFCURVE",
"541 1116 CURVE SMOOTH",
"285 1116 OFFCURVE",
"125 1002 OFFCURVE",
"125 825 CURVE SMOOTH",
"125 702 OFFCURVE",
"199 615 OFFCURVE",
"330 578 CURVE",
"330 567 LINE",
"157 512 OFFCURVE",
"90 428 OFFCURVE",
"90 297 CURVE SMOOTH",
"90 100 OFFCURVE",
"261 -20 OFFCURVE",
"541 -20 CURVE SMOOTH",
"688 -20 OFFCURVE",
"808 5 OFFCURVE",
"899 55 CURVE",
"899 203 LINE",
"766 140 OFFCURVE",
"661 117 OFFCURVE",
"549 117 CURVE SMOOTH",
"354 117 OFFCURVE",
"256 185 OFFCURVE",
"256 305 CURVE SMOOTH",
"256 435 OFFCURVE",
"360 500 OFFCURVE",
"567 500 CURVE SMOOTH",
"715 500 LINE",
"715 641 LINE",
"604 641 LINE SMOOTH"
);
}
);
width = 973;
}
);
note = epsilon;
unicode = 03B5;
},
{
glyphname = zeta;
lastChange = "2017-04-22 20:56:27 +0000";
layers = (
{
layerId = "2E634D02-5A4A-4A55-A314-31ACA041593B";
paths = (
{
closed = 1;
nodes = (
"599 1415 OFFCURVE",
"702 1418 OFFCURVE",
"729 1423 CURVE",
"568 1278 OFFCURVE",
"454 1167 OFFCURVE",
"387 1091 CURVE SMOOTH",
"320 1014 OFFCURVE",
"267 944 OFFCURVE",
"230 879 CURVE SMOOTH",
"155 749 OFFCURVE",
"115 611 OFFCURVE",
"115 459 CURVE SMOOTH",
"115 200 OFFCURVE",
"235 58 OFFCURVE",
"506 10 CURVE SMOOTH",
"601 -7 OFFCURVE",
"668 -26 OFFCURVE",
"705 -46 CURVE SMOOTH",
"742 -67 OFFCURVE",
"760 -96 OFFCURVE",
"760 -133 CURVE SMOOTH",
"760 -204 OFFCURVE",
"718 -294 OFFCURVE",
"635 -401 CURVE",
"801 -401 LINE",
"886 -292 OFFCURVE",
"928 -187 OFFCURVE",
"928 -88 CURVE SMOOTH",
"928 33 OFFCURVE",
"842 102 OFFCURVE",
"643 143 CURVE SMOOTH",
"528 168 OFFCURVE",
"450 192 OFFCURVE",
"409 217 CURVE SMOOTH",
"325 265 OFFCURVE",
"287 338 OFFCURVE",
"287 469 CURVE SMOOTH",
"287 580 OFFCURVE",
"310 683 OFFCURVE",
"356 780 CURVE SMOOTH",
"448 972 OFFCURVE",
"641 1187 OFFCURVE",
"928 1427 CURVE",
"928 1556 LINE",
"176 1556 LINE",
"176 1415 LINE",
"418 1415 LINE SMOOTH"
);
}
);
width = 989;
}
);
note = zeta;
unicode = 03B6;
},
{
glyphname = eta;
lastChange = "2017-05-07 23:59:40 +0000";
layers = (
{
anchors = (
{
name = top;
position = "{629, 1096}";
}
);
layerId = "2E634D02-5A4A-4A55-A314-31ACA041593B";
paths = (
{
closed = 1;
nodes = (
"1092 715 LINE SMOOTH",
"1092 995 OFFCURVE",
"958 1116 OFFCURVE",
"694 1116 CURVE SMOOTH",
"543 1116 OFFCURVE",
"414 1054 OFFCURVE",
"346 946 CURVE",
"338 946 LINE",
"311 1096 LINE",
"176 1096 LINE",
"176 0 LINE",
"342 0 LINE",
"342 575 LINE SMOOTH",
"342 860 OFFCURVE",
"445 975 OFFCURVE",
"674 975 CURVE SMOOTH",
"847 975 OFFCURVE",
"926 888 OFFCURVE",
"926 709 CURVE SMOOTH",
"926 -492 LINE",
"1092 -492 LINE"
);
}
);
width = 1257;
}
);
note = eta;
unicode = 03B7;
},
{
glyphname = theta;
lastChange = "2017-04-22 20:56:27 +0000";
layers = (
{
layerId = "2E634D02-5A4A-4A55-A314-31ACA041593B";
paths = (
{
closed = 1;
nodes = (
"1098 1305 OFFCURVE",
"929 1579 OFFCURVE",
"604 1579 CURVE SMOOTH",
"279 1579 OFFCURVE",
"115 1323 OFFCURVE",
"115 780 CURVE SMOOTH",
"115 251 OFFCURVE",
"284 -20 OFFCURVE",
"604 -20 CURVE SMOOTH",
"937 -20 OFFCURVE",
"1098 239 OFFCURVE",
"1098 780 CURVE SMOOTH"
);
},
{
closed = 1;
nodes = (
"381 119 OFFCURVE",
"288 326 OFFCURVE",
"283 731 CURVE",
"930 731 LINE",
"922 322 OFFCURVE",
"823 119 OFFCURVE",
"604 119 CURVE SMOOTH"
);
},
{
closed = 1;
nodes = (
"819 1440 OFFCURVE",
"913 1247 OFFCURVE",
"928 872 CURVE",
"283 872 LINE",
"296 1247 OFFCURVE",
"389 1440 OFFCURVE",
"604 1440 CURVE SMOOTH"
);
}
);
width = 1212;
}
);
note = theta;
unicode = 03B8;
},
{
glyphname = iota;
lastChange = "2017-05-07 23:59:40 +0000";
layers = (
{
anchors = (
{
name = top;
position = "{347, 1096}";
}
);
layerId = "2E634D02-5A4A-4A55-A314-31ACA041593B";
paths = (
{
closed = 1;
nodes = (
"168 317 LINE SMOOTH",
"168 92 OFFCURVE",
"260 -20 OFFCURVE",
"473 -20 CURVE SMOOTH",
"540 -20 OFFCURVE",
"618 -7 OFFCURVE",
"659 10 CURVE",
"659 137 LINE",
"623 128 OFFCURVE",
"543 117 OFFCURVE",
"494 117 CURVE SMOOTH",
"378 117 OFFCURVE",
"334 183 OFFCURVE",
"334 322 CURVE SMOOTH",
"334 1096 LINE",
"168 1096 LINE"
);
}
);
width = 694;
}
);
note = iota;
unicode = 03B9;
},
{
glyphname = lambda;
lastChange = "2017-04-22 20:56:27 +0000";
layers = (
{
layerId = "2E634D02-5A4A-4A55-A314-31ACA041593B";
paths = (
{
closed = 1;
nodes = (
"412 586 LINE SMOOTH",
"471 725 OFFCURVE",
"509 834 OFFCURVE",
"528 911 CURVE",
"537 911 LINE",
"552 847 OFFCURVE",
"587 735 OFFCURVE",
"643 575 CURVE SMOOTH",
"799 139 LINE SMOOTH",
"838 28 OFFCURVE",
"886 -20 OFFCURVE",
"985 -20 CURVE SMOOTH",
"1026 -20 OFFCURVE",
"1062 -12 OFFCURVE",
"1094 4 CURVE",
"1094 125 LINE",
"1072 118 OFFCURVE",
"1052 115 OFFCURVE",
"1034 115 CURVE SMOOTH",
"987 115 OFFCURVE",
"963 150 OFFCURVE",
"938 215 CURVE SMOOTH",
"575 1227 LINE SMOOTH",
"539 1328 OFFCURVE",
"506 1401 OFFCURVE",
"477 1444 CURVE SMOOTH",
"418 1531 OFFCURVE",
"342 1569 OFFCURVE",
"221 1569 CURVE SMOOTH",
"179 1569 OFFCURVE",
"135 1563 OFFCURVE",
"90 1552 CURVE",
"90 1419 LINE",
"128 1428 OFFCURVE",
"166 1432 OFFCURVE",
"205 1432 CURVE SMOOTH",
"238 1432 OFFCURVE",
"265 1426 OFFCURVE",
"288 1414 CURVE SMOOTH",
"332 1390 OFFCURVE",
"361 1354 OFFCURVE",
"401 1241 CURVE SMOOTH",
"459 1079 LINE",
"-14 0 LINE",
"158 0 LINE"
);
}
);
width = 1094;
}
);
note = lambda;
unicode = 03BB;
},
{
glyphname = nu;
lastChange = "2017-04-22 20:56:27 +0000";
layers = (
{
layerId = "2E634D02-5A4A-4A55-A314-31ACA041593B";
paths = (
{
closed = 1;
nodes = (
"594 0 LINE",
"894 300 OFFCURVE",
"1026 612 OFFCURVE",
"1026 1096 CURVE",
"860 1096 LINE",
"860 647 OFFCURVE",
"760 372 OFFCURVE",
"524 139 CURVE",
"516 139 LINE",
"495 222 OFFCURVE",
"426 417 OFFCURVE",
"391 506 CURVE SMOOTH",
"172 1096 LINE",
"0 1096 LINE",
"408 0 LINE"
);
}
);
width = 1110;
}
);
note = nu;
unicode = 03BD;
},
{
glyphname = xi;
lastChange = "2017-04-22 20:56:27 +0000";
layers = (
{
layerId = "2E634D02-5A4A-4A55-A314-31ACA041593B";
paths = (
{
closed = 1;
nodes = (
"684 883 LINE SMOOTH",
"451 883 OFFCURVE",
"342 953 OFFCURVE",
"342 1106 CURVE SMOOTH",
"342 1169 OFFCURVE",
"363 1225 OFFCURVE",
"406 1273 CURVE SMOOTH",
"490 1369 OFFCURVE",
"650 1425 OFFCURVE",
"823 1425 CURVE SMOOTH",
"874 1425 LINE",
"874 1556 LINE",
"176 1556 LINE",
"176 1415 LINE",
"244 1415 LINE SMOOTH",
"321 1415 OFFCURVE",
"402 1419 OFFCURVE",
"487 1427 CURVE",
"266 1360 OFFCURVE",
"182 1258 OFFCURVE",
"182 1102 CURVE SMOOTH",
"182 957 OFFCURVE",
"254 864 OFFCURVE",
"399 821 CURVE",
"399 809 LINE",
"228 757 OFFCURVE",
"113 607 OFFCURVE",
"113 420 CURVE SMOOTH",
"113 185 OFFCURVE",
"245 55 OFFCURVE",
"512 10 CURVE SMOOTH",
"607 -7 OFFCURVE",
"674 -25 OFFCURVE",
"713 -45 CURVE SMOOTH",
"751 -66 OFFCURVE",
"770 -94 OFFCURVE",
"770 -131 CURVE SMOOTH",
"770 -200 OFFCURVE",
"722 -306 OFFCURVE",
"651 -401 CURVE",
"807 -401 LINE",
"896 -269 OFFCURVE",
"928 -175 OFFCURVE",
"928 -88 CURVE SMOOTH",
"928 32 OFFCURVE",
"840 102 OFFCURVE",
"651 141 CURVE SMOOTH",
"539 165 OFFCURVE",
"448 185 OFFCURVE",
"385 226 CURVE SMOOTH",
"321 266 OFFCURVE",
"287 327 OFFCURVE",
"287 434 CURVE SMOOTH",
"287 623 OFFCURVE",
"441 754 OFFCURVE",
"676 754 CURVE SMOOTH",
"854 754 LINE",
"854 883 LINE"
);
}
);
width = 973;
}
);
note = xi;
unicode = 03BE;
},
{
glyphname = pi;
lastChange = "2017-04-22 20:56:27 +0000";
layers = (
{
layerId = "2E634D02-5A4A-4A55-A314-31ACA041593B";
paths = (
{
closed = 1;
nodes = (
"1092 117 OFFCURVE",
"1055 147 OFFCURVE",
"1055 246 CURVE SMOOTH",
"1055 954 LINE",
"1268 954 LINE",
"1268 1096 LINE",
"168 1096 LINE",
"25 1028 LINE",
"25 954 LINE",
"246 954 LINE",
"246 0 LINE",
"412 0 LINE",
"412 954 LINE",
"889 954 LINE",
"889 233 LINE SMOOTH",
"889 64 OFFCURVE",
"962 -20 OFFCURVE",
"1108 -20 CURVE SMOOTH",
"1164 -20 OFFCURVE",
"1206 -12 OFFCURVE",
"1235 4 CURVE",
"1235 135 LINE",
"1203 123 OFFCURVE",
"1174 117 OFFCURVE",
"1149 117 CURVE SMOOTH"
);
}
);
width = 1331;
}
);
note = pi;
unicode = 03C0;
},
{
glyphname = rho;
lastChange = "2017-04-22 20:56:27 +0000";
layers = (
{
layerId = "2E634D02-5A4A-4A55-A314-31ACA041593B";
paths = (
{
closed = 1;
nodes = (
"1122 901 OFFCURVE",
"943 1116 OFFCURVE",
"651 1116 CURVE SMOOTH",
"339 1116 OFFCURVE",
"166 918 OFFCURVE",
"166 563 CURVE SMOOTH",
"166 -492 LINE",
"334 -492 LINE",
"334 -199 LINE SMOOTH",
"334 -58 OFFCURVE",
"331 33 OFFCURVE",
"326 74 CURVE",
"334 74 LINE",
"414 11 OFFCURVE",
"514 -20 OFFCURVE",
"633 -20 CURVE SMOOTH",
"944 -20 OFFCURVE",
"1122 188 OFFCURVE",
"1122 549 CURVE SMOOTH"
);
},
{
closed = 1;
nodes = (
"860 975 OFFCURVE",
"950 834 OFFCURVE",
"950 549 CURVE SMOOTH",
"950 253 OFFCURVE",
"851 119 OFFCURVE",
"639 119 CURVE SMOOTH",
"517 119 OFFCURVE",
"415 153 OFFCURVE",
"334 221 CURVE",
"334 559 LINE SMOOTH",
"334 838 OFFCURVE",
"432 975 OFFCURVE",
"643 975 CURVE SMOOTH"
);
}
);
width = 1237;
}
);
note = rho;
unicode = 03C1;
},
{
glyphname = sigma1;
lastChange = "2017-04-22 20:56:27 +0000";
layers = (
{
layerId = "2E634D02-5A4A-4A55-A314-31ACA041593B";
paths = (
{
closed = 1;
nodes = (
"287 827 OFFCURVE",
"398 969 OFFCURVE",
"633 969 CURVE SMOOTH",
"709 969 OFFCURVE",
"790 952 OFFCURVE",
"877 918 CURVE",
"930 1059 LINE",
"858 1091 OFFCURVE",
"744 1116 OFFCURVE",
"639 1116 CURVE SMOOTH",
"308 1116 OFFCURVE",
"115 901 OFFCURVE",
"115 520 CURVE SMOOTH",
"115 228 OFFCURVE",
"242 59 OFFCURVE",
"514 10 CURVE SMOOTH",
"579 -2 OFFCURVE",
"629 -14 OFFCURVE",
"666 -27 CURVE SMOOTH",
"739 -52 OFFCURVE",
"772 -80 OFFCURVE",
"772 -133 CURVE SMOOTH",
"772 -200 OFFCURVE",
"723 -308 OFFCURVE",
"651 -401 CURVE",
"807 -401 LINE",
"896 -274 OFFCURVE",
"928 -176 OFFCURVE",
"928 -88 CURVE SMOOTH",
"928 32 OFFCURVE",
"846 98 OFFCURVE",
"649 141 CURVE SMOOTH",
"542 164 OFFCURVE",
"465 188 OFFCURVE",
"418 215 CURVE SMOOTH",
"322 268 OFFCURVE",
"287 342 OFFCURVE",
"287 522 CURVE SMOOTH"
);
}
);
width = 987;
}
);
note = sigma1;
unicode = 03C2;
},
{
glyphname = sigma;
lastChange = "2017-04-22 20:56:27 +0000";
layers = (
{
layerId = "2E634D02-5A4A-4A55-A314-31ACA041593B";
paths = (
{
closed = 1;
nodes = (
"1120 694 OFFCURVE",
"1061 843 OFFCURVE",
"942 954 CURVE",
"1206 954 LINE",
"1206 1096 LINE",
"707 1096 LINE SMOOTH",
"312 1096 OFFCURVE",
"115 905 OFFCURVE",
"115 522 CURVE SMOOTH",
"115 183 OFFCURVE",
"301 -20 OFFCURVE",
"614 -20 CURVE SMOOTH",
"717 -20 OFFCURVE",
"806 2 OFFCURVE",
"883 45 CURVE SMOOTH",
"1035 132 OFFCURVE",
"1120 299 OFFCURVE",
"1120 508 CURVE SMOOTH"
);
},
{
closed = 1;
nodes = (
"287 821 OFFCURVE",
"413 954 OFFCURVE",
"709 954 CURVE SMOOTH",
"774 954 LINE",
"890 830 OFFCURVE",
"948 678 OFFCURVE",
"948 498 CURVE SMOOTH",
"948 255 OFFCURVE",
"830 119 OFFCURVE",
"618 119 CURVE SMOOTH",
"403 119 OFFCURVE",
"287 263 OFFCURVE",
"287 522 CURVE SMOOTH"
);
}
);
width = 1255;
}
);
note = sigma;
unicode = 03C3;
},
{
glyphname = tau;
lastChange = "2017-04-22 20:56:27 +0000";
layers = (
{
layerId = "2E634D02-5A4A-4A55-A314-31ACA041593B";
paths = (
{
closed = 1;
nodes = (
"18 1028 LINE",
"18 954 LINE",
"315 954 LINE",
"315 315 LINE SMOOTH",
"315 88 OFFCURVE",
"425 -25 OFFCURVE",
"666 -25 CURVE SMOOTH",
"730 -25 OFFCURVE",
"813 -12 OFFCURVE",
"860 8 CURVE",
"860 133 LINE",
"824 124 OFFCURVE",
"751 113 OFFCURVE",
"688 113 CURVE SMOOTH",
"551 113 OFFCURVE",
"483 187 OFFCURVE",
"483 336 CURVE SMOOTH",
"483 954 LINE",
"915 954 LINE",
"915 1096 LINE",
"166 1096 LINE"
);
}
);
width = 969;
}
);
note = tau;
unicode = 03C4;
},
{
glyphname = upsilon;
lastChange = "2017-05-07 23:59:40 +0000";
layers = (
{
anchors = (
{
name = top;
position = "{624, 1096}";
}
);
layerId = "2E634D02-5A4A-4A55-A314-31ACA041593B";
paths = (
{
closed = 1;
nodes = (
"963 -20 OFFCURVE",
"1137 174 OFFCURVE",
"1137 598 CURVE SMOOTH",
"1137 785 OFFCURVE",
"1121 904 OFFCURVE",
"1073 1096 CURVE",
"907 1096 LINE",
"952 915 OFFCURVE",
"969 779 OFFCURVE",
"969 606 CURVE SMOOTH",
"969 271 OFFCURVE",
"864 117 OFFCURVE",
"641 117 CURVE SMOOTH",
"437 117 OFFCURVE",
"330 248 OFFCURVE",
"330 504 CURVE SMOOTH",
"330 1096 LINE",
"164 1096 LINE",
"164 496 LINE SMOOTH",
"164 141 OFFCURVE",
"319 -20 OFFCURVE",
"627 -20 CURVE SMOOTH"
);
}
);
width = 1247;
}
);
note = upsilon;
unicode = 03C5;
},
{
glyphname = phi;
lastChange = "2017-04-22 20:56:27 +0000";
layers = (
{
layerId = "2E634D02-5A4A-4A55-A314-31ACA041593B";
paths = (
{
closed = 1;
nodes = (
"807 -18 LINE",
"917 -13 OFFCURVE",
"1013 14 OFFCURVE",
"1096 62 CURVE SMOOTH",
"1261 158 OFFCURVE",
"1356 336 OFFCURVE",
"1356 573 CURVE SMOOTH",
"1356 906 OFFCURVE",
"1198 1116 OFFCURVE",
"958 1116 CURVE SMOOTH",
"759 1116 OFFCURVE",
"643 988 OFFCURVE",
"643 739 CURVE SMOOTH",
"643 119 LINE",
"403 142 OFFCURVE",
"283 286 OFFCURVE",
"283 549 CURVE SMOOTH",
"283 714 OFFCURVE",
"334 858 OFFCURVE",
"453 1014 CURVE",
"322 1104 LINE",
"184 935 OFFCURVE",
"115 752 OFFCURVE",
"115 555 CURVE SMOOTH",
"115 194 OFFCURVE",
"296 -3 OFFCURVE",
"643 -18 CURVE",
"643 -492 LINE",
"807 -492 LINE"
);
},
{
closed = 1;
nodes = (
"1184 304 OFFCURVE",
"1046 140 OFFCURVE",
"807 119 CURVE",
"807 741 LINE SMOOTH",
"807 893 OFFCURVE",
"861 975 OFFCURVE",
"958 975 CURVE SMOOTH",
"1094 975 OFFCURVE",
"1184 818 OFFCURVE",
"1184 571 CURVE SMOOTH"
);
}
);
width = 1470;
}
);
note = phi;
unicode = 03C6;
},
{
glyphname = chi;
lastChange = "2017-04-22 20:56:27 +0000";
layers = (
{
layerId = "2E634D02-5A4A-4A55-A314-31ACA041593B";
paths = (
{
closed = 1;
nodes = (
"130 1102 OFFCURVE",
"90 1096 OFFCURVE",
"57 1085 CURVE",
"57 956 LINE",
"75 963 OFFCURVE",
"96 967 OFFCURVE",
"121 967 CURVE SMOOTH",
"150 967 OFFCURVE",
"176 954 OFFCURVE",
"199 927 CURVE SMOOTH",
"222 900 OFFCURVE",
"247 854 OFFCURVE",
"272 788 CURVE SMOOTH",
"444 344 LINE",
"-20 -492 LINE",
"158 -492 LINE",
"520 172 LINE",
"670 -215 LINE SMOOTH",
"749 -427 OFFCURVE",
"832 -492 OFFCURVE",
"985 -492 CURVE SMOOTH",
"1024 -492 OFFCURVE",
"1064 -487 OFFCURVE",
"1104 -477 CURVE",
"1104 -348 LINE",
"1074 -353 OFFCURVE",
"1044 -356 OFFCURVE",
"1014 -356 CURVE SMOOTH",
"930 -356 OFFCURVE",
"885 -323 OFFCURVE",
"821 -160 CURVE SMOOTH",
"631 324 LINE",
"1059 1096 LINE",
"879 1096 LINE",
"561 487 LINE",
"416 856 LINE SMOOTH",
"387 931 OFFCURVE",
"362 983 OFFCURVE",
"341 1014 CURVE SMOOTH",
"300 1074 OFFCURVE",
"250 1102 OFFCURVE",
"178 1102 CURVE SMOOTH"
);
}
);
width = 1118;
}
);
note = chi;
unicode = 03C7;
},
{
glyphname = psi;
lastChange = "2017-04-22 20:56:27 +0000";
layers = (
{
layerId = "2E634D02-5A4A-4A55-A314-31ACA041593B";
paths = (
{
closed = 1;
nodes = (
"694 121 LINE",
"449 138 OFFCURVE",
"330 287 OFFCURVE",
"330 547 CURVE SMOOTH",
"330 1096 LINE",
"164 1096 LINE",
"164 553 LINE SMOOTH",
"164 190 OFFCURVE",
"342 -6 OFFCURVE",
"694 -18 CURVE",
"694 -492 LINE",
"858 -492 LINE",
"858 -18 LINE",
"1221 3 OFFCURVE",
"1415 212 OFFCURVE",
"1415 580 CURVE SMOOTH",
"1415 743 OFFCURVE",
"1394 915 OFFCURVE",
"1352 1096 CURVE",
"1186 1096 LINE",
"1235 872 OFFCURVE",
"1249 733 OFFCURVE",
"1249 573 CURVE SMOOTH",
"1249 301 OFFCURVE",
"1109 143 OFFCURVE",
"858 123 CURVE",
"858 1554 LINE",
"694 1554 LINE"
);
}
);
width = 1542;
}
);
note = psi;
unicode = 03C8;
},
{
glyphname = omega;
lastChange = "2017-05-07 23:59:40 +0000";
layers = (
{
anchors = (
{
name = bottom;
position = "{792, 0}";
},
{
name = top;
position = "{792, 1096}";
}
);
layerId = "2E634D02-5A4A-4A55-A314-31ACA041593B";
paths = (
{
closed = 1;
nodes = (
"647 -20 OFFCURVE",
"743 41 OFFCURVE",
"786 162 CURVE",
"795 162 LINE",
"840 41 OFFCURVE",
"936 -20 OFFCURVE",
"1083 -20 CURVE SMOOTH",
"1326 -20 OFFCURVE",
"1468 194 OFFCURVE",
"1468 530 CURVE SMOOTH",
"1468 739 OFFCURVE",
"1433 901 OFFCURVE",
"1346 1096 CURVE",
"1174 1096 LINE",
"1266 887 OFFCURVE",
"1298 729 OFFCURVE",
"1298 528 CURVE SMOOTH",
"1298 271 OFFCURVE",
"1214 119 OFFCURVE",
"1071 119 CURVE SMOOTH",
"947 119 OFFCURVE",
"872 216 OFFCURVE",
"872 387 CURVE SMOOTH",
"872 698 LINE",
"711 698 LINE",
"711 387 LINE SMOOTH",
"711 220 OFFCURVE",
"637 119 OFFCURVE",
"512 119 CURVE SMOOTH",
"369 119 OFFCURVE",
"285 271 OFFCURVE",
"285 528 CURVE SMOOTH",
"285 737 OFFCURVE",
"319 888 OFFCURVE",
"410 1096 CURVE",
"238 1096 LINE",
"147 892 OFFCURVE",
"115 738 OFFCURVE",
"115 530 CURVE SMOOTH",
"115 191 OFFCURVE",
"257 -20 OFFCURVE",
"500 -20 CURVE SMOOTH"
);
}
);
width = 1583;
}
);
note = omega;
unicode = 03C9;
},
{
glyphname = afii10051;
lastChange = "2017-04-22 20:56:27 +0000";
layers = (
{
layerId = "2E634D02-5A4A-4A55-A314-31ACA041593B";
paths = (
{
closed = 1;
nodes = (
"1208 -20 OFFCURVE",
"1346 128 OFFCURVE",
"1346 381 CURVE SMOOTH",
"1346 524 LINE SMOOTH",
"1346 761 OFFCURVE",
"1193 893 OFFCURVE",
"920 893 CURVE SMOOTH",
"524 893 LINE",
"524 1311 LINE",
"969 1311 LINE",
"969 1462 LINE",
"18 1462 LINE",
"18 1311 LINE",
"354 1311 LINE",
"354 0 LINE",
"524 0 LINE",
"524 741 LINE",
"905 741 LINE SMOOTH",
"1092 741 OFFCURVE",
"1176 671 OFFCURVE",
"1176 500 CURVE SMOOTH",
"1176 369 LINE SMOOTH",
"1176 220 OFFCURVE",
"1106 133 OFFCURVE",
"971 133 CURVE SMOOTH",
"910 133 OFFCURVE",
"862 139 OFFCURVE",
"825 152 CURVE",
"825 2 LINE",
"861 -13 OFFCURVE",
"911 -20 OFFCURVE",
"975 -20 CURVE SMOOTH"
);
}
);
width = 1503;
}
);
note = afii10051;
unicode = 0402;
},
{
glyphname = afii10053;
lastChange = "2017-04-22 20:56:27 +0000";
layers = (
{
layerId = "2E634D02-5A4A-4A55-A314-31ACA041593B";
paths = (
{
closed = 1;
nodes = (
"952 1331 OFFCURVE",
"1067 1304 OFFCURVE",
"1180 1249 CURVE",
"1251 1397 LINE",
"1132 1456 OFFCURVE",
"994 1485 OFFCURVE",
"836 1485 CURVE SMOOTH",
"391 1485 OFFCURVE",
"125 1201 OFFCURVE",
"125 733 CURVE SMOOTH",
"125 246 OFFCURVE",
"364 -20 OFFCURVE",
"807 -20 CURVE SMOOTH",
"958 -20 OFFCURVE",
"1087 -1 OFFCURVE",
"1194 37 CURVE",
"1194 186 LINE",
"1060 149 OFFCURVE",
"939 131 OFFCURVE",
"831 131 CURVE SMOOTH",
"499 131 OFFCURVE",
"318 325 OFFCURVE",
"305 690 CURVE",
"1032 690 LINE",
"1032 840 LINE",
"309 840 LINE",
"349 1161 OFFCURVE",
"533 1331 OFFCURVE",
"834 1331 CURVE SMOOTH"
);
}
);
width = 1309;
}
);
note = afii10053;
unicode = 0404;
},
{
glyphname = afii10058;
lastChange = "2017-04-22 20:56:27 +0000";
layers = (
{
layerId = "2E634D02-5A4A-4A55-A314-31ACA041593B";
paths = (
{
closed = 1;
nodes = (
"1827 701 OFFCURVE",
"1637 838 OFFCURVE",
"1257 838 CURVE SMOOTH",
"1135 838 LINE",
"1135 1462 LINE",
"457 1462 LINE",
"414 1141 OFFCURVE",
"381 906 OFFCURVE",
"358 757 CURVE SMOOTH",
"335 608 OFFCURVE",
"315 492 OFFCURVE",
"297 409 CURVE SMOOTH",
"278 326 OFFCURVE",
"262 267 OFFCURVE",
"248 233 CURVE SMOOTH",
"219 164 OFFCURVE",
"177 119 OFFCURVE",
"113 119 CURVE SMOOTH",
"71 119 OFFCURVE",
"33 128 OFFCURVE",
"0 145 CURVE",
"0 2 LINE",
"43 -15 OFFCURVE",
"87 -23 OFFCURVE",
"133 -23 CURVE SMOOTH",
"276 -23 OFFCURVE",
"366 56 OFFCURVE",
"419 224 CURVE SMOOTH",
"446 307 OFFCURVE",
"473 436 OFFCURVE",
"501 610 CURVE SMOOTH",
"529 784 OFFCURVE",
"562 1018 OFFCURVE",
"600 1311 CURVE",
"965 1311 LINE",
"965 0 LINE",
"1292 0 LINE SMOOTH",
"1639 0 OFFCURVE",
"1827 151 OFFCURVE",
"1827 426 CURVE SMOOTH"
);
},
{
closed = 1;
nodes = (
"1237 688 LINE SMOOTH",
"1530 688 OFFCURVE",
"1649 610 OFFCURVE",
"1649 426 CURVE SMOOTH",
"1649 239 OFFCURVE",
"1532 147 OFFCURVE",
"1268 147 CURVE SMOOTH",
"1135 147 LINE",
"1135 688 LINE"
);
}
);
width = 1903;
}
);
note = afii10058;
unicode = 0409;
},
{
glyphname = afii10059;
lastChange = "2017-04-22 20:56:27 +0000";
layers = (
{
layerId = "2E634D02-5A4A-4A55-A314-31ACA041593B";
paths = (
{
closed = 1;
nodes = (
"1876 701 OFFCURVE",
"1686 838 OFFCURVE",
"1307 838 CURVE SMOOTH",
"1186 838 LINE",
"1186 1462 LINE",
"1014 1462 LINE",
"1014 840 LINE",
"371 840 LINE",
"371 1462 LINE",
"201 1462 LINE",
"201 0 LINE",
"371 0 LINE",
"371 688 LINE",
"1014 688 LINE",
"1014 0 LINE",
"1343 0 LINE SMOOTH",
"1691 0 OFFCURVE",
"1876 151 OFFCURVE",
"1876 426 CURVE SMOOTH"
);
},
{
closed = 1;
nodes = (
"1288 688 LINE SMOOTH",
"1580 688 OFFCURVE",
"1700 609 OFFCURVE",
"1700 426 CURVE SMOOTH",
"1700 239 OFFCURVE",
"1580 147 OFFCURVE",
"1319 147 CURVE SMOOTH",
"1186 147 LINE",
"1186 688 LINE"
);
}
);
width = 1952;
}
);
note = afii10059;
unicode = 040A;
},
{
glyphname = afii10060;
lastChange = "2017-04-22 20:56:27 +0000";
layers = (
{
layerId = "2E634D02-5A4A-4A55-A314-31ACA041593B";
paths = (
{
closed = 1;
nodes = (
"1032 1311 LINE",
"1032 1462 LINE",
"18 1462 LINE",
"18 1311 LINE",
"354 1311 LINE",
"354 0 LINE",
"524 0 LINE",
"524 741 LINE",
"911 741 LINE SMOOTH",
"1098 741 OFFCURVE",
"1176 670 OFFCURVE",
"1176 502 CURVE SMOOTH",
"1176 0 LINE",
"1346 0 LINE",
"1346 524 LINE SMOOTH",
"1346 765 OFFCURVE",
"1197 893 OFFCURVE",
"924 893 CURVE SMOOTH",
"524 893 LINE",
"524 1311 LINE"
);
}
);
width = 1503;
}
);
note = afii10060;
unicode = 040B;
},
{
glyphname = afii10145;
lastChange = "2017-04-22 20:56:27 +0000";
layers = (
{
layerId = "2E634D02-5A4A-4A55-A314-31ACA041593B";
paths = (
{
closed = 1;
nodes = (
"1122 1462 LINE",
"1122 154 LINE",
"371 154 LINE",
"371 1462 LINE",
"201 1462 LINE",
"201 0 LINE",
"651 0 LINE",
"651 -381 LINE",
"827 -381 LINE",
"827 0 LINE",
"1292 0 LINE",
"1292 1462 LINE"
);
}
);
width = 1493;
}
);
note = afii10145;
unicode = 040F;
},
{
glyphname = afii10018;
lastChange = "2017-04-22 20:56:27 +0000";
layers = (
{
layerId = "2E634D02-5A4A-4A55-A314-31ACA041593B";
paths = (
{
closed = 1;
nodes = (
"1149 525 OFFCURVE",
"1130 604 OFFCURVE",
"1091 662 CURVE SMOOTH",
"1014 778 OFFCURVE",
"855 838 OFFCURVE",
"598 838 CURVE SMOOTH",
"371 838 LINE",
"371 1311 LINE",
"1063 1311 LINE",
"1063 1462 LINE",
"201 1462 LINE",
"201 0 LINE",
"629 0 LINE SMOOTH",
"977 0 OFFCURVE",
"1149 135 OFFCURVE",
"1149 426 CURVE SMOOTH"
);
},
{
closed = 1;
nodes = (
"578 688 LINE SMOOTH",
"870 688 OFFCURVE",
"973 615 OFFCURVE",
"973 426 CURVE SMOOTH",
"973 227 OFFCURVE",
"863 147 OFFCURVE",
"610 147 CURVE SMOOTH",
"371 147 LINE",
"371 688 LINE"
);
}
);
width = 1255;
}
);
note = afii10018;
unicode = 0411;
},
{
glyphname = afii10021;
lastChange = "2017-04-22 20:56:27 +0000";
layers = (
{
layerId = "2E634D02-5A4A-4A55-A314-31ACA041593B";
paths = (
{
closed = 1;
nodes = (
"1169 154 LINE",
"1169 1462 LINE",
"512 1462 LINE",
"496 1053 OFFCURVE",
"332 499 OFFCURVE",
"127 154 CURVE",
"14 154 LINE",
"14 -381 LINE",
"176 -381 LINE",
"176 0 LINE",
"1192 0 LINE",
"1192 -381 LINE",
"1354 -381 LINE",
"1354 154 LINE"
);
},
{
closed = 1;
nodes = (
"488 466 OFFCURVE",
"642 986 OFFCURVE",
"666 1309 CURVE",
"999 1309 LINE",
"999 154 LINE",
"305 154 LINE"
);
}
);
width = 1399;
}
);
note = afii10021;
unicode = 0414;
},
{
glyphname = afii10024;
lastChange = "2017-05-07 23:59:40 +0000";
layers = (
{
anchors = (
{
name = bottomright;
position = "{1709, 0}";
},
{
name = top;
position = "{865, 1462}";
}
);
layerId = "2E634D02-5A4A-4A55-A314-31ACA041593B";
paths = (
{
closed = 1;
nodes = (
"201 0 LINE",
"782 741 LINE",
"782 0 LINE",
"946 0 LINE",
"946 741 LINE",
"1528 0 LINE",
"1724 0 LINE",
"1130 754 LINE",
"1706 1462 LINE",
"1516 1462 LINE",
"946 754 LINE",
"946 1462 LINE",
"782 1462 LINE",
"782 754 LINE",
"213 1462 LINE",
"23 1462 LINE",
"598 752 LINE",
"2 0 LINE"
);
}
);
width = 1729;
}
);
note = afii10024;
unicode = 0416;
},
{
glyphname = afii10025;
lastChange = "2017-05-07 23:59:40 +0000";
layers = (
{
anchors = (
{
name = bottom;
position = "{595, 0}";
},
{
name = top;
position = "{595, 1462}";
}
);
layerId = "2E634D02-5A4A-4A55-A314-31ACA041593B";
paths = (
{
closed = 1;
nodes = (
"1049 1341 OFFCURVE",
"869 1483 OFFCURVE",
"569 1483 CURVE SMOOTH",
"389 1483 OFFCURVE",
"217 1431 OFFCURVE",
"82 1331 CURVE",
"166 1217 LINE",
"322 1316 OFFCURVE",
"424 1341 OFFCURVE",
"571 1341 CURVE SMOOTH",
"754 1341 OFFCURVE",
"870 1249 OFFCURVE",
"870 1106 CURVE SMOOTH",
"870 930 OFFCURVE",
"713 827 OFFCURVE",
"440 827 CURVE SMOOTH",
"231 827 LINE",
"231 684 LINE",
"449 684 LINE SMOOTH",
"746 684 OFFCURVE",
"897 591 OFFCURVE",
"897 412 CURVE SMOOTH",
"897 224 OFFCURVE",
"760 121 OFFCURVE",
"496 121 CURVE SMOOTH",
"359 121 OFFCURVE",
"202 156 OFFCURVE",
"74 217 CURVE",
"74 59 LINE",
"183 6 OFFCURVE",
"322 -20 OFFCURVE",
"492 -20 CURVE SMOOTH",
"864 -20 OFFCURVE",
"1077 141 OFFCURVE",
"1077 414 CURVE SMOOTH",
"1077 607 OFFCURVE",
"949 731 OFFCURVE",
"705 764 CURVE",
"705 772 LINE",
"920 804 OFFCURVE",
"1049 928 OFFCURVE",
"1049 1120 CURVE SMOOTH"
);
}
);
width = 1190;
}
);
note = afii10025;
unicode = 0417;
},
{
glyphname = afii10026;
lastChange = "2017-05-07 23:59:40 +0000";
layers = (
{
anchors = (
{
name = bottomright;
position = "{1541, 0}";
},
{
name = top;
position = "{781, 1462}";
}
);
layerId = "2E634D02-5A4A-4A55-A314-31ACA041593B";
paths = (
{
closed = 1;
nodes = (
"389 0 LINE",
"1210 1227 LINE",
"1219 1227 LINE",
"1208 1080 OFFCURVE",
"1202 939 OFFCURVE",
"1202 805 CURVE SMOOTH",
"1202 0 LINE",
"1362 0 LINE",
"1362 1462 LINE",
"1176 1462 LINE",
"356 242 LINE",
"348 242 LINE",
"357 363 OFFCURVE",
"362 499 OFFCURVE",
"362 649 CURVE SMOOTH",
"362 1462 LINE",
"203 1462 LINE",
"203 0 LINE"
);
}
);
width = 1561;
}
);
note = afii10026;
unicode = 0418;
},
{
glyphname = afii10028;
lastChange = "2017-05-07 23:59:40 +0000";
layers = (
{
anchors = (
{
name = bottomright;
position = "{1233, 0}";
},
{
name = top;
position = "{627, 1462}";
}
);
layerId = "2E634D02-5A4A-4A55-A314-31ACA041593B";
paths = (
{
closed = 1;
nodes = (
"1225 1462 LINE",
"1030 1462 LINE",
"371 754 LINE",
"371 1462 LINE",
"201 1462 LINE",
"201 0 LINE",
"371 0 LINE",
"371 741 LINE",
"1047 0 LINE",
"1253 0 LINE",
"578 752 LINE"
);
}
);
width = 1253;
}
);
note = afii10028;
unicode = 041A;
},
{
glyphname = afii10029;
lastChange = "2017-04-22 20:56:27 +0000";
layers = (
{
layerId = "2E634D02-5A4A-4A55-A314-31ACA041593B";
paths = (
{
closed = 1;
nodes = (
"455 1462 LINE",
"418 1169 OFFCURVE",
"384 922 OFFCURVE",
"353 722 CURVE SMOOTH",
"322 521 OFFCURVE",
"296 385 OFFCURVE",
"276 314 CURVE SMOOTH",
"235 170 OFFCURVE",
"184 119 OFFCURVE",
"113 119 CURVE SMOOTH",
"74 119 OFFCURVE",
"36 128 OFFCURVE",
"0 145 CURVE",
"0 2 LINE",
"39 -15 OFFCURVE",
"84 -23 OFFCURVE",
"133 -23 CURVE SMOOTH",
"301 -26 OFFCURVE",
"396 75 OFFCURVE",
"458 371 CURVE SMOOTH",
"489 518 OFFCURVE",
"524 752 OFFCURVE",
"565 1071 CURVE SMOOTH",
"596 1311 LINE",
"1071 1311 LINE",
"1071 0 LINE",
"1241 0 LINE",
"1241 1462 LINE"
);
}
);
width = 1442;
}
);
note = afii10029;
unicode = 041B;
},
{
glyphname = afii10037;
lastChange = "2017-05-07 23:59:40 +0000";
layers = (
{
anchors = (
{
name = top;
position = "{636, 1462}";
}
);
layerId = "2E634D02-5A4A-4A55-A314-31ACA041593B";
paths = (
{
closed = 1;
nodes = (
"376 -20 OFFCURVE",
"445 -7 OFFCURVE",
"502 20 CURVE SMOOTH",
"614 72 OFFCURVE",
"693 167 OFFCURVE",
"805 416 CURVE SMOOTH",
"1272 1462 LINE",
"1092 1462 LINE",
"733 641 LINE SMOOTH",
"726 626 OFFCURVE",
"713 591 OFFCURVE",
"694 535 CURVE",
"686 535 LINE",
"677 566 OFFCURVE",
"664 598 OFFCURVE",
"647 631 CURVE SMOOTH",
"215 1462 LINE",
"27 1462 LINE",
"596 373 LINE",
"508 188 OFFCURVE",
"434 133 OFFCURVE",
"287 133 CURVE SMOOTH",
"223 133 OFFCURVE",
"160 147 OFFCURVE",
"98 176 CURVE",
"98 10 LINE",
"154 -10 OFFCURVE",
"219 -20 OFFCURVE",
"293 -20 CURVE SMOOTH"
);
}
);
width = 1272;
}
);
note = afii10037;
unicode = 0423;
},
{
glyphname = afii10040;
lastChange = "2017-04-22 20:56:27 +0000";
layers = (
{
layerId = "2E634D02-5A4A-4A55-A314-31ACA041593B";
paths = (
{
closed = 1;
nodes = (
"1122 1462 LINE",
"1122 154 LINE",
"371 154 LINE",
"371 1462 LINE",
"201 1462 LINE",
"201 0 LINE",
"1303 0 LINE",
"1303 -381 LINE",
"1464 -381 LINE",
"1464 154 LINE",
"1292 154 LINE",
"1292 1462 LINE"
);
}
);
width = 1509;
}
);
note = afii10040;
unicode = 0426;
},
{
glyphname = afii10041;
lastChange = "2017-05-07 23:59:40 +0000";
layers = (
{
anchors = (
{
name = bottomright;
position = "{1403, 0}";
},
{
name = top;
position = "{712, 1462}";
}
);
layerId = "2E634D02-5A4A-4A55-A314-31ACA041593B";
paths = (
{
closed = 1;
nodes = (
"1053 1462 LINE",
"1053 748 LINE",
"828 675 OFFCURVE",
"739 664 OFFCURVE",
"610 664 CURVE SMOOTH",
"419 664 OFFCURVE",
"340 740 OFFCURVE",
"340 901 CURVE SMOOTH",
"340 1462 LINE",
"170 1462 LINE",
"170 881 LINE SMOOTH",
"170 642 OFFCURVE",
"324 512 OFFCURVE",
"600 512 CURVE SMOOTH",
"741 512 OFFCURVE",
"854 533 OFFCURVE",
"1053 604 CURVE",
"1053 0 LINE",
"1223 0 LINE",
"1223 1462 LINE"
);
}
);
width = 1423;
}
);
note = afii10041;
unicode = 0427;
},
{
glyphname = afii10042;
lastChange = "2017-04-22 20:56:27 +0000";
layers = (
{
layerId = "2E634D02-5A4A-4A55-A314-31ACA041593B";
paths = (
{
closed = 1;
nodes = (
"1741 1462 LINE",
"1741 154 LINE",
"1141 154 LINE",
"1141 1462 LINE",
"971 1462 LINE",
"971 154 LINE",
"371 154 LINE",
"371 1462 LINE",
"201 1462 LINE",
"201 0 LINE",
"1913 0 LINE",
"1913 1462 LINE"
);
}
);
width = 2114;
}
);
note = afii10042;
unicode = 0428;
},
{
glyphname = afii10043;
lastChange = "2017-04-22 20:56:27 +0000";
layers = (
{
layerId = "2E634D02-5A4A-4A55-A314-31ACA041593B";
paths = (
{
closed = 1;
nodes = (
"1890 -381 LINE",
"2052 -381 LINE",
"2052 154 LINE",
"1880 154 LINE",
"1880 1462 LINE",
"1710 1462 LINE",
"1710 154 LINE",
"1126 154 LINE",
"1126 1462 LINE",
"954 1462 LINE",
"954 154 LINE",
"371 154 LINE",
"371 1462 LINE",
"201 1462 LINE",
"201 0 LINE",
"1890 0 LINE"
);
}
);
width = 2116;
}
);
note = afii10043;
unicode = 0429;
},
{
glyphname = afii10044;
lastChange = "2017-05-07 23:59:40 +0000";
layers = (
{
anchors = (
{
name = top;
position = "{705, 1462}";
}
);
layerId = "2E634D02-5A4A-4A55-A314-31ACA041593B";
paths = (
{
closed = 1;
nodes = (
"1303 702 OFFCURVE",
"1116 838 OFFCURVE",
"768 838 CURVE SMOOTH",
"524 838 LINE",
"524 1462 LINE",
"18 1462 LINE",
"18 1311 LINE",
"354 1311 LINE",
"354 0 LINE",
"795 0 LINE SMOOTH",
"1127 0 OFFCURVE",
"1303 151 OFFCURVE",
"1303 426 CURVE SMOOTH"
);
},
{
closed = 1;
nodes = (
"748 688 LINE SMOOTH",
"1019 688 OFFCURVE",
"1126 607 OFFCURVE",
"1126 426 CURVE SMOOTH",
"1126 239 OFFCURVE",
"1017 147 OFFCURVE",
"776 147 CURVE SMOOTH",
"524 147 LINE",
"524 688 LINE"
);
}
);
width = 1409;
}
);
note = afii10044;
unicode = 042A;
},
{
glyphname = afii10045;
lastChange = "2017-05-07 23:59:40 +0000";
layers = (
{
anchors = (
{
name = top;
position = "{874, 1462}";
}
);
layerId = "2E634D02-5A4A-4A55-A314-31ACA041593B";
paths = (
{
closed = 1;
nodes = (
"969 0 OFFCURVE",
"1145 151 OFFCURVE",
"1145 426 CURVE SMOOTH",
"1145 702 OFFCURVE",
"958 838 OFFCURVE",
"610 838 CURVE SMOOTH",
"371 838 LINE",
"371 1462 LINE",
"201 1462 LINE",
"201 0 LINE",
"637 0 LINE SMOOTH"
);
},
{
closed = 1;
nodes = (
"590 686 LINE SMOOTH",
"857 686 OFFCURVE",
"969 609 OFFCURVE",
"969 426 CURVE SMOOTH",
"969 239 OFFCURVE",
"859 145 OFFCURVE",
"618 145 CURVE SMOOTH",
"371 145 LINE",
"371 686 LINE"
);
},
{
closed = 1;
nodes = (
"1376 1462 LINE",
"1376 0 LINE",
"1546 0 LINE",
"1546 1462 LINE"
);
}
);
width = 1747;
}
);
note = afii10045;
unicode = 042B;
},
{
glyphname = afii10046;
lastChange = "2017-04-22 20:56:27 +0000";
layers = (
{
layerId = "2E634D02-5A4A-4A55-A314-31ACA041593B";
paths = (
{
closed = 1;
nodes = (
"1210 694 OFFCURVE",
"1018 838 OFFCURVE",
"662 838 CURVE SMOOTH",
"371 838 LINE",
"371 1462 LINE",
"201 1462 LINE",
"201 0 LINE",
"688 0 LINE SMOOTH",
"1023 0 OFFCURVE",
"1210 155 OFFCURVE",
"1210 426 CURVE SMOOTH"
);
},
{
closed = 1;
nodes = (
"641 688 LINE SMOOTH",
"916 688 OFFCURVE",
"1034 606 OFFCURVE",
"1034 426 CURVE SMOOTH",
"1034 240 OFFCURVE",
"913 147 OFFCURVE",
"670 147 CURVE SMOOTH",
"371 147 LINE",
"371 688 LINE"
);
}
);
width = 1317;
}
);
note = afii10046;
unicode = 042C;
},
{
glyphname = afii10047;
lastChange = "2017-05-07 23:59:40 +0000";
layers = (
{
anchors = (
{
name = top;
position = "{645, 1462}";
}
);
layerId = "2E634D02-5A4A-4A55-A314-31ACA041593B";
paths = (
{
closed = 1;
nodes = (
"759 1331 OFFCURVE",
"950 1149 OFFCURVE",
"979 844 CURVE",
"262 844 LINE",
"262 692 LINE",
"981 692 LINE",
"970 329 OFFCURVE",
"787 131 OFFCURVE",
"426 131 CURVE SMOOTH",
"294 131 OFFCURVE",
"183 158 OFFCURVE",
"72 186 CURVE",
"72 37 LINE",
"176 -1 OFFCURVE",
"304 -20 OFFCURVE",
"455 -20 CURVE SMOOTH",
"911 -20 OFFCURVE",
"1161 259 OFFCURVE",
"1161 760 CURVE SMOOTH",
"1161 907 OFFCURVE",
"1134 1035 OFFCURVE",
"1080 1144 CURVE SMOOTH",
"972 1361 OFFCURVE",
"758 1483 OFFCURVE",
"469 1483 CURVE SMOOTH",
"312 1483 OFFCURVE",
"176 1455 OFFCURVE",
"61 1399 CURVE",
"133 1255 LINE",
"241 1306 OFFCURVE",
"352 1331 OFFCURVE",
"467 1331 CURVE SMOOTH"
);
}
);
width = 1290;
}
);
note = afii10047;
unicode = 042D;
},
{
glyphname = afii10048;
lastChange = "2017-05-07 23:59:40 +0000";
layers = (
{
anchors = (
{
name = top;
position = "{1075, 1462}";
}
);
layerId = "2E634D02-5A4A-4A55-A314-31ACA041593B";
paths = (
{
closed = 1;
nodes = (
"2023 1201 OFFCURVE",
"1783 1485 OFFCURVE",
"1374 1485 CURVE SMOOTH",
"991 1485 OFFCURVE",
"758 1255 OFFCURVE",
"727 840 CURVE",
"371 840 LINE",
"371 1462 LINE",
"201 1462 LINE",
"201 0 LINE",
"371 0 LINE",
"371 688 LINE",
"725 688 LINE",
"740 233 OFFCURVE",
"977 -20 OFFCURVE",
"1378 -20 CURVE SMOOTH",
"1783 -20 OFFCURVE",
"2023 261 OFFCURVE",
"2023 733 CURVE SMOOTH"
);
},
{
closed = 1;
nodes = (
"903 1126 OFFCURVE",
"1065 1333 OFFCURVE",
"1376 1333 CURVE SMOOTH",
"1685 1333 OFFCURVE",
"1843 1130 OFFCURVE",
"1843 733 CURVE SMOOTH",
"1843 336 OFFCURVE",
"1684 129 OFFCURVE",
"1372 129 CURVE SMOOTH",
"1064 129 OFFCURVE",
"903 338 OFFCURVE",
"903 733 CURVE SMOOTH"
);
}
);
width = 2150;
}
);
note = afii10048;
unicode = 042E;
},
{
glyphname = afii10049;
lastChange = "2017-05-07 23:59:40 +0000";
layers = (
{
anchors = (
{
name = top;
position = "{652, 1462}";
}
);
layerId = "2E634D02-5A4A-4A55-A314-31ACA041593B";
paths = (
{
closed = 1;
nodes = (
"932 0 LINE",
"1102 0 LINE",
"1102 1462 LINE",
"700 1462 LINE SMOOTH",
"333 1462 OFFCURVE",
"154 1316 OFFCURVE",
"154 1055 CURVE SMOOTH",
"154 844 OFFCURVE",
"246 707 OFFCURVE",
"461 639 CURVE",
"51 0 LINE",
"252 0 LINE",
"635 610 LINE",
"932 610 LINE"
);
},
{
closed = 1;
nodes = (
"711 756 LINE SMOOTH",
"458 756 OFFCURVE",
"332 853 OFFCURVE",
"332 1047 CURVE SMOOTH",
"332 1236 OFFCURVE",
"461 1315 OFFCURVE",
"705 1315 CURVE SMOOTH",
"932 1315 LINE",
"932 756 LINE"
);
}
);
width = 1303;
}
);
note = afii10049;
unicode = 042F;
},
{
glyphname = afii10066;
lastChange = "2017-04-22 20:56:27 +0000";
layers = (
{
layerId = "2E634D02-5A4A-4A55-A314-31ACA041593B";
paths = (
{
closed = 1;
nodes = (
"119 226 OFFCURVE",
"304 -20 OFFCURVE",
"612 -20 CURVE SMOOTH",
"924 -20 OFFCURVE",
"1108 183 OFFCURVE",
"1108 526 CURVE SMOOTH",
"1108 835 OFFCURVE",
"949 1020 OFFCURVE",
"680 1020 CURVE SMOOTH",
"537 1020 OFFCURVE",
"398 952 OFFCURVE",
"315 840 CURVE",
"303 840 LINE",
"312 1123 OFFCURVE",
"407 1287 OFFCURVE",
"600 1331 CURVE SMOOTH",
"699 1354 OFFCURVE",
"865 1384 OFFCURVE",
"1096 1423 CURVE",
"1065 1569 LINE",
"920 1544 OFFCURVE",
"752 1511 OFFCURVE",
"561 1470 CURVE SMOOTH",
"254 1403 OFFCURVE",
"119 1137 OFFCURVE",
"119 657 CURVE SMOOTH"
);
},
{
closed = 1;
nodes = (
"398 119 OFFCURVE",
"289 306 OFFCURVE",
"289 657 CURVE",
"310 694 OFFCURVE",
"341 729 OFFCURVE",
"380 764 CURVE SMOOTH",
"458 833 OFFCURVE",
"554 879 OFFCURVE",
"655 879 CURVE SMOOTH",
"840 879 OFFCURVE",
"932 755 OFFCURVE",
"932 508 CURVE SMOOTH",
"932 249 OFFCURVE",
"830 119 OFFCURVE",
"627 119 CURVE SMOOTH"
);
}
);
width = 1221;
}
);
note = afii10066;
unicode = 0431;
},
{
glyphname = afii10067;
lastChange = "2017-04-22 20:56:27 +0000";
layers = (
{
layerId = "2E634D02-5A4A-4A55-A314-31ACA041593B";
paths = (
{
closed = 1;
nodes = (
"1065 1004 OFFCURVE",
"929 1096 OFFCURVE",
"657 1096 CURVE SMOOTH",
"176 1096 LINE",
"176 0 LINE",
"659 0 LINE SMOOTH",
"947 0 OFFCURVE",
"1100 115 OFFCURVE",
"1100 319 CURVE SMOOTH",
"1100 467 OFFCURVE",
"1018 550 OFFCURVE",
"831 575 CURVE",
"831 584 LINE",
"979 609 OFFCURVE",
"1065 678 OFFCURVE",
"1065 821 CURVE SMOOTH"
);
},
{
closed = 1;
nodes = (
"934 203 OFFCURVE",
"838 139 OFFCURVE",
"647 139 CURVE SMOOTH",
"342 139 LINE",
"342 500 LINE",
"643 500 LINE SMOOTH",
"851 500 OFFCURVE",
"934 449 OFFCURVE",
"934 330 CURVE SMOOTH"
);
},
{
closed = 1;
nodes = (
"903 690 OFFCURVE",
"828 643 OFFCURVE",
"623 643 CURVE SMOOTH",
"342 643 LINE",
"342 952 LINE",
"655 952 LINE SMOOTH",
"822 952 OFFCURVE",
"903 912 OFFCURVE",
"903 805 CURVE SMOOTH"
);
}
);
width = 1165;
}
);
note = afii10067;
unicode = 0432;
},
{
glyphname = afii10068;
lastChange = "2017-05-07 23:59:40 +0000";
layers = (
{
anchors = (
{
name = bottomright;
position = "{857, 0}";
},
{
name = top;
position = "{439, 1096}";
}
);
layerId = "2E634D02-5A4A-4A55-A314-31ACA041593B";
paths = (
{
closed = 1;
nodes = (
"176 1096 LINE",
"176 0 LINE",
"342 0 LINE",
"342 954 LINE",
"836 954 LINE",
"836 1096 LINE"
);
}
);
width = 877;
}
);
note = afii10068;
unicode = 0433;
},
{
glyphname = afii10069;
lastChange = "2017-04-22 20:56:27 +0000";
layers = (
{
layerId = "2E634D02-5A4A-4A55-A314-31ACA041593B";
paths = (
{
closed = 1;
nodes = (
"971 143 LINE",
"971 1096 LINE",
"416 1096 LINE",
"412 721 OFFCURVE",
"306 386 OFFCURVE",
"127 143 CURVE",
"41 143 LINE",
"41 -379 LINE",
"201 -379 LINE",
"201 0 LINE",
"967 0 LINE",
"967 -379 LINE",
"1128 -379 LINE",
"1128 143 LINE"
);
},
{
closed = 1;
nodes = (
"443 336 OFFCURVE",
"548 669 OFFCURVE",
"565 965 CURVE",
"811 965 LINE",
"811 143 LINE",
"299 143 LINE"
);
}
);
width = 1171;
}
);
note = afii10069;
unicode = 0434;
},
{
glyphname = afii10072;
lastChange = "2017-05-07 23:59:40 +0000";
layers = (
{
anchors = (
{
name = bottomright;
position = "{1487, 0}";
},
{
name = top;
position = "{754, 1096}";
}
);
layerId = "2E634D02-5A4A-4A55-A314-31ACA041593B";
paths = (
{
closed = 1;
nodes = (
"225 1094 LINE",
"43 1094 LINE",
"500 563 LINE",
"4 0 LINE",
"195 0 LINE",
"676 555 LINE",
"676 0 LINE",
"829 0 LINE",
"829 555 LINE",
"1311 0 LINE",
"1503 0 LINE",
"1006 563 LINE",
"1464 1094 LINE",
"1282 1094 LINE",
"829 563 LINE",
"829 1094 LINE",
"676 1094 LINE",
"676 563 LINE"
);
}
);
width = 1507;
}
);
note = afii10072;
unicode = 0436;
},
{
glyphname = afii10073;
lastChange = "2017-05-07 23:59:40 +0000";
layers = (
{
anchors = (
{
name = bottom;
position = "{495, 0}";
},
{
name = top;
position = "{495, 1096}";
}
);
layerId = "2E634D02-5A4A-4A55-A314-31ACA041593B";
paths = (
{
closed = 1;
nodes = (
"266 500 LINE",
"418 500 LINE SMOOTH",
"625 500 OFFCURVE",
"729 436 OFFCURVE",
"729 309 CURVE SMOOTH",
"729 185 OFFCURVE",
"630 117 OFFCURVE",
"438 117 CURVE SMOOTH",
"313 117 OFFCURVE",
"190 146 OFFCURVE",
"68 203 CURVE",
"68 51 LINE",
"154 4 OFFCURVE",
"276 -20 OFFCURVE",
"434 -20 CURVE SMOOTH",
"722 -20 OFFCURVE",
"895 98 OFFCURVE",
"895 301 CURVE SMOOTH",
"895 438 OFFCURVE",
"821 529 OFFCURVE",
"653 578 CURVE",
"653 586 LINE",
"790 624 OFFCURVE",
"858 704 OFFCURVE",
"858 827 CURVE SMOOTH",
"858 1006 OFFCURVE",
"703 1116 OFFCURVE",
"451 1116 CURVE SMOOTH",
"317 1116 OFFCURVE",
"193 1091 OFFCURVE",
"80 1040 CURVE",
"139 905 LINE",
"275 961 OFFCURVE",
"341 975 OFFCURVE",
"444 975 CURVE SMOOTH",
"612 975 OFFCURVE",
"696 921 OFFCURVE",
"696 813 CURVE SMOOTH",
"696 698 OFFCURVE",
"592 641 OFFCURVE",
"385 641 CURVE SMOOTH",
"266 641 LINE"
);
}
);
width = 989;
}
);
note = afii10073;
unicode = 0437;
},
{
glyphname = afii10074;
lastChange = "2017-05-07 23:59:40 +0000";
layers = (
{
anchors = (
{
name = bottomright;
position = "{1278, 0}";
},
{
name = top;
position = "{649, 1096}";
}
);
layerId = "2E634D02-5A4A-4A55-A314-31ACA041593B";
paths = (
{
closed = 1;
nodes = (
"176 0 LINE",
"383 0 LINE",
"975 932 LINE",
"970 802 LINE",
"967 670 LINE",
"967 0 LINE",
"1122 0 LINE",
"1122 1096 LINE",
"915 1096 LINE",
"322 162 LINE",
"325 219 LINE",
"332 401 LINE",
"332 1096 LINE",
"176 1096 LINE"
);
}
);
width = 1298;
}
);
note = afii10074;
unicode = 0438;
},
{
glyphname = afii10076;
lastChange = "2017-05-07 23:59:40 +0000";
layers = (
{
anchors = (
{
name = bottomright;
position = "{1043, 0}";
},
{
name = top;
position = "{532, 1096}";
}
);
layerId = "2E634D02-5A4A-4A55-A314-31ACA041593B";
paths = (
{
closed = 1;
nodes = (
"342 1096 LINE",
"176 1096 LINE",
"176 0 LINE",
"342 0 LINE",
"342 555 LINE",
"842 0 LINE",
"1036 0 LINE",
"524 567 LINE",
"997 1096 LINE",
"815 1096 LINE",
"342 563 LINE"
);
}
);
width = 1063;
}
);
note = afii10076;
unicode = 043A;
},
{
glyphname = afii10077;
lastChange = "2017-04-22 20:56:27 +0000";
layers = (
{
layerId = "2E634D02-5A4A-4A55-A314-31ACA041593B";
paths = (
{
closed = 1;
nodes = (
"352 1096 LINE",
"329 766 OFFCURVE",
"294 520 OFFCURVE",
"249 358 CURVE SMOOTH",
"204 196 OFFCURVE",
"143 115 OFFCURVE",
"66 115 CURVE SMOOTH",
"47 115 OFFCURVE",
"31 117 OFFCURVE",
"16 121 CURVE",
"16 -2 LINE",
"37 -10 OFFCURVE",
"66 -14 OFFCURVE",
"102 -14 CURVE SMOOTH",
"181 -14 OFFCURVE",
"246 18 OFFCURVE",
"297 83 CURVE SMOOTH",
"399 212 OFFCURVE",
"460 479 OFFCURVE",
"496 954 CURVE",
"825 954 LINE",
"825 0 LINE",
"993 0 LINE",
"993 1096 LINE"
);
}
);
width = 1169;
}
);
note = afii10077;
unicode = 043B;
},
{
glyphname = afii10078;
lastChange = "2017-04-22 20:56:27 +0000";
layers = (
{
layerId = "2E634D02-5A4A-4A55-A314-31ACA041593B";
paths = (
{
closed = 1;
nodes = (
"721 246 OFFCURVE",
"695 326 OFFCURVE",
"666 399 CURVE SMOOTH",
"379 1094 LINE",
"176 1094 LINE",
"176 0 LINE",
"324 0 LINE",
"324 905 LINE",
"337 855 OFFCURVE",
"362 785 OFFCURVE",
"397 696 CURVE SMOOTH",
"680 0 LINE",
"819 0 LINE",
"1102 694 LINE",
"1160 847 LINE",
"1180 905 LINE",
"1180 0 LINE",
"1327 0 LINE",
"1327 1094 LINE",
"1116 1094 LINE",
"819 371 LINE",
"776 253 LINE",
"745 160 LINE"
);
}
);
width = 1505;
}
);
note = afii10078;
unicode = 043C;
},
{
glyphname = afii10079;
lastChange = "2017-05-07 23:59:40 +0000";
layers = (
{
anchors = (
{
name = bottomright;
position = "{1278, 0}";
}
);
layerId = "2E634D02-5A4A-4A55-A314-31ACA041593B";
paths = (
{
closed = 1;
nodes = (
"176 0 LINE",
"342 0 LINE",
"342 494 LINE",
"956 494 LINE",
"956 0 LINE",
"1122 0 LINE",
"1122 1096 LINE",
"956 1096 LINE",
"956 637 LINE",
"342 637 LINE",
"342 1096 LINE",
"176 1096 LINE"
);
}
);
width = 1298;
}
);
note = afii10079;
unicode = 043D;
},
{
glyphname = afii10081;
lastChange = "2017-05-07 23:59:40 +0000";
layers = (
{
anchors = (
{
name = bottomright;
position = "{1252, 0}";
}
);
layerId = "2E634D02-5A4A-4A55-A314-31ACA041593B";
paths = (
{
closed = 1;
nodes = (
"928 952 LINE",
"928 0 LINE",
"1096 0 LINE",
"1096 1096 LINE",
"176 1096 LINE",
"176 0 LINE",
"342 0 LINE",
"342 952 LINE"
);
}
);
width = 1272;
}
);
note = afii10081;
unicode = 043F;
},
{
glyphname = afii10084;
lastChange = "2017-05-07 23:59:40 +0000";
layers = (
{
anchors = (
{
name = bottomright;
position = "{936, 0}";
}
);
layerId = "2E634D02-5A4A-4A55-A314-31ACA041593B";
paths = (
{
closed = 1;
nodes = (
"41 1096 LINE",
"41 954 LINE",
"393 954 LINE",
"393 0 LINE",
"559 0 LINE",
"559 954 LINE",
"915 954 LINE",
"915 1096 LINE"
);
}
);
width = 956;
}
);
note = afii10084;
unicode = 0442;
},
{
glyphname = afii10086;
lastChange = "2017-04-22 20:56:27 +0000";
layers = (
{
layerId = "2E634D02-5A4A-4A55-A314-31ACA041593B";
paths = (
{
closed = 1;
nodes = (
"1350 869 OFFCURVE",
"1148 1081 OFFCURVE",
"813 1112 CURVE",
"813 1556 LINE",
"655 1556 LINE",
"655 1112 LINE",
"315 1085 OFFCURVE",
"113 881 OFFCURVE",
"113 549 CURVE SMOOTH",
"113 224 OFFCURVE",
"318 9 OFFCURVE",
"649 -16 CURVE",
"649 -492 LINE",
"813 -492 LINE",
"813 -16 LINE",
"1152 12 OFFCURVE",
"1350 217 OFFCURVE",
"1350 549 CURVE SMOOTH"
);
},
{
closed = 1;
nodes = (
"287 816 OFFCURVE",
"408 950 OFFCURVE",
"655 973 CURVE",
"655 121 LINE",
"399 145 OFFCURVE",
"287 293 OFFCURVE",
"287 549 CURVE SMOOTH"
);
},
{
closed = 1;
nodes = (
"1178 294 OFFCURVE",
"1066 146 OFFCURVE",
"813 121 CURVE",
"813 971 LINE",
"1056 945 OFFCURVE",
"1178 804 OFFCURVE",
"1178 549 CURVE SMOOTH"
);
}
);
width = 1464;
}
);
note = afii10086;
unicode = 0444;
},
{
glyphname = afii10088;
lastChange = "2017-04-22 20:56:27 +0000";
layers = (
{
layerId = "2E634D02-5A4A-4A55-A314-31ACA041593B";
paths = (
{
closed = 1;
nodes = (
"1090 143 LINE",
"1090 1096 LINE",
"924 1096 LINE",
"924 143 LINE",
"342 143 LINE",
"342 1096 LINE",
"176 1096 LINE",
"176 0 LINE",
"1079 0 LINE",
"1079 -379 LINE",
"1245 -379 LINE",
"1245 143 LINE"
);
}
);
width = 1282;
}
);
note = afii10088;
unicode = 0446;
},
{
glyphname = afii10089;
lastChange = "2017-05-07 23:59:40 +0000";
layers = (
{
anchors = (
{
name = bottomright;
position = "{1225, 0}";
},
{
name = top;
position = "{623, 1096}";
}
);
layerId = "2E634D02-5A4A-4A55-A314-31ACA041593B";
paths = (
{
closed = 1;
nodes = (
"156 684 LINE SMOOTH",
"156 488 OFFCURVE",
"287 365 OFFCURVE",
"506 365 CURVE SMOOTH",
"657 365 OFFCURVE",
"763 400 OFFCURVE",
"903 496 CURVE",
"903 0 LINE",
"1069 0 LINE",
"1069 1096 LINE",
"903 1096 LINE",
"903 627 LINE",
"763 538 OFFCURVE",
"662 504 OFFCURVE",
"541 504 CURVE SMOOTH",
"395 504 OFFCURVE",
"322 568 OFFCURVE",
"322 696 CURVE SMOOTH",
"322 1096 LINE",
"156 1096 LINE"
);
}
);
width = 1245;
}
);
note = afii10089;
unicode = 0447;
},
{
glyphname = afii10090;
lastChange = "2017-04-22 20:56:27 +0000";
layers = (
{
layerId = "2E634D02-5A4A-4A55-A314-31ACA041593B";
paths = (
{
closed = 1;
nodes = (
"827 1096 LINE",
"827 143 LINE",
"342 143 LINE",
"342 1096 LINE",
"176 1096 LINE",
"176 0 LINE",
"1647 0 LINE",
"1647 1096 LINE",
"1479 1096 LINE",
"1479 143 LINE",
"993 143 LINE",
"993 1096 LINE"
);
}
);
width = 1823;
}
);
note = afii10090;
unicode = 0448;
},
{
glyphname = afii10091;
lastChange = "2017-04-22 20:56:27 +0000";
layers = (
{
layerId = "2E634D02-5A4A-4A55-A314-31ACA041593B";
paths = (
{
closed = 1;
nodes = (
"827 1094 LINE",
"827 143 LINE",
"342 143 LINE",
"342 1094 LINE",
"176 1094 LINE",
"176 0 LINE",
"1634 0 LINE",
"1634 -377 LINE",
"1802 -377 LINE",
"1802 143 LINE",
"1645 143 LINE",
"1645 1094 LINE",
"1479 1094 LINE",
"1479 143 LINE",
"993 143 LINE",
"993 1094 LINE"
);
}
);
width = 1837;
}
);
note = afii10091;
unicode = 0449;
},
{
glyphname = afii10092;
lastChange = "2017-04-22 20:56:27 +0000";
layers = (
{
layerId = "2E634D02-5A4A-4A55-A314-31ACA041593B";
paths = (
{
closed = 1;
nodes = (
"41 1096 LINE",
"41 954 LINE",
"391 954 LINE",
"391 0 LINE",
"866 0 LINE SMOOTH",
"1159 0 OFFCURVE",
"1309 113 OFFCURVE",
"1309 334 CURVE SMOOTH",
"1309 541 OFFCURVE",
"1169 643 OFFCURVE",
"870 643 CURVE SMOOTH",
"557 643 LINE",
"557 1096 LINE"
);
},
{
closed = 1;
nodes = (
"1145 201 OFFCURVE",
"1053 139 OFFCURVE",
"870 139 CURVE SMOOTH",
"557 139 LINE",
"557 500 LINE",
"864 500 LINE SMOOTH",
"1073 500 OFFCURVE",
"1145 448 OFFCURVE",
"1145 324 CURVE SMOOTH"
);
}
);
width = 1423;
}
);
note = afii10092;
unicode = 044A;
},
{
glyphname = afii10093;
lastChange = "2017-05-07 23:59:40 +0000";
layers = (
{
anchors = (
{
name = top;
position = "{789, 1096}";
}
);
layerId = "2E634D02-5A4A-4A55-A314-31ACA041593B";
paths = (
{
closed = 1;
nodes = (
"176 1096 LINE",
"176 0 LINE",
"631 0 LINE SMOOTH",
"907 0 OFFCURVE",
"1051 114 OFFCURVE",
"1051 334 CURVE SMOOTH",
"1051 539 OFFCURVE",
"920 643 OFFCURVE",
"641 643 CURVE SMOOTH",
"342 643 LINE",
"342 1096 LINE"
);
},
{
closed = 1;
nodes = (
"1235 1096 LINE",
"1235 0 LINE",
"1401 0 LINE",
"1401 1096 LINE"
);
},
{
closed = 1;
nodes = (
"814 500 OFFCURVE",
"887 447 OFFCURVE",
"887 324 CURVE SMOOTH",
"887 201 OFFCURVE",
"799 139 OFFCURVE",
"623 139 CURVE SMOOTH",
"342 139 LINE",
"342 500 LINE",
"618 500 LINE SMOOTH"
);
}
);
width = 1577;
}
);
note = afii10093;
unicode = 044B;
},
{
glyphname = afii10094;
lastChange = "2017-04-22 20:56:27 +0000";
layers = (
{
layerId = "2E634D02-5A4A-4A55-A314-31ACA041593B";
paths = (
{
closed = 1;
nodes = (
"176 1096 LINE",
"176 0 LINE",
"670 0 LINE SMOOTH",
"951 0 OFFCURVE",
"1100 118 OFFCURVE",
"1100 334 CURVE SMOOTH",
"1100 540 OFFCURVE",
"960 643 OFFCURVE",
"680 643 CURVE SMOOTH",
"342 643 LINE",
"342 1096 LINE"
);
},
{
closed = 1;
nodes = (
"854 500 OFFCURVE",
"934 445 OFFCURVE",
"934 324 CURVE SMOOTH",
"934 200 OFFCURVE",
"838 139 OFFCURVE",
"662 139 CURVE SMOOTH",
"342 139 LINE",
"342 500 LINE",
"657 500 LINE SMOOTH"
);
}
);
width = 1212;
}
);
note = afii10094;
unicode = 044C;
},
{
glyphname = afii10095;
lastChange = "2017-05-07 23:59:40 +0000";
layers = (
{
anchors = (
{
name = top;
position = "{504, 1096}";
}
);
layerId = "2E634D02-5A4A-4A55-A314-31ACA041593B";
paths = (
{
closed = 1;
nodes = (
"691 -20 OFFCURVE",
"893 188 OFFCURVE",
"893 547 CURVE SMOOTH",
"893 915 OFFCURVE",
"712 1116 OFFCURVE",
"371 1116 CURVE SMOOTH",
"264 1116 OFFCURVE",
"145 1090 OFFCURVE",
"72 1055 CURVE",
"119 915 LINE",
"220 951 OFFCURVE",
"304 969 OFFCURVE",
"373 969 CURVE SMOOTH",
"588 969 OFFCURVE",
"698 866 OFFCURVE",
"719 637 CURVE",
"166 637 LINE",
"166 496 LINE",
"721 496 LINE",
"708 249 OFFCURVE",
"580 125 OFFCURVE",
"348 125 CURVE SMOOTH",
"227 125 OFFCURVE",
"137 153 OFFCURVE",
"57 184 CURVE",
"57 37 LINE",
"136 -1 OFFCURVE",
"231 -20 OFFCURVE",
"342 -20 CURVE SMOOTH"
);
}
);
width = 1008;
}
);
note = afii10095;
unicode = 044D;
},
{
glyphname = afii10096;
lastChange = "2017-05-07 23:59:40 +0000";
layers = (
{
anchors = (
{
name = top;
position = "{851, 1096}";
}
);
layerId = "2E634D02-5A4A-4A55-A314-31ACA041593B";
paths = (
{
closed = 1;
nodes = (
"1587 898 OFFCURVE",
"1403 1116 OFFCURVE",
"1110 1116 CURVE SMOOTH",
"834 1116 OFFCURVE",
"658 941 OFFCURVE",
"631 637 CURVE",
"342 637 LINE",
"342 1096 LINE",
"176 1096 LINE",
"176 0 LINE",
"342 0 LINE",
"342 494 LINE",
"629 494 LINE",
"648 165 OFFCURVE",
"822 -20 OFFCURVE",
"1106 -20 CURVE SMOOTH",
"1405 -20 OFFCURVE",
"1587 190 OFFCURVE",
"1587 549 CURVE SMOOTH"
);
},
{
closed = 1;
nodes = (
"801 829 OFFCURVE",
"893 975 OFFCURVE",
"1108 975 CURVE SMOOTH",
"1323 975 OFFCURVE",
"1415 829 OFFCURVE",
"1415 549 CURVE SMOOTH",
"1415 260 OFFCURVE",
"1319 119 OFFCURVE",
"1108 119 CURVE SMOOTH",
"893 119 OFFCURVE",
"801 268 OFFCURVE",
"801 549 CURVE SMOOTH"
);
}
);
width = 1702;
}
);
note = afii10096;
unicode = 044E;
},
{
glyphname = afii10097;
lastChange = "2017-05-07 23:59:40 +0000";
layers = (
{
anchors = (
{
name = top;
position = "{569, 1096}";
}
);
layerId = "2E634D02-5A4A-4A55-A314-31ACA041593B";
paths = (
{
closed = 1;
nodes = (
"795 438 LINE",
"795 0 LINE",
"961 0 LINE",
"961 1096 LINE",
"473 1096 LINE SMOOTH",
"232 1096 OFFCURVE",
"90 974 OFFCURVE",
"90 774 CURVE SMOOTH",
"90 611 OFFCURVE",
"183 500 OFFCURVE",
"352 463 CURVE",
"37 0 LINE",
"231 0 LINE",
"518 438 LINE"
);
},
{
closed = 1;
nodes = (
"252 892 OFFCURVE",
"333 952 OFFCURVE",
"494 952 CURVE SMOOTH",
"795 952 LINE",
"795 582 LINE",
"528 582 LINE SMOOTH",
"344 582 OFFCURVE",
"252 645 OFFCURVE",
"252 772 CURVE SMOOTH"
);
}
);
width = 1137;
}
);
note = afii10097;
unicode = 044F;
},
{
glyphname = afii10099;
lastChange = "2017-04-22 20:56:27 +0000";
layers = (
{
layerId = "2E634D02-5A4A-4A55-A314-31ACA041593B";
paths = (
{
closed = 1;
nodes = (
"1002 -492 OFFCURVE",
"1092 -374 OFFCURVE",
"1092 -166 CURVE SMOOTH",
"1092 676 LINE SMOOTH",
"1092 956 OFFCURVE",
"958 1077 OFFCURVE",
"690 1077 CURVE SMOOTH",
"535 1077 OFFCURVE",
"409 1012 OFFCURVE",
"344 907 CURVE",
"334 907 LINE",
"339 944 OFFCURVE",
"342 991 OFFCURVE",
"342 1047 CURVE SMOOTH",
"342 1243 LINE",
"743 1243 LINE",
"743 1370 LINE",
"342 1370 LINE",
"342 1556 LINE",
"176 1556 LINE",
"176 1370 LINE",
"20 1370 LINE",
"20 1243 LINE",
"176 1243 LINE",
"176 0 LINE",
"344 0 LINE",
"344 537 LINE SMOOTH",
"344 818 OFFCURVE",
"443 936 OFFCURVE",
"674 936 CURVE SMOOTH",
"847 936 OFFCURVE",
"926 849 OFFCURVE",
"926 670 CURVE SMOOTH",
"926 -180 LINE SMOOTH",
"926 -293 OFFCURVE",
"883 -350 OFFCURVE",
"797 -350 CURVE SMOOTH",
"760 -350 OFFCURVE",
"723 -343 OFFCURVE",
"684 -330 CURVE",
"684 -467 LINE",
"719 -484 OFFCURVE",
"762 -492 OFFCURVE",
"815 -492 CURVE SMOOTH"
);
}
);
width = 1257;
}
);
note = afii10099;
unicode = 0452;
},
{
glyphname = afii10101;
lastChange = "2017-04-22 20:56:27 +0000";
layers = (
{
layerId = "2E634D02-5A4A-4A55-A314-31ACA041593B";
paths = (
{
closed = 1;
nodes = (
"748 -20 OFFCURVE",
"845 -1 OFFCURVE",
"922 37 CURVE",
"922 184 LINE",
"821 145 OFFCURVE",
"724 125 OFFCURVE",
"631 125 CURVE SMOOTH",
"408 125 OFFCURVE",
"297 243 OFFCURVE",
"285 496 CURVE",
"840 496 LINE",
"840 637 LINE",
"287 637 LINE",
"308 862 OFFCURVE",
"418 969 OFFCURVE",
"637 969 CURVE SMOOTH",
"710 969 OFFCURVE",
"794 952 OFFCURVE",
"889 918 CURVE",
"938 1059 LINE",
"862 1092 OFFCURVE",
"750 1116 OFFCURVE",
"641 1116 CURVE SMOOTH",
"306 1116 OFFCURVE",
"115 910 OFFCURVE",
"115 543 CURVE SMOOTH",
"115 180 OFFCURVE",
"302 -20 OFFCURVE",
"633 -20 CURVE SMOOTH"
);
}
);
width = 1008;
}
);
note = afii10101;
unicode = 0454;
},
{
glyphname = afii10106;
lastChange = "2017-04-22 20:56:27 +0000";
layers = (
{
layerId = "2E634D02-5A4A-4A55-A314-31ACA041593B";
paths = (
{
closed = 1;
nodes = (
"352 1096 LINE",
"329 766 OFFCURVE",
"294 520 OFFCURVE",
"249 358 CURVE SMOOTH",
"204 196 OFFCURVE",
"143 115 OFFCURVE",
"66 115 CURVE SMOOTH",
"47 115 OFFCURVE",
"31 117 OFFCURVE",
"16 121 CURVE",
"16 -2 LINE",
"37 -10 OFFCURVE",
"67 -14 OFFCURVE",
"104 -14 CURVE SMOOTH",
"218 -14 OFFCURVE",
"305 61 OFFCURVE",
"366 211 CURVE SMOOTH",
"426 361 OFFCURVE",
"469 609 OFFCURVE",
"496 954 CURVE",
"754 954 LINE",
"754 0 LINE",
"1165 0 LINE SMOOTH",
"1456 0 OFFCURVE",
"1602 111 OFFCURVE",
"1602 334 CURVE SMOOTH",
"1602 539 OFFCURVE",
"1469 643 OFFCURVE",
"1188 643 CURVE SMOOTH",
"944 643 LINE",
"944 1096 LINE"
);
},
{
closed = 1;
nodes = (
"1436 201 OFFCURVE",
"1344 139 OFFCURVE",
"1159 139 CURVE SMOOTH",
"922 139 LINE",
"922 500 LINE",
"1153 500 LINE SMOOTH",
"1364 500 OFFCURVE",
"1436 445 OFFCURVE",
"1436 324 CURVE SMOOTH"
);
}
);
width = 1714;
}
);
note = afii10106;
unicode = 0459;
},
{
glyphname = afii10107;
lastChange = "2017-04-22 20:56:27 +0000";
layers = (
{
layerId = "2E634D02-5A4A-4A55-A314-31ACA041593B";
paths = (
{
closed = 1;
nodes = (
"854 637 LINE",
"348 637 LINE",
"348 1094 LINE",
"176 1094 LINE",
"176 0 LINE",
"348 0 LINE",
"348 494 LINE",
"850 494 LINE",
"850 0 LINE",
"1266 0 LINE SMOOTH",
"1555 0 OFFCURVE",
"1700 111 OFFCURVE",
"1700 334 CURVE SMOOTH",
"1700 539 OFFCURVE",
"1569 641 OFFCURVE",
"1280 641 CURVE SMOOTH",
"1024 641 LINE",
"1024 1094 LINE",
"854 1094 LINE"
);
},
{
closed = 1;
nodes = (
"1459 500 OFFCURVE",
"1536 447 OFFCURVE",
"1536 324 CURVE SMOOTH",
"1536 201 OFFCURVE",
"1444 139 OFFCURVE",
"1260 139 CURVE SMOOTH",
"1020 139 LINE",
"1020 500 LINE",
"1255 500 LINE SMOOTH"
);
}
);
width = 1815;
}
);
note = afii10107;
unicode = 045A;
},
{
glyphname = afii10193;
lastChange = "2017-04-22 20:56:27 +0000";
layers = (
{
layerId = "2E634D02-5A4A-4A55-A314-31ACA041593B";
paths = (
{
closed = 1;
nodes = (
"725 -377 LINE",
"725 0 LINE",
"1094 0 LINE",
"1094 1094 LINE",
"928 1094 LINE",
"928 143 LINE",
"342 143 LINE",
"342 1094 LINE",
"176 1094 LINE",
"176 0 LINE",
"559 0 LINE",
"559 -377 LINE"
);
}
);
width = 1272;
}
);
note = afii10193;
unicode = 045F;
},
{
glyphname = afii10050;
lastChange = "2017-04-22 20:56:27 +0000";
layers = (
{
layerId = "2E634D02-5A4A-4A55-A314-31ACA041593B";
paths = (
{
closed = 1;
nodes = (
"201 0 LINE",
"371 0 LINE",
"371 1309 LINE",
"1032 1309 LINE",
"1032 1763 LINE",
"870 1763 LINE",
"870 1462 LINE",
"201 1462 LINE"
);
}
);
width = 1079;
}
);
note = afii10050;
unicode = 0490;
},
{
glyphname = afii10098;
lastChange = "2017-04-22 20:56:27 +0000";
layers = (
{
layerId = "2E634D02-5A4A-4A55-A314-31ACA041593B";
paths = (
{
closed = 1;
nodes = (
"670 1417 LINE",
"670 1096 LINE",
"176 1096 LINE",
"176 0 LINE",
"342 0 LINE",
"342 967 LINE",
"836 967 LINE",
"836 1417 LINE"
);
}
);
width = 877;
}
);
note = afii10098;
unicode = 0491;
},
{
glyphname = endash;
lastChange = "2017-04-22 20:56:27 +0000";
layers = (
{
layerId = "2E634D02-5A4A-4A55-A314-31ACA041593B";
paths = (
{
closed = 1;
nodes = (
"942 625 LINE",
"82 625 LINE",
"82 473 LINE",
"942 473 LINE"
);
}
);
width = 1024;
}
);
note = endash;
unicode = 2013;
},
{
glyphname = emdash;
lastChange = "2017-04-22 20:56:27 +0000";
layers = (
{
layerId = "2E634D02-5A4A-4A55-A314-31ACA041593B";
paths = (
{
closed = 1;
nodes = (
"1966 625 LINE",
"82 625 LINE",
"82 473 LINE",
"1966 473 LINE"
);
}
);
width = 2048;
}
);
note = emdash;
unicode = 2014;
},
{
glyphname = underscoredbl;
lastChange = "2017-04-22 20:56:27 +0000";
layers = (
{
layerId = "2E634D02-5A4A-4A55-A314-31ACA041593B";
paths = (
{
closed = 1;
nodes = (
"-4 -324 LINE",
"-4 -463 LINE",
"846 -463 LINE",
"846 -324 LINE"
);
},
{
closed = 1;
nodes = (
"-4 -45 LINE",
"-4 -184 LINE",
"846 -184 LINE",
"846 -45 LINE"
);
}
);
width = 842;
}
);
note = underscoredbl;
unicode = 2017;
},
{
glyphname = quoteleft;
lastChange = "2017-04-22 20:56:27 +0000";
layers = (
{
layerId = "2E634D02-5A4A-4A55-A314-31ACA041593B";
paths = (
{
closed = 1;
nodes = (
"246 1126 OFFCURVE",
"280 1293 OFFCURVE",
"324 1462 CURVE",
"201 1462 LINE",
"126 1301 OFFCURVE",
"54 1103 OFFCURVE",
"25 983 CURVE",
"37 961 LINE",
"221 961 LINE"
);
}
);
width = 348;
}
);
note = quoteleft;
unicode = 2018;
},
